<svg width="1088" height="1088" viewBox="0 0 1088 1088" fill="none" xmlns="http://www.w3.org/2000/svg">
<rect x="5" y="5" width="1078" height="1078" fill="#FF39A4" stroke="#FAF6EF" stroke-width="10"/>
<path d="M103.009 536.797V513.182H243.722V536.797H186.993V695H159.649V536.797H103.009ZM272.686 695V558.636H299.231V695H272.686ZM286.092 537.596C281.475 537.596 277.51 536.057 274.195 532.979C270.94 529.843 269.313 526.114 269.313 521.793C269.313 517.414 270.94 513.685 274.195 510.607C277.51 507.47 281.475 505.902 286.092 505.902C290.708 505.902 294.644 507.47 297.899 510.607C301.214 513.685 302.871 517.414 302.871 521.793C302.871 526.114 301.214 529.843 297.899 532.979C294.644 536.057 290.708 537.596 286.092 537.596ZM334.942 695V558.636H360.422V580.831H362.108C364.949 573.314 369.595 567.455 376.047 563.253C382.498 558.991 390.221 556.861 399.218 556.861C408.332 556.861 415.967 558.991 422.123 563.253C428.337 567.514 432.924 573.374 435.883 580.831H437.304C440.559 573.551 445.738 567.751 452.84 563.43C459.942 559.051 468.406 556.861 478.23 556.861C490.6 556.861 500.691 560.737 508.504 568.491C516.376 576.244 520.311 587.933 520.311 603.558V695H493.767V606.044C493.767 596.811 491.251 590.123 486.221 585.98C481.19 581.837 475.182 579.766 468.199 579.766C459.557 579.766 452.84 582.429 448.046 587.756C443.252 593.023 440.855 599.8 440.855 608.086V695H414.399V604.357C414.399 596.959 412.091 591.011 407.474 586.513C402.858 582.015 396.85 579.766 389.452 579.766C384.421 579.766 379.775 581.097 375.514 583.761C371.312 586.365 367.909 590.005 365.304 594.68C362.759 599.356 361.487 604.772 361.487 610.927V695H334.942ZM614.661 697.752C601.226 697.752 589.655 694.882 579.948 689.141C570.301 683.34 562.844 675.202 557.576 664.727C552.368 654.192 549.764 641.851 549.764 627.706C549.764 613.738 552.368 601.428 557.576 590.774C562.844 580.121 570.183 571.805 579.593 565.827C589.063 559.85 600.131 556.861 612.796 556.861C620.49 556.861 627.948 558.133 635.169 560.678C642.389 563.223 648.87 567.218 654.611 572.663C660.352 578.108 664.88 585.181 668.194 593.881C671.508 602.522 673.166 613.028 673.166 625.398V634.808H564.767V614.922H647.154C647.154 607.938 645.733 601.753 642.892 596.367C640.051 590.922 636.056 586.631 630.907 583.494C625.817 580.357 619.839 578.789 612.974 578.789C605.517 578.789 599.006 580.624 593.443 584.293C587.938 587.904 583.677 592.638 580.659 598.498C577.699 604.298 576.22 610.601 576.22 617.408V632.944C576.22 642.058 577.818 649.812 581.014 656.204C584.269 662.596 588.797 667.479 594.597 670.852C600.397 674.167 607.174 675.824 614.927 675.824C619.958 675.824 624.545 675.114 628.688 673.693C632.831 672.214 636.411 670.024 639.43 667.124C642.448 664.223 644.757 660.643 646.355 656.381L671.479 660.909C669.467 668.307 665.856 674.788 660.648 680.352C655.499 685.856 649.018 690.147 641.205 693.224C633.452 696.243 624.604 697.752 614.661 697.752ZM127.334 939H98.2145L163.644 757.182H195.338L260.768 939H231.648L180.246 790.207H178.825L127.334 939ZM132.217 867.8H226.677V890.882H132.217V867.8ZM340.002 802.636V823.943H265.517V802.636H340.002ZM285.493 769.966H312.037V898.961C312.037 904.11 312.807 907.987 314.346 910.591C315.884 913.136 317.867 914.882 320.294 915.829C322.779 916.717 325.472 917.161 328.373 917.161C330.503 917.161 332.368 917.013 333.966 916.717C335.564 916.421 336.806 916.184 337.694 916.006L342.488 937.935C340.949 938.527 338.76 939.118 335.919 939.71C333.078 940.361 329.527 940.716 325.265 940.776C318.281 940.894 311.771 939.651 305.734 937.047C299.697 934.443 294.814 930.418 291.086 924.973C287.357 919.528 285.493 912.692 285.493 904.465V769.966ZM433.02 802.636V823.943H358.535V802.636H433.02ZM378.51 769.966H405.055V898.961C405.055 904.11 405.824 907.987 407.363 910.591C408.902 913.136 410.885 914.882 413.311 915.829C415.797 916.717 418.49 917.161 421.39 917.161C423.521 917.161 425.385 917.013 426.983 916.717C428.581 916.421 429.824 916.184 430.712 916.006L435.506 937.935C433.967 938.527 431.777 939.118 428.936 939.71C426.095 940.361 422.544 940.716 418.283 940.776C411.299 940.894 404.789 939.651 398.752 937.047C392.715 934.443 387.832 930.418 384.103 924.973C380.374 919.528 378.51 912.692 378.51 904.465V769.966ZM502.067 942.018C493.426 942.018 485.614 940.42 478.63 937.224C471.646 933.969 466.112 929.264 462.028 923.109C458.004 916.953 455.991 909.407 455.991 900.47C455.991 892.776 457.471 886.443 460.43 881.472C463.39 876.5 467.385 872.564 472.415 869.664C477.446 866.764 483.069 864.574 489.283 863.094C495.498 861.615 501.831 860.49 508.282 859.721C516.45 858.774 523.078 858.004 528.168 857.413C533.258 856.762 536.957 855.726 539.266 854.305C541.574 852.885 542.728 850.577 542.728 847.381V846.759C542.728 839.006 540.538 832.999 536.158 828.737C531.838 824.476 525.387 822.345 516.805 822.345C507.868 822.345 500.825 824.328 495.675 828.293C490.585 832.2 487.064 836.55 485.111 841.344L460.164 835.662C463.123 827.376 467.444 820.688 473.126 815.598C478.867 810.449 485.466 806.72 492.923 804.412C500.381 802.045 508.223 800.861 516.45 800.861C521.895 800.861 527.665 801.512 533.761 802.814C539.917 804.057 545.658 806.365 550.984 809.739C556.37 813.112 560.78 817.936 564.212 824.21C567.645 830.424 569.362 838.503 569.362 848.446V939H543.438V920.357H542.373C540.656 923.789 538.082 927.163 534.649 930.477C531.216 933.792 526.807 936.544 521.421 938.734C516.035 940.924 509.584 942.018 502.067 942.018ZM507.838 920.712C515.177 920.712 521.451 919.262 526.659 916.362C531.927 913.461 535.922 909.674 538.644 904.998C541.426 900.263 542.817 895.203 542.817 889.817V872.239C541.87 873.186 540.035 874.073 537.312 874.902C534.649 875.671 531.601 876.352 528.168 876.944C524.736 877.477 521.392 877.98 518.136 878.453C514.881 878.867 512.159 879.223 509.969 879.518C504.82 880.17 500.114 881.264 495.853 882.803C491.651 884.342 488.277 886.562 485.732 889.462C483.246 892.303 482.004 896.09 482.004 900.825C482.004 907.395 484.43 912.366 489.283 915.74C494.137 919.054 500.321 920.712 507.838 920.712ZM662.157 941.752C648.959 941.752 637.595 938.763 628.066 932.786C618.597 926.749 611.317 918.433 606.227 907.839C601.137 897.245 598.592 885.112 598.592 871.44C598.592 857.59 601.196 845.368 606.404 834.774C611.613 824.121 618.952 815.805 628.421 809.827C637.891 803.85 649.048 800.861 661.891 800.861C672.248 800.861 681.481 802.784 689.59 806.631C697.698 810.419 704.238 815.746 709.21 822.612C714.24 829.477 717.229 837.497 718.176 846.67H692.342C690.921 840.278 687.666 834.774 682.576 830.158C677.545 825.541 670.798 823.233 662.335 823.233C654.936 823.233 648.456 825.186 642.892 829.092C637.388 832.939 633.097 838.444 630.019 845.605C626.942 852.707 625.403 861.112 625.403 870.818C625.403 880.761 626.912 889.343 629.931 896.564C632.949 903.785 637.21 909.378 642.715 913.343C648.278 917.308 654.818 919.291 662.335 919.291C667.365 919.291 671.923 918.374 676.007 916.539C680.15 914.645 683.612 911.952 686.394 908.46C689.235 904.968 691.217 900.766 692.342 895.854H718.176C717.229 904.672 714.359 912.544 709.565 919.469C704.771 926.393 698.349 931.839 690.3 935.804C682.31 939.769 672.929 941.752 662.157 941.752ZM770.977 892.746L770.8 860.342H775.416L829.749 802.636H861.531L799.564 868.332H795.391L770.977 892.746ZM746.563 939V757.182H773.108V939H746.563ZM832.678 939L783.85 874.192L802.138 855.637L865.26 939H832.678Z" fill="black"/>
<path d="M95.1605 137V100.636H102.849V115.64H118.456V100.636H126.126V137H118.456V121.979H102.849V137H95.1605ZM165.881 118.818C165.881 122.784 165.13 126.157 163.626 128.939C162.135 131.721 160.099 133.845 157.518 135.313C154.95 136.769 152.062 137.497 148.854 137.497C145.622 137.497 142.722 136.763 140.153 135.295C137.585 133.828 135.555 131.703 134.063 128.921C132.572 126.139 131.826 122.772 131.826 118.818C131.826 114.853 132.572 111.479 134.063 108.697C135.555 105.916 137.585 103.797 140.153 102.341C142.722 100.873 145.622 100.139 148.854 100.139C152.062 100.139 154.95 100.873 157.518 102.341C160.099 103.797 162.135 105.916 163.626 108.697C165.13 111.479 165.881 114.853 165.881 118.818ZM158.087 118.818C158.087 116.25 157.702 114.083 156.933 112.32C156.175 110.556 155.104 109.218 153.719 108.307C152.334 107.395 150.712 106.94 148.854 106.94C146.995 106.94 145.374 107.395 143.989 108.307C142.604 109.218 141.527 110.556 140.757 112.32C140 114.083 139.621 116.25 139.621 118.818C139.621 121.387 140 123.553 140.757 125.317C141.527 127.08 142.604 128.418 143.989 129.33C145.374 130.241 146.995 130.697 148.854 130.697C150.712 130.697 152.334 130.241 153.719 129.33C155.104 128.418 156.175 127.08 156.933 125.317C157.702 123.553 158.087 121.387 158.087 118.818ZM168.531 106.975V100.636H198.396V106.975H187.264V137H179.664V106.975H168.531ZM214.887 137V100.636H222.575V130.661H238.165V137H214.887ZM250.452 137H242.213L254.766 100.636H264.674L277.21 137H268.971L259.862 108.946H259.578L250.452 137ZM249.937 122.707H269.397V128.708H249.937V122.707ZM281.586 137V100.636H295.933C298.691 100.636 301.041 101.163 302.982 102.217C304.923 103.258 306.403 104.708 307.421 106.567C308.451 108.413 308.966 110.544 308.966 112.959C308.966 115.374 308.445 117.504 307.403 119.351C306.361 121.197 304.852 122.636 302.875 123.665C300.91 124.695 298.531 125.21 295.738 125.21H286.593V119.049H294.495C295.974 119.049 297.194 118.795 298.152 118.286C299.123 117.765 299.845 117.049 300.319 116.137C300.804 115.214 301.047 114.154 301.047 112.959C301.047 111.751 300.804 110.698 300.319 109.798C299.845 108.887 299.123 108.183 298.152 107.685C297.182 107.176 295.951 106.922 294.459 106.922H289.275V137H281.586Z" fill="black"/>
<path d="M95.995 180.636H102.653L114.23 208.903H114.656L126.233 180.636H132.891V217H127.671V190.686H127.334L116.609 216.947H112.277L101.553 190.668H101.215V217H95.995V180.636ZM172.455 198.818C172.455 202.701 171.745 206.039 170.325 208.832C168.904 211.614 166.957 213.757 164.483 215.26C162.021 216.751 159.222 217.497 156.085 217.497C152.936 217.497 150.125 216.751 147.651 215.26C145.189 213.757 143.247 211.608 141.827 208.815C140.406 206.021 139.696 202.689 139.696 198.818C139.696 194.936 140.406 191.603 141.827 188.822C143.247 186.028 145.189 183.886 147.651 182.394C150.125 180.891 152.936 180.139 156.085 180.139C159.222 180.139 162.021 180.891 164.483 182.394C166.957 183.886 168.904 186.028 170.325 188.822C171.745 191.603 172.455 194.936 172.455 198.818ZM167.022 198.818C167.022 195.859 166.543 193.367 165.584 191.343C164.637 189.307 163.335 187.768 161.678 186.727C160.032 185.673 158.168 185.146 156.085 185.146C153.99 185.146 152.119 185.673 150.474 186.727C148.829 187.768 147.526 189.307 146.568 191.343C145.621 193.367 145.147 195.859 145.147 198.818C145.147 201.777 145.621 204.275 146.568 206.311C147.526 208.335 148.829 209.874 150.474 210.928C152.119 211.969 153.99 212.49 156.085 212.49C158.168 212.49 160.032 211.969 161.678 210.928C163.335 209.874 164.637 208.335 165.584 206.311C166.543 204.275 167.022 201.777 167.022 198.818ZM208.646 180.636V217H203.603L185.12 190.331H184.782V217H179.296V180.636H184.374L202.875 207.341H203.213V180.636H208.646ZM214.856 185.359V180.636H242.999V185.359H231.653V217H226.184V185.359H214.856ZM249.218 217V180.636H254.704V196.439H272.833V180.636H278.337V217H272.833V201.144H254.704V217H249.218ZM286.327 217V180.636H291.814V212.277H308.291V217H286.327ZM309.059 180.636H315.291L324.79 197.167H325.181L334.68 180.636H340.912L327.72 202.724V217H322.251V202.724L309.059 180.636ZM389.528 192.462H383.988C383.775 191.278 383.378 190.236 382.798 189.337C382.218 188.437 381.508 187.674 380.667 187.046C379.827 186.419 378.886 185.945 377.844 185.626C376.814 185.306 375.72 185.146 374.559 185.146C372.464 185.146 370.588 185.673 368.931 186.727C367.286 187.78 365.983 189.325 365.025 191.361C364.078 193.397 363.604 195.883 363.604 198.818C363.604 201.777 364.078 204.275 365.025 206.311C365.983 208.347 367.291 209.886 368.949 210.928C370.606 211.969 372.47 212.49 374.542 212.49C375.69 212.49 376.779 212.336 377.809 212.028C378.85 211.709 379.791 211.241 380.632 210.626C381.472 210.01 382.183 209.259 382.763 208.371C383.354 207.471 383.763 206.441 383.988 205.281L389.528 205.299C389.232 207.086 388.657 208.732 387.805 210.235C386.965 211.727 385.882 213.017 384.556 214.106C383.242 215.183 381.739 216.018 380.046 216.609C378.353 217.201 376.507 217.497 374.506 217.497C371.358 217.497 368.552 216.751 366.09 215.26C363.628 213.757 361.687 211.608 360.266 208.815C358.858 206.021 358.153 202.689 358.153 198.818C358.153 194.936 358.863 191.603 360.284 188.822C361.704 186.028 363.646 183.886 366.108 182.394C368.57 180.891 371.369 180.139 374.506 180.139C376.436 180.139 378.235 180.417 379.904 180.974C381.585 181.518 383.094 182.323 384.432 183.388C385.769 184.442 386.876 185.732 387.752 187.259C388.628 188.774 389.22 190.509 389.528 192.462ZM396.093 217V180.636H401.579V196.439H419.708V180.636H425.212V217H419.708V201.144H401.579V217H396.093ZM436.274 217H430.45L443.536 180.636H449.875L462.961 217H457.137L446.856 187.241H446.572L436.274 217ZM437.25 202.76H456.142V207.376H437.25V202.76ZM468.212 217V180.636H473.698V212.277H490.176V217H468.212ZM496.434 217V180.636H501.921V212.277H518.398V217H496.434ZM524.657 217V180.636H547.455V185.359H530.144V196.439H546.266V201.144H530.144V212.277H547.669V217H524.657ZM584.134 180.636V217H579.092L560.608 190.331H560.271V217H554.784V180.636H559.862L578.364 207.341H578.701V180.636H584.134ZM616.747 192.124C616.404 191.047 615.942 190.082 615.362 189.23C614.794 188.366 614.113 187.632 613.32 187.028C612.527 186.413 611.622 185.945 610.604 185.626C609.597 185.306 608.491 185.146 607.283 185.146C605.235 185.146 603.389 185.673 601.743 186.727C600.098 187.78 598.796 189.325 597.837 191.361C596.89 193.385 596.417 195.865 596.417 198.8C596.417 201.748 596.896 204.24 597.855 206.276C598.814 208.312 600.128 209.856 601.797 210.91C603.466 211.963 605.366 212.49 607.496 212.49C609.473 212.49 611.195 212.088 612.663 211.283C614.143 210.478 615.285 209.341 616.09 207.874C616.907 206.394 617.315 204.654 617.315 202.653L618.736 202.92H608.331V198.392H622.624V202.529C622.624 205.583 621.973 208.235 620.671 210.484C619.381 212.721 617.593 214.449 615.309 215.668C613.036 216.888 610.432 217.497 607.496 217.497C604.206 217.497 601.317 216.74 598.831 215.224C596.358 213.709 594.428 211.561 593.043 208.779C591.658 205.986 590.966 202.671 590.966 198.836C590.966 195.936 591.368 193.332 592.173 191.023C592.978 188.715 594.108 186.756 595.564 185.146C597.032 183.525 598.755 182.288 600.731 181.435C602.72 180.571 604.892 180.139 607.248 180.139C609.213 180.139 611.041 180.429 612.734 181.009C614.439 181.589 615.954 182.412 617.28 183.477C618.617 184.543 619.724 185.809 620.6 187.277C621.476 188.733 622.068 190.349 622.376 192.124H616.747ZM629.589 217V180.636H652.387V185.359H635.075V196.439H651.197V201.144H635.075V212.277H652.6V217H629.589ZM666.197 212.028L665.93 213.964C665.753 215.384 665.451 216.864 665.025 218.403C664.61 219.953 664.178 221.392 663.729 222.717C663.291 224.043 662.93 225.097 662.645 225.878H658.881C659.035 225.144 659.248 224.15 659.52 222.895C659.793 221.652 660.059 220.261 660.319 218.722C660.58 217.183 660.775 215.615 660.905 214.017L661.083 212.028H666.197ZM115.828 251.189C115.639 249.508 114.857 248.206 113.484 247.283C112.111 246.348 110.383 245.88 108.3 245.88C106.808 245.88 105.518 246.117 104.429 246.59C103.34 247.052 102.494 247.691 101.89 248.508C101.298 249.313 101.002 250.23 101.002 251.26C101.002 252.124 101.203 252.87 101.606 253.497C102.02 254.125 102.559 254.651 103.222 255.077C103.896 255.492 104.618 255.841 105.388 256.125C106.157 256.397 106.897 256.622 107.607 256.8L111.158 257.723C112.318 258.007 113.508 258.392 114.727 258.877C115.946 259.362 117.077 260.002 118.119 260.795C119.16 261.588 120.001 262.57 120.64 263.742C121.291 264.914 121.616 266.317 121.616 267.95C121.616 270.01 121.084 271.839 120.018 273.437C118.965 275.035 117.432 276.295 115.42 277.219C113.419 278.142 110.999 278.604 108.158 278.604C105.435 278.604 103.08 278.172 101.091 277.308C99.1023 276.443 97.5457 275.218 96.4212 273.632C95.2966 272.034 94.6752 270.14 94.5568 267.95H100.061C100.168 269.264 100.594 270.359 101.339 271.235C102.097 272.099 103.062 272.744 104.234 273.17C105.417 273.585 106.714 273.792 108.122 273.792C109.673 273.792 111.052 273.549 112.259 273.064C113.478 272.567 114.437 271.88 115.136 271.004C115.834 270.116 116.183 269.081 116.183 267.897C116.183 266.82 115.875 265.938 115.26 265.251C114.656 264.565 113.834 263.997 112.792 263.547C111.762 263.097 110.596 262.701 109.294 262.357L104.997 261.185C102.085 260.392 99.777 259.226 98.0724 257.688C96.3797 256.149 95.5334 254.113 95.5334 251.58C95.5334 249.484 96.1016 247.656 97.2379 246.093C98.3743 244.531 99.9131 243.317 101.854 242.453C103.796 241.577 105.986 241.139 108.424 241.139C110.886 241.139 113.058 241.571 114.94 242.435C116.834 243.299 118.326 244.489 119.415 246.004C120.504 247.508 121.072 249.236 121.119 251.189H115.828ZM128.173 278V241.636H150.971V246.359H133.659V257.439H149.781V262.144H133.659V273.277H151.184V278H128.173ZM156.506 246.359V241.636H184.649V246.359H173.303V278H167.835V246.359H156.506ZM202.307 246.359V241.636H230.45V246.359H219.104V278H213.635V246.359H202.307ZM236.669 278V241.636H242.155V257.439H260.284V241.636H265.788V278H260.284V262.144H242.155V278H236.669ZM273.778 278V241.636H296.577V246.359H279.265V257.439H295.387V262.144H279.265V273.277H296.79V278H273.778ZM317.138 278V241.636H339.687V246.359H322.624V257.439H338.072V262.144H322.624V278H317.138ZM344.965 278H339.141L352.227 241.636H358.566L371.652 278H365.828L355.548 248.241H355.263L344.965 278ZM345.942 263.76H364.834V268.376H345.942V263.76ZM396.443 251.189C396.254 249.508 395.473 248.206 394.1 247.283C392.727 246.348 390.998 245.88 388.915 245.88C387.423 245.88 386.133 246.117 385.044 246.59C383.955 247.052 383.109 247.691 382.505 248.508C381.913 249.313 381.617 250.23 381.617 251.26C381.617 252.124 381.819 252.87 382.221 253.497C382.635 254.125 383.174 254.651 383.837 255.077C384.512 255.492 385.234 255.841 386.003 256.125C386.772 256.397 387.512 256.622 388.222 256.8L391.774 257.723C392.934 258.007 394.123 258.392 395.343 258.877C396.562 259.362 397.692 260.002 398.734 260.795C399.776 261.588 400.616 262.57 401.255 263.742C401.906 264.914 402.232 266.317 402.232 267.95C402.232 270.01 401.699 271.839 400.634 273.437C399.58 275.035 398.047 276.295 396.035 277.219C394.035 278.142 391.614 278.604 388.773 278.604C386.05 278.604 383.695 278.172 381.706 277.308C379.718 276.443 378.161 275.218 377.036 273.632C375.912 272.034 375.29 270.14 375.172 267.95H380.676C380.783 269.264 381.209 270.359 381.955 271.235C382.712 272.099 383.677 272.744 384.849 273.17C386.033 273.585 387.329 273.792 388.737 273.792C390.288 273.792 391.667 273.549 392.874 273.064C394.094 272.567 395.052 271.88 395.751 271.004C396.449 270.116 396.798 269.081 396.798 267.897C396.798 266.82 396.491 265.938 395.875 265.251C395.271 264.565 394.449 263.997 393.407 263.547C392.377 263.097 391.211 262.701 389.909 262.357L385.612 261.185C382.7 260.392 380.392 259.226 378.688 257.688C376.995 256.149 376.149 254.113 376.149 251.58C376.149 249.484 376.717 247.656 377.853 246.093C378.99 244.531 380.528 243.317 382.47 242.453C384.411 241.577 386.601 241.139 389.039 241.139C391.501 241.139 393.673 241.571 395.556 242.435C397.45 243.299 398.941 244.489 400.03 246.004C401.119 247.508 401.687 249.236 401.735 251.189H396.443ZM406.995 246.359V241.636H435.137V246.359H423.792V278H418.323V246.359H406.995ZM441.356 278V241.636H464.155V246.359H446.843V257.439H462.965V262.144H446.843V273.277H464.368V278H441.356ZM491.316 251.189C491.127 249.508 490.346 248.206 488.973 247.283C487.6 246.348 485.871 245.88 483.788 245.88C482.297 245.88 481.006 246.117 479.917 246.59C478.828 247.052 477.982 247.691 477.378 248.508C476.786 249.313 476.49 250.23 476.49 251.26C476.49 252.124 476.692 252.87 477.094 253.497C477.508 254.125 478.047 254.651 478.71 255.077C479.385 255.492 480.107 255.841 480.876 256.125C481.645 256.397 482.385 256.622 483.096 256.8L486.647 257.723C487.807 258.007 488.996 258.392 490.216 258.877C491.435 259.362 492.565 260.002 493.607 260.795C494.649 261.588 495.489 262.57 496.128 263.742C496.779 264.914 497.105 266.317 497.105 267.95C497.105 270.01 496.572 271.839 495.507 273.437C494.453 275.035 492.92 276.295 490.908 277.219C488.908 278.142 486.487 278.604 483.646 278.604C480.923 278.604 478.568 278.172 476.579 277.308C474.591 276.443 473.034 275.218 471.909 273.632C470.785 272.034 470.163 270.14 470.045 267.95H475.549C475.656 269.264 476.082 270.359 476.828 271.235C477.585 272.099 478.55 272.744 479.722 273.17C480.906 273.585 482.202 273.792 483.61 273.792C485.161 273.792 486.54 273.549 487.748 273.064C488.967 272.567 489.926 271.88 490.624 271.004C491.322 270.116 491.672 269.081 491.672 267.897C491.672 266.82 491.364 265.938 490.748 265.251C490.145 264.565 489.322 263.997 488.28 263.547C487.25 263.097 486.084 262.701 484.782 262.357L480.485 261.185C477.574 260.392 475.265 259.226 473.561 257.688C471.868 256.149 471.022 254.113 471.022 251.58C471.022 249.484 471.59 247.656 472.726 246.093C473.863 244.531 475.401 243.317 477.343 242.453C479.284 241.577 481.474 241.139 483.912 241.139C486.374 241.139 488.547 241.571 490.429 242.435C492.323 243.299 493.814 244.489 494.903 246.004C495.992 247.508 496.56 249.236 496.608 251.189H491.316ZM501.868 246.359V241.636H530.01V246.359H518.665V278H513.196V246.359H501.868ZM549.462 278V241.636H554.948V273.277H571.426V278H549.462ZM582.612 278H576.788L589.874 241.636H596.213L609.298 278H603.475L593.194 248.241H592.91L582.612 278ZM583.588 263.76H602.48V268.376H583.588V263.76ZM614.55 278V241.636H627.511C630.34 241.636 632.684 242.151 634.543 243.181C636.401 244.211 637.792 245.62 638.715 247.407C639.638 249.183 640.1 251.183 640.1 253.408C640.1 255.646 639.633 257.658 638.697 259.445C637.774 261.221 636.377 262.629 634.507 263.671C632.649 264.701 630.311 265.216 627.494 265.216H618.58V260.564H626.996C628.784 260.564 630.234 260.256 631.347 259.641C632.459 259.013 633.276 258.161 633.797 257.084C634.318 256.007 634.578 254.781 634.578 253.408C634.578 252.035 634.318 250.816 633.797 249.751C633.276 248.685 632.453 247.851 631.329 247.247C630.216 246.643 628.748 246.342 626.925 246.342H620.036V278H614.55Z" fill="black"/>
<path d="M929.797 207.975C896.842 207.985 870 181.217 870 148.362C870 114.862 896.575 87.9851 929.678 88C963.287 88.0149 989.995 114.629 990 148.119C990 181.321 963.197 207.97 929.797 207.98V207.975ZM986.599 148.045C986.555 116.686 961.254 91.3956 929.876 91.3906C898.3 91.3807 873.063 117.445 873.371 148.877C873.663 179.358 899.197 204.684 930.03 204.609C961.254 204.53 986.649 179.145 986.604 148.045H986.599Z" fill="black"/>
<path d="M929.938 197.591C902.516 197.551 880.323 175.383 880.393 148.105C880.462 120.212 902.556 98.3313 930.588 98.3907C957.574 98.4502 979.732 120.955 979.638 148.194C979.538 175.527 957.301 197.631 929.938 197.591ZM976.212 148.04C976.103 122.16 955.413 101.717 929.403 101.791C904.172 101.866 883.709 122.819 883.818 148.472C883.927 173.852 904.861 194.295 930.642 194.2C955.502 194.106 976.321 173.024 976.217 148.04H976.212Z" fill="black"/>
<path d="M929.948 187.198C908.236 187.079 890.653 169.522 890.772 148.087C890.891 126.152 908.414 108.659 930.136 108.778C951.863 108.902 969.346 126.574 969.207 148.271C969.069 169.789 951.392 187.312 929.953 187.193L929.948 187.198ZM965.817 148.271C966.02 128.7 950.038 112.362 930.493 112.159C910.774 111.95 894.425 127.892 894.192 147.562C893.959 167.266 909.817 183.639 929.313 183.818C949.414 184.001 965.613 168.228 965.817 148.271Z" fill="black"/>
<path d="M901.188 148.036C901.222 132.104 914.15 119.131 929.948 119.176C945.945 119.221 958.858 132.129 958.838 148.056C958.818 163.903 945.736 176.856 929.795 176.811C914.091 176.767 901.158 163.755 901.192 148.036H901.188ZM929.988 122.567C916.014 122.542 904.667 133.913 904.578 148.026C904.494 161.925 915.979 173.376 930.047 173.421C943.823 173.465 955.403 161.93 955.418 148.15C955.432 134.067 944.026 122.591 929.988 122.567Z" fill="black"/>
<path d="M911.57 148.108C911.56 138.04 919.878 129.568 929.773 129.578C940.029 129.588 948.456 137.931 948.451 148.063C948.441 157.977 939.979 166.394 930.001 166.419C919.997 166.439 911.58 158.081 911.57 148.108ZM914.986 147.964C914.827 155.96 921.45 162.845 929.46 163.023C937.867 163.207 944.847 156.698 945.015 148.519C945.189 140.052 938.7 133.152 930.387 132.964C921.871 132.77 915.159 139.309 914.986 147.964Z" fill="black"/>
<path d="M929.959 139.984C934.584 139.989 938.123 143.563 938.059 148.159C937.999 152.541 934.43 156.015 929.998 156.015C925.458 156.015 921.953 152.55 921.953 148.074C921.953 143.434 925.373 139.979 929.959 139.984ZM934.628 147.985C934.594 145.467 932.442 143.335 929.939 143.35C927.421 143.365 925.364 145.487 925.373 148.064C925.383 150.548 927.485 152.64 929.959 152.625C932.487 152.61 934.658 150.454 934.628 147.985Z" fill="black"/>
<path d="M934.628 147.986C934.658 150.455 932.486 152.611 929.958 152.626C927.49 152.641 925.383 150.544 925.373 148.066C925.363 145.488 927.42 143.367 929.939 143.352C932.437 143.337 934.593 145.468 934.628 147.986Z" fill="black"/>
</svg>
