<svg width="1088" height="1088" viewBox="0 0 1088 1088" fill="none" xmlns="http://www.w3.org/2000/svg">
<rect x="5" y="5" width="1078" height="1078" rx="90" fill="black" stroke="#FAF6EF" stroke-width="10"/>
<path d="M920.465 212.778C896.731 211.487 876.223 199.988 865.451 175.086C855.266 151.535 859.558 129.472 876.613 110.273C886.705 98.9161 899.749 92.5184 914.834 90.5937C933.47 88.2205 950.268 92.8465 964.722 104.882C977.278 115.337 984.845 128.744 986.404 145.078C988.467 166.753 980.603 184.557 963.948 198.419C952.298 208.114 938.612 212.576 920.465 212.778ZM982.59 154.16C982.42 137.608 978.315 125.294 969.376 114.981C954.175 97.4561 934.848 90.4515 911.959 94.6619C883.363 99.9277 862.428 125.529 864.804 155.697C865.918 169.821 871.537 181.932 881.574 191.901C899.129 209.349 925.173 214.342 947.656 203.952C969.974 193.64 981.448 175.721 982.595 154.149L982.59 154.16Z" fill="#F2EBE0"/>
<path d="M965.248 149.613H968.689C968.31 173.164 951.447 192.554 926.994 194.424C902.306 196.316 879.845 178.693 878.418 149.657H881.985C882.929 163.464 888.098 175.171 899.617 183.477C907.327 189.033 916.074 191.553 925.562 191.089C945.449 190.115 964.036 174.827 965.243 149.613H965.248Z" fill="#F2EBE0"/>
<path d="M900.475 140.902C903.773 140.989 907.033 141.077 910.326 141.164C910.134 141.902 909.903 142.673 909.733 143.461C909.596 144.106 909.481 144.768 909.453 145.424C909.442 145.681 909.645 146.085 909.859 146.173C910.106 146.277 910.54 146.195 910.754 146.025C911.05 145.785 911.313 145.413 911.423 145.046C911.681 144.183 911.89 143.302 912.027 142.411C912.235 141.044 911.796 140.185 910.54 139.557C909.415 138.993 908.235 138.539 907.099 137.993C905.288 137.123 903.861 135.844 903.406 133.826C903.159 132.727 903.044 131.551 903.137 130.43C903.433 126.898 904.317 123.497 905.804 120.26C907.554 116.448 910.518 114.217 914.633 113.518C918.178 112.916 921.734 112.905 925.23 113.851C927.354 114.425 929.027 115.601 929.719 117.821C930.075 118.975 930.136 120.167 929.905 121.326C929.439 123.666 928.863 125.99 928.352 128.227C924.923 128.15 921.647 128.079 918.376 128.008C918.645 126.854 918.919 125.717 919.177 124.569C919.232 124.322 919.248 124.055 919.216 123.803C919.117 123.048 918.436 122.753 917.838 123.234C917.52 123.491 917.185 123.852 917.086 124.224C916.834 125.159 916.642 126.121 916.543 127.089C916.433 128.205 917.075 128.987 917.975 129.539C918.793 130.042 919.682 130.43 920.516 130.911C921.427 131.442 922.36 131.961 923.183 132.607C924.862 133.919 925.537 135.751 925.565 137.812C925.609 140.606 924.999 143.313 924.171 145.96C923.721 147.398 923.183 148.825 922.53 150.181C920.917 153.538 918.085 155.359 914.485 155.999C911.154 156.595 907.801 156.584 904.47 155.939C903.082 155.671 901.765 155.184 900.629 154.282C898.994 152.986 898.417 151.258 898.5 149.24C898.582 147.168 899.246 145.221 899.789 143.253C900.003 142.471 900.239 141.695 900.475 140.896V140.902Z" fill="#F2EBE0"/>
<path d="M941.499 139.819H945.615C945.258 141.197 944.89 142.564 944.55 143.936C943.606 147.709 942.662 151.482 941.74 155.26C941.636 155.698 941.483 155.84 941.016 155.84C935.413 155.818 929.81 155.829 924.208 155.829C924.026 155.829 923.845 155.829 923.609 155.829C924.147 153.768 924.674 151.777 925.179 149.776C927.774 139.48 930.37 129.183 932.96 118.887C933.355 117.312 933.707 115.726 934.058 114.146C934.124 113.856 934.206 113.703 934.552 113.703C939.041 113.714 943.535 113.714 948.024 113.714C948.095 113.714 948.166 113.736 948.238 113.747C945.993 122.436 943.754 131.113 941.51 139.819H941.499Z" fill="#F2EBE0"/>
<path d="M262.987 572.308H235.288C234.223 566.39 232.24 561.181 229.34 556.683C226.44 552.185 222.889 548.368 218.687 545.231C214.485 542.094 209.779 539.727 204.571 538.129C199.422 536.531 193.947 535.732 188.147 535.732C177.671 535.732 168.29 538.365 160.004 543.633C151.777 548.9 145.267 556.624 140.473 566.804C135.738 576.984 133.371 589.413 133.371 604.091C133.371 618.887 135.738 631.375 140.473 641.555C145.267 651.735 151.807 659.429 160.093 664.638C168.379 669.846 177.701 672.45 188.058 672.45C193.799 672.45 199.244 671.681 204.393 670.142C209.602 668.544 214.307 666.206 218.509 663.129C222.711 660.051 226.263 656.293 229.163 651.854C232.122 647.356 234.164 642.206 235.288 636.406L262.987 636.495C261.508 645.432 258.637 653.659 254.376 661.175C250.174 668.633 244.758 675.084 238.129 680.529C231.56 685.915 224.043 690.088 215.58 693.047C207.116 696.006 197.883 697.486 187.881 697.486C172.137 697.486 158.11 693.757 145.8 686.3C133.489 678.783 123.783 668.041 116.68 654.073C109.637 640.105 106.116 623.445 106.116 604.091C106.116 584.678 109.667 568.017 116.769 554.109C123.871 540.141 133.578 529.428 145.888 521.971C158.199 514.454 172.196 510.696 187.881 510.696C197.528 510.696 206.524 512.087 214.869 514.869C223.274 517.591 230.82 521.616 237.508 526.942C244.196 532.21 249.73 538.661 254.109 546.296C258.489 553.872 261.448 562.543 262.987 572.308ZM320.227 513.182V695H293.682V513.182H320.227ZM442.32 638.448V558.636H468.953V695H442.852V671.385H441.432C438.295 678.665 433.264 684.731 426.339 689.585C419.474 694.379 410.922 696.776 400.683 696.776C391.923 696.776 384.17 694.852 377.423 691.005C370.735 687.099 365.467 681.328 361.62 673.693C357.832 666.058 355.938 656.618 355.938 645.373V558.636H382.483V642.177C382.483 651.469 385.058 658.867 390.207 664.371C395.356 669.876 402.044 672.628 410.271 672.628C415.242 672.628 420.184 671.385 425.097 668.899C430.068 666.413 434.182 662.655 437.437 657.624C440.751 652.594 442.379 646.201 442.32 638.448ZM506.751 695V513.182H533.295V580.742H534.893C536.432 577.901 538.652 574.616 541.552 570.888C544.452 567.159 548.476 563.904 553.626 561.122C558.775 558.281 565.581 556.861 574.045 556.861C585.053 556.861 594.878 559.643 603.519 565.206C612.16 570.769 618.937 578.789 623.849 589.265C628.821 599.741 631.307 612.347 631.307 627.085C631.307 641.822 628.85 654.458 623.938 664.993C619.026 675.469 612.278 683.548 603.697 689.229C595.115 694.852 585.319 697.663 574.311 697.663C566.025 697.663 559.248 696.272 553.981 693.491C548.772 690.709 544.689 687.454 541.729 683.725C538.77 679.996 536.491 676.682 534.893 673.782H532.674V695H506.751ZM532.763 626.818C532.763 636.406 534.153 644.811 536.935 652.031C539.717 659.252 543.742 664.904 549.009 668.988C554.277 673.013 560.728 675.025 568.363 675.025C576.294 675.025 582.922 672.924 588.249 668.722C593.576 664.46 597.6 658.69 600.323 651.41C603.105 644.13 604.496 635.933 604.496 626.818C604.496 617.822 603.134 609.743 600.412 602.582C597.748 595.42 593.724 589.768 588.338 585.625C583.011 581.482 576.353 579.411 568.363 579.411C560.669 579.411 554.158 581.393 548.831 585.359C543.564 589.324 539.569 594.858 536.846 601.96C534.124 609.062 532.763 617.348 532.763 626.818ZM101.521 902.564C101.521 896.048 102.537 888.557 104.568 880.094C106.6 871.546 109.562 862.743 113.455 853.688C117.433 844.632 122.215 835.533 127.801 826.393C133.471 817.252 139.904 808.45 147.098 799.986C154.292 791.523 162.205 783.609 170.838 776.246C179.471 768.883 188.696 762.451 198.514 756.949C219.588 745.27 241.466 739.43 264.148 739.43C285.138 739.43 301.896 744.169 314.422 753.648C327.71 763.72 334.354 777.6 334.354 795.289C334.354 812.132 328.81 827.789 317.723 842.262C307.482 855.465 294.363 865.663 278.367 872.857C282.853 883.691 286.196 890.8 288.396 894.186C292.882 900.956 297.199 904.342 301.346 904.342C305.577 904.342 310.063 903.284 314.803 901.168C319.542 899.052 324.07 896.344 328.387 893.043C337.273 886.357 344.383 878.993 349.715 870.953C353.523 870.699 355.428 872.265 355.428 875.65C355.428 878.782 353.27 884.114 348.953 891.646C344.637 899.094 340.574 905.273 336.766 910.182C333.042 915.09 328.895 919.788 324.324 924.273C319.754 928.674 314.845 932.568 309.598 935.953C298.087 943.232 286.323 946.871 274.305 946.871C249.168 946.871 236.6 929.69 236.6 895.328C236.6 890.589 236.769 885.849 237.107 881.109C224.666 880.009 215.822 874.042 210.574 863.209C208.712 859.485 207.527 855.084 207.02 850.006C186.538 888.346 169.23 914.371 155.096 928.082C145.701 937.223 137.195 941.793 129.578 941.793C121.199 941.793 114.428 938.323 109.266 931.383C104.103 924.443 101.521 914.837 101.521 902.564ZM140.242 884.156C140.242 891.773 141.681 895.582 144.559 895.582C149.891 895.582 167.241 873.408 196.609 829.059C208.712 810.777 220.18 792.411 231.014 773.961C233.722 769.306 238.25 768.671 244.598 772.057C246.036 772.818 247.094 773.453 247.771 773.961C243.032 781.324 235.245 795.501 224.412 816.49C231.268 812.005 236.303 809.762 239.52 809.762C242.82 809.762 245.656 810.65 248.025 812.428C250.48 814.205 252.807 816.617 255.008 819.664C258.732 824.911 262.71 832.783 266.941 843.277C278.452 838.453 288.185 830.836 296.141 820.426C304.35 809.677 308.455 798.928 308.455 788.18C308.455 764.566 292.374 752.76 260.213 752.76C236.43 752.76 215.102 760.208 196.229 775.104C180.74 787.291 167.833 803.668 157.508 824.234C149.044 840.823 143.585 857.158 141.131 873.238C140.538 877.385 140.242 881.025 140.242 884.156ZM241.17 834.645C241.17 827.366 239.646 823.727 236.6 823.727C233.553 823.727 231.437 824.658 230.252 826.52C229.067 828.297 228.475 829.82 228.475 831.09C228.475 832.275 228.559 833.629 228.729 835.152C228.898 836.676 229.956 838.707 231.902 841.246C233.849 843.785 236.684 845.605 240.408 846.705C240.916 841.627 241.17 837.607 241.17 834.645ZM408.621 918.688C397.026 932.229 382.892 939 366.219 939C355.639 939 347.176 935.826 340.828 929.479C334.565 923.215 331.434 914.964 331.434 904.723C331.434 891.773 336.512 879.205 346.668 867.018C356.486 855.169 369.35 845.52 385.262 838.072C401.766 830.37 418.82 826.52 436.424 826.52C443.11 826.52 447.892 827.577 450.77 829.693C453.055 826.985 455.086 825.419 456.863 824.996C458.725 824.488 460.164 824.234 461.18 824.234C464.396 824.234 467.824 824.7 471.463 825.631C471.124 826.731 470.405 828.635 469.305 831.344C468.204 833.967 466.977 837.099 465.623 840.738C464.269 844.378 462.83 848.355 461.307 852.672C455.805 868.076 453.055 879.628 453.055 887.33C453.055 894.947 455.467 898.756 460.291 898.756C466.554 898.756 473.536 895.921 481.238 890.25C488.094 885.087 494.103 878.655 499.266 870.953C503.074 870.699 504.979 872.265 504.979 875.65C504.979 878.528 503.201 882.929 499.646 888.854C496.176 894.778 492.791 899.898 489.49 904.215C486.189 908.531 482.508 912.763 478.445 916.91C474.383 921.057 470.066 924.781 465.496 928.082C455.255 935.361 445.268 939 435.535 939C423.178 939 414.884 935.276 410.652 927.828C409.298 925.543 408.621 923.554 408.621 921.861C408.621 920.084 408.621 919.026 408.621 918.688ZM372.312 884.029C372.312 893.847 376.417 898.756 384.627 898.756C393.683 898.756 404.347 891.435 416.619 876.793C423.136 869.007 428.807 861.559 433.631 854.449C438.54 847.34 442.264 841.923 444.803 838.199C423.644 838.368 406.082 843.193 392.117 852.672C378.914 861.643 372.312 872.096 372.312 884.029ZM580.262 846.832C573.829 843.447 568.117 841.754 563.123 841.754C558.214 841.754 553.729 842.896 549.666 845.182C545.688 847.382 542.176 850.302 539.129 853.941C532.697 861.643 529.48 870.191 529.48 879.586C529.48 886.695 532.02 892.281 537.098 896.344C541.753 900.237 548.608 902.184 557.664 902.184C566.72 902.184 575.607 899.518 584.324 894.186C593.126 888.769 600.828 881.025 607.43 870.953C611.238 870.699 613.143 872.265 613.143 875.65C613.143 877.005 612.085 880.178 609.969 885.172C607.938 890.081 604.214 896.174 598.797 903.453C593.38 910.732 587.117 917.164 580.008 922.75C564.604 934.853 547.846 940.904 529.734 940.904C515.092 940.904 503.582 937.138 495.203 929.605C486.74 921.988 482.508 911.028 482.508 896.725C482.508 885.553 486.909 874.339 495.711 863.082C503.921 852.503 514.288 843.827 526.814 837.057C539.594 830.117 551.528 826.646 562.615 826.646C568.624 826.646 573.279 827.662 576.58 829.693C582.335 833.248 585.213 836.633 585.213 839.85C585.213 843.32 583.562 845.647 580.262 846.832ZM639.549 889.107C644.458 897.91 655.587 902.311 672.938 902.311C683.771 902.311 693.969 899.687 703.533 894.439C713.182 889.107 721.434 881.279 728.289 870.953C732.098 870.699 734.002 872.265 734.002 875.65C734.002 879.459 731.717 884.96 727.146 892.154C722.661 899.264 718.429 905.019 714.451 909.42C710.558 913.821 706.157 917.926 701.248 921.734C696.424 925.458 691.219 928.674 685.633 931.383C673.53 937.307 660.792 940.27 647.42 940.27C620.506 940.27 603.029 932.822 594.988 917.926C592.111 912.509 590.672 906.331 590.672 899.391C590.672 892.366 591.857 885.934 594.227 880.094C596.681 874.254 600.024 868.71 604.256 863.463C608.488 858.131 613.523 853.222 619.363 848.736C625.203 844.251 631.551 840.4 638.406 837.184C652.964 830.159 667.817 826.646 682.967 826.646C693.885 826.646 701.375 830.074 705.438 836.93C706.876 839.299 707.596 842.473 707.596 846.451C707.596 850.344 706.58 854.195 704.549 858.004C702.602 861.812 699.936 865.283 696.551 868.414C693.165 871.461 689.23 874.169 684.744 876.539C680.258 878.824 675.477 880.813 670.398 882.506C661.427 885.553 651.144 887.753 639.549 889.107ZM637.771 877.301C648.605 876.031 657.915 873.027 665.701 868.287C673.911 863.209 678.016 857.285 678.016 850.514C678.016 843.658 674.884 840.23 668.621 840.23C660.496 840.23 653.429 844.124 647.42 851.91C641.665 859.358 638.449 867.822 637.771 877.301ZM773.104 862.828C762.947 862.32 754.314 861.262 747.205 859.654C738.488 874.804 729.939 888.303 721.561 900.152C720.46 901.93 717.964 902.395 714.07 901.549C707.13 900.025 703.152 898.248 702.137 896.217C717.202 885.637 727.781 872.053 733.875 855.465C724.988 851.402 720.545 845.647 720.545 838.199C720.545 833.629 723.549 827.789 729.559 820.68C735.229 813.74 739.419 810.27 742.127 810.27C750.421 810.27 756.727 812.385 761.043 816.617C762.736 818.225 763.582 820.383 763.582 823.092C763.582 825.715 762.143 830.159 759.266 836.422C772.299 842.77 788.719 846.493 808.523 847.594C807.931 853.434 805.477 858.173 801.16 861.812C799.975 862.913 798.79 863.463 797.605 863.463C791.596 868.88 787.365 874.762 784.91 881.109C784.148 883.141 783.768 885.087 783.768 886.949C783.768 894.82 788.465 898.756 797.859 898.756C804.207 898.756 811.232 895.921 818.934 890.25C825.789 885.087 831.798 878.655 836.961 870.953C840.77 870.699 842.674 872.265 842.674 875.65C842.674 878.528 840.896 882.929 837.342 888.854C833.872 894.778 830.486 899.898 827.186 904.215C823.885 908.531 820.203 912.763 816.141 916.91C812.078 921.057 807.762 924.781 803.191 928.082C792.951 935.361 782.921 939 773.104 939C756.43 939 745.258 933.837 739.588 923.512C737.641 920.042 736.668 916.021 736.668 911.451C736.668 906.796 737.599 902.226 739.461 897.74C741.408 893.255 744.031 888.896 747.332 884.664C754.103 875.862 762.693 868.583 773.104 862.828Z" fill="#F2EBE0"/>
<path d="M114.887 111.094C114.745 109.662 114.135 108.549 113.058 107.756C111.981 106.963 110.519 106.567 108.673 106.567C107.418 106.567 106.358 106.744 105.494 107.099C104.63 107.443 103.967 107.922 103.506 108.538C103.056 109.153 102.831 109.852 102.831 110.633C102.807 111.284 102.943 111.852 103.239 112.337C103.547 112.823 103.967 113.243 104.5 113.598C105.033 113.941 105.648 114.243 106.347 114.504C107.045 114.752 107.791 114.965 108.584 115.143L111.851 115.924C113.437 116.279 114.893 116.753 116.219 117.344C117.545 117.936 118.693 118.664 119.663 119.528C120.634 120.393 121.386 121.411 121.918 122.582C122.463 123.754 122.741 125.098 122.753 126.613C122.741 128.838 122.173 130.768 121.048 132.401C119.936 134.023 118.326 135.284 116.219 136.183C114.124 137.071 111.596 137.515 108.637 137.515C105.701 137.515 103.145 137.065 100.967 136.165C98.8004 135.266 97.1077 133.934 95.8885 132.17C94.6811 130.395 94.0478 128.199 93.9886 125.583H101.428C101.511 126.802 101.86 127.82 102.476 128.637C103.103 129.442 103.938 130.052 104.979 130.466C106.033 130.868 107.223 131.07 108.548 131.07C109.85 131.07 110.981 130.88 111.94 130.501C112.91 130.123 113.662 129.596 114.195 128.921C114.727 128.246 114.994 127.471 114.994 126.595C114.994 125.778 114.751 125.092 114.266 124.536C113.792 123.979 113.094 123.506 112.17 123.115C111.259 122.724 110.14 122.369 108.815 122.05L104.855 121.055C101.789 120.31 99.3686 119.144 97.593 117.558C95.8175 115.971 94.9356 113.835 94.9474 111.148C94.9356 108.946 95.5215 107.022 96.7053 105.377C97.9008 103.732 99.5402 102.447 101.624 101.524C103.707 100.601 106.074 100.139 108.726 100.139C111.425 100.139 113.78 100.601 115.793 101.524C117.817 102.447 119.391 103.732 120.516 105.377C121.64 107.022 122.22 108.928 122.256 111.094H114.887ZM150.385 100.636H158.073V124.251C158.073 126.903 157.44 129.223 156.173 131.212C154.919 133.2 153.161 134.751 150.9 135.864C148.639 136.964 146.005 137.515 142.999 137.515C139.98 137.515 137.341 136.964 135.08 135.864C132.819 134.751 131.061 133.2 129.806 131.212C128.552 129.223 127.924 126.903 127.924 124.251V100.636H135.612V123.594C135.612 124.979 135.914 126.21 136.518 127.288C137.133 128.365 137.998 129.211 139.11 129.827C140.223 130.442 141.519 130.75 142.999 130.75C144.49 130.75 145.786 130.442 146.887 129.827C148 129.211 148.858 128.365 149.462 127.288C150.077 126.21 150.385 124.979 150.385 123.594V100.636ZM164.399 137V100.636H178.745C181.503 100.636 183.853 101.163 185.794 102.217C187.736 103.258 189.215 104.708 190.233 106.567C191.263 108.413 191.778 110.544 191.778 112.959C191.778 115.374 191.257 117.504 190.216 119.351C189.174 121.197 187.665 122.636 185.688 123.665C183.723 124.695 181.344 125.21 178.55 125.21H169.406V119.049H177.307C178.787 119.049 180.006 118.795 180.965 118.286C181.935 117.765 182.658 117.049 183.131 116.137C183.616 115.214 183.859 114.154 183.859 112.959C183.859 111.751 183.616 110.698 183.131 109.798C182.658 108.887 181.935 108.183 180.965 107.685C179.994 107.176 178.763 106.922 177.272 106.922H172.087V137H164.399ZM196.772 137V100.636H221.275V106.975H204.46V115.64H220.014V121.979H204.46V130.661H221.346V137H196.772ZM227.387 137V100.636H241.734C244.48 100.636 246.824 101.128 248.765 102.11C250.718 103.081 252.204 104.46 253.222 106.247C254.251 108.023 254.766 110.112 254.766 112.515C254.766 114.93 254.246 117.007 253.204 118.747C252.162 120.475 250.653 121.801 248.676 122.724C246.711 123.648 244.332 124.109 241.538 124.109H231.933V117.93H240.295C241.763 117.93 242.982 117.729 243.953 117.327C244.924 116.924 245.646 116.321 246.119 115.516C246.605 114.711 246.847 113.71 246.847 112.515C246.847 111.308 246.605 110.29 246.119 109.461C245.646 108.632 244.918 108.005 243.935 107.579C242.965 107.141 241.74 106.922 240.26 106.922H235.075V137H227.387ZM247.025 120.452L256.062 137H247.575L238.733 120.452H247.025ZM260.2 137V100.636H267.888V130.661H283.477V137H260.2ZM295.764 137H287.526L300.079 100.636H309.987L322.522 137H314.283L305.175 108.946H304.891L295.764 137ZM295.249 122.707H314.71V128.708H295.249V122.707ZM326.899 137V100.636H341.245C344.003 100.636 346.353 101.163 348.294 102.217C350.236 103.258 351.715 104.708 352.733 106.567C353.763 108.413 354.278 110.544 354.278 112.959C354.278 115.374 353.757 117.504 352.716 119.351C351.674 121.197 350.165 122.636 348.188 123.665C346.223 124.695 343.844 125.21 341.05 125.21H331.906V119.049H339.807C341.287 119.049 342.506 118.795 343.465 118.286C344.435 117.765 345.158 117.049 345.631 116.137C346.116 115.214 346.359 114.154 346.359 112.959C346.359 111.751 346.116 110.698 345.631 109.798C345.158 108.887 344.435 108.183 343.465 107.685C342.494 107.176 341.263 106.922 339.772 106.922H334.587V137H326.899ZM370.844 100.636H380.326L390.34 125.068H390.766L400.78 100.636H410.262V137H402.804V113.332H402.502L393.092 136.822H388.014L378.603 113.243H378.301V137H370.844V100.636ZM416.596 137V100.636H441.099V106.975H424.284V115.64H439.838V121.979H424.284V130.661H441.17V137H416.596ZM447.211 100.636H456.693L466.707 125.068H467.133L477.147 100.636H486.629V137H479.172V113.332H478.87L469.459 136.822H464.381L454.971 113.243H454.669V137H447.211V100.636ZM492.963 137V100.636H507.523C510.198 100.636 512.429 101.033 514.217 101.826C516.004 102.619 517.348 103.72 518.247 105.129C519.147 106.525 519.597 108.135 519.597 109.958C519.597 111.379 519.313 112.627 518.744 113.705C518.176 114.77 517.395 115.646 516.401 116.332C515.418 117.007 514.294 117.487 513.027 117.771V118.126C514.412 118.185 515.708 118.576 516.916 119.298C518.135 120.02 519.123 121.032 519.881 122.334C520.638 123.624 521.017 125.163 521.017 126.95C521.017 128.88 520.538 130.602 519.579 132.117C518.632 133.621 517.229 134.81 515.371 135.686C513.512 136.562 511.222 137 508.499 137H492.963ZM500.651 130.714H506.919C509.062 130.714 510.624 130.306 511.607 129.489C512.589 128.661 513.08 127.56 513.08 126.187C513.08 125.181 512.838 124.293 512.352 123.523C511.867 122.754 511.175 122.15 510.275 121.712C509.387 121.274 508.328 121.055 507.097 121.055H500.651V130.714ZM500.651 115.853H506.351C507.405 115.853 508.34 115.67 509.156 115.303C509.985 114.924 510.636 114.391 511.11 113.705C511.595 113.018 511.838 112.195 511.838 111.237C511.838 109.923 511.37 108.863 510.435 108.058C509.512 107.253 508.198 106.851 506.493 106.851H500.651V115.853ZM526.02 137V100.636H550.523V106.975H533.708V115.64H549.262V121.979H533.708V130.661H550.594V137H526.02ZM556.635 137V100.636H570.982C573.728 100.636 576.072 101.128 578.013 102.11C579.966 103.081 581.452 104.46 582.47 106.247C583.499 108.023 584.014 110.112 584.014 112.515C584.014 114.93 583.494 117.007 582.452 118.747C581.41 120.475 579.901 121.801 577.924 122.724C575.959 123.648 573.58 124.109 570.786 124.109H561.181V117.93H569.544C571.011 117.93 572.231 117.729 573.201 117.327C574.172 116.924 574.894 116.321 575.367 115.516C575.853 114.711 576.095 113.71 576.095 112.515C576.095 111.308 575.853 110.29 575.367 109.461C574.894 108.632 574.166 108.005 573.183 107.579C572.213 107.141 570.988 106.922 569.508 106.922H564.323V137H556.635ZM576.273 120.452L585.311 137H576.823L567.981 120.452H576.273ZM609.174 111.094C609.032 109.662 608.423 108.549 607.345 107.756C606.268 106.963 604.806 106.567 602.96 106.567C601.705 106.567 600.646 106.744 599.781 107.099C598.917 107.443 598.254 107.922 597.793 108.538C597.343 109.153 597.118 109.852 597.118 110.633C597.094 111.284 597.231 111.852 597.526 112.337C597.834 112.823 598.254 113.243 598.787 113.598C599.32 113.941 599.935 114.243 600.634 114.504C601.332 114.752 602.078 114.965 602.871 115.143L606.138 115.924C607.724 116.279 609.18 116.753 610.506 117.344C611.832 117.936 612.98 118.664 613.95 119.528C614.921 120.393 615.673 121.411 616.205 122.582C616.75 123.754 617.028 125.098 617.04 126.613C617.028 128.838 616.46 130.768 615.335 132.401C614.223 134.023 612.613 135.284 610.506 136.183C608.411 137.071 605.883 137.515 602.924 137.515C599.989 137.515 597.432 137.065 595.254 136.165C593.088 135.266 591.395 133.934 590.176 132.17C588.968 130.395 588.335 128.199 588.276 125.583H595.715C595.798 126.802 596.147 127.82 596.763 128.637C597.39 129.442 598.225 130.052 599.267 130.466C600.32 130.868 601.51 131.07 602.835 131.07C604.137 131.07 605.268 130.88 606.227 130.501C607.197 130.123 607.949 129.596 608.482 128.921C609.014 128.246 609.281 127.471 609.281 126.595C609.281 125.778 609.038 125.092 608.553 124.536C608.079 123.979 607.381 123.506 606.458 123.115C605.546 122.724 604.427 122.369 603.102 122.05L599.142 121.055C596.076 120.31 593.656 119.144 591.88 117.558C590.105 115.971 589.223 113.835 589.235 111.148C589.223 108.946 589.809 107.022 590.992 105.377C592.188 103.732 593.827 102.447 595.911 101.524C597.994 100.601 600.361 100.139 603.013 100.139C605.712 100.139 608.067 100.601 610.08 101.524C612.104 102.447 613.678 103.732 614.803 105.377C615.927 107.022 616.507 108.928 616.543 111.094H609.174ZM622.211 137V100.636H629.9V115.64H645.507V100.636H653.177V137H645.507V121.979H629.9V137H622.211ZM667.204 100.636V137H659.516V100.636H667.204ZM673.53 137V100.636H687.876C690.634 100.636 692.984 101.163 694.925 102.217C696.867 103.258 698.346 104.708 699.364 106.567C700.394 108.413 700.909 110.544 700.909 112.959C700.909 115.374 700.388 117.504 699.346 119.351C698.305 121.197 696.796 122.636 694.819 123.665C692.854 124.695 690.474 125.21 687.681 125.21H678.537V119.049H686.438C687.918 119.049 689.137 118.795 690.096 118.286C691.066 117.765 691.788 117.049 692.262 116.137C692.747 115.214 692.99 114.154 692.99 112.959C692.99 111.751 692.747 110.698 692.262 109.798C691.788 108.887 691.066 108.183 690.096 107.685C689.125 107.176 687.894 106.922 686.403 106.922H681.218V137H673.53Z" fill="#F2EBE0"/>
<path d="M119.379 176.636H124.884V200.553C124.884 203.098 124.286 205.353 123.09 207.318C121.895 209.271 120.214 210.81 118.048 211.935C115.881 213.047 113.342 213.604 110.43 213.604C107.53 213.604 104.997 213.047 102.831 211.935C100.665 210.81 98.9839 209.271 97.7884 207.318C96.5928 205.353 95.995 203.098 95.995 200.553V176.636H101.482V200.109C101.482 201.755 101.843 203.217 102.565 204.495C103.299 205.773 104.334 206.78 105.672 207.513C107.009 208.236 108.596 208.597 110.43 208.597C112.277 208.597 113.869 208.236 115.207 207.513C116.556 206.78 117.586 205.773 118.296 204.495C119.018 203.217 119.379 201.755 119.379 200.109V176.636ZM162.21 176.636V213H157.168L138.684 186.331H138.347V213H132.86V176.636H137.938L156.44 203.341H156.777V176.636H162.21ZM170.214 213V176.636H175.7V208.277H192.178V213H170.214ZM203.923 176.636V213H198.436V176.636H203.923ZM211.913 176.636H218.571L230.148 204.903H230.574L242.151 176.636H248.809V213H243.589V186.686H243.252L232.527 212.947H228.195L217.471 186.668H217.133V213H211.913V176.636ZM262.273 176.636V213H256.786V176.636H262.273ZM268.469 181.359V176.636H296.612V181.359H285.266V213H279.797V181.359H268.469ZM302.831 213V176.636H325.629V181.359H308.317V192.439H324.44V197.144H308.317V208.277H325.842V213H302.831ZM344.73 213H332.958V176.636H345.103C348.666 176.636 351.726 177.364 354.282 178.82C356.839 180.264 358.798 182.342 360.16 185.053C361.533 187.751 362.219 190.989 362.219 194.765C362.219 198.553 361.527 201.808 360.142 204.531C358.769 207.253 356.78 209.348 354.176 210.816C351.572 212.272 348.423 213 344.73 213ZM338.444 208.206H344.428C347.198 208.206 349.5 207.685 351.335 206.643C353.17 205.59 354.543 204.069 355.454 202.08C356.366 200.08 356.822 197.641 356.822 194.765C356.822 191.912 356.366 189.491 355.454 187.503C354.555 185.514 353.211 184.005 351.424 182.975C349.636 181.945 347.417 181.43 344.765 181.43H338.444V208.206ZM394.046 213H382.274V176.636H394.419C397.982 176.636 401.042 177.364 403.599 178.82C406.156 180.264 408.115 182.342 409.476 185.053C410.849 187.751 411.536 190.989 411.536 194.765C411.536 198.553 410.843 201.808 409.458 204.531C408.085 207.253 406.097 209.348 403.492 210.816C400.888 212.272 397.74 213 394.046 213ZM387.761 208.206H393.744C396.514 208.206 398.817 207.685 400.651 206.643C402.486 205.59 403.859 204.069 404.771 202.08C405.682 200.08 406.138 197.641 406.138 194.765C406.138 191.912 405.682 189.491 404.771 187.503C403.871 185.514 402.528 184.005 400.74 182.975C398.953 181.945 396.733 181.43 394.082 181.43H387.761V208.206ZM418.358 213V176.636H431.32C434.137 176.636 436.475 177.122 438.333 178.092C440.204 179.063 441.6 180.406 442.524 182.123C443.447 183.827 443.909 185.798 443.909 188.036C443.909 190.261 443.441 192.22 442.506 193.913C441.583 195.594 440.186 196.902 438.316 197.837C436.457 198.772 434.119 199.239 431.302 199.239H421.483V194.516H430.805C432.581 194.516 434.025 194.262 435.137 193.753C436.262 193.244 437.085 192.504 437.605 191.533C438.126 190.563 438.387 189.397 438.387 188.036C438.387 186.662 438.12 185.473 437.588 184.467C437.067 183.46 436.244 182.691 435.12 182.158C434.007 181.614 432.545 181.342 430.734 181.342H423.845V213H418.358ZM436.309 196.594L445.294 213H439.044L430.237 196.594H436.309ZM456.071 176.636V213H450.585V176.636H456.071ZM467.24 176.636L477.36 206.253H477.769L487.89 176.636H493.82L480.734 213H474.395L461.309 176.636H467.24ZM499.071 213V176.636H521.869V181.359H504.558V192.439H520.68V197.144H504.558V208.277H522.083V213H499.071ZM549.031 186.189C548.842 184.508 548.061 183.206 546.688 182.283C545.314 181.348 543.586 180.88 541.503 180.88C540.011 180.88 538.721 181.117 537.632 181.59C536.543 182.052 535.697 182.691 535.093 183.508C534.501 184.313 534.205 185.23 534.205 186.26C534.205 187.124 534.406 187.87 534.809 188.497C535.223 189.125 535.762 189.651 536.425 190.077C537.099 190.492 537.821 190.841 538.591 191.125C539.36 191.397 540.1 191.622 540.81 191.8L544.362 192.723C545.522 193.007 546.711 193.392 547.93 193.877C549.15 194.362 550.28 195.002 551.322 195.795C552.363 196.588 553.204 197.57 553.843 198.742C554.494 199.914 554.82 201.317 554.82 202.95C554.82 205.01 554.287 206.839 553.222 208.437C552.168 210.035 550.635 211.295 548.623 212.219C546.622 213.142 544.202 213.604 541.361 213.604C538.638 213.604 536.283 213.172 534.294 212.308C532.305 211.443 530.749 210.218 529.624 208.632C528.5 207.034 527.878 205.14 527.76 202.95H533.264C533.371 204.264 533.797 205.359 534.543 206.235C535.3 207.099 536.265 207.744 537.437 208.17C538.621 208.585 539.917 208.792 541.325 208.792C542.876 208.792 544.255 208.549 545.462 208.064C546.682 207.567 547.64 206.88 548.339 206.004C549.037 205.116 549.386 204.081 549.386 202.897C549.386 201.82 549.079 200.938 548.463 200.251C547.859 199.565 547.037 198.997 545.995 198.547C544.965 198.097 543.799 197.701 542.497 197.357L538.2 196.185C535.288 195.392 532.98 194.226 531.276 192.688C529.583 191.149 528.737 189.113 528.737 186.58C528.737 184.484 529.305 182.656 530.441 181.093C531.577 179.531 533.116 178.317 535.058 177.453C536.999 176.577 539.189 176.139 541.627 176.139C544.089 176.139 546.261 176.571 548.143 177.435C550.037 178.299 551.529 179.489 552.618 181.004C553.707 182.508 554.275 184.236 554.322 186.189H549.031ZM584.765 213.515C582.326 213.515 580.225 213.071 578.461 212.183C576.709 211.295 575.36 210.088 574.413 208.561C573.466 207.022 572.993 205.282 572.993 203.341C572.993 201.861 573.3 200.547 573.916 199.399C574.531 198.239 575.39 197.168 576.49 196.185C577.591 195.203 578.864 194.214 580.308 193.22L586.167 189.083C587.162 188.432 587.937 187.746 588.493 187.023C589.05 186.29 589.328 185.384 589.328 184.307C589.328 183.455 588.961 182.638 588.227 181.857C587.493 181.075 586.511 180.685 585.279 180.685C584.427 180.685 583.676 180.892 583.025 181.306C582.385 181.72 581.882 182.253 581.515 182.904C581.16 183.543 580.983 184.218 580.983 184.928C580.983 185.757 581.208 186.591 581.657 187.432C582.119 188.272 582.711 189.142 583.433 190.042C584.155 190.93 584.913 191.853 585.706 192.812L602.591 213H596.59L582.616 196.576C581.444 195.191 580.355 193.889 579.349 192.67C578.343 191.439 577.526 190.196 576.899 188.941C576.283 187.674 575.975 186.307 575.975 184.839C575.975 183.17 576.354 181.691 577.112 180.401C577.881 179.098 578.953 178.08 580.326 177.347C581.699 176.613 583.309 176.246 585.155 176.246C587.025 176.246 588.629 176.613 589.967 177.347C591.316 178.069 592.352 179.033 593.074 180.241C593.808 181.436 594.175 182.744 594.175 184.165C594.175 185.893 593.743 187.42 592.879 188.746C592.027 190.06 590.849 191.267 589.346 192.368L582.048 197.748C580.627 198.79 579.639 199.819 579.083 200.837C578.538 201.844 578.266 202.631 578.266 203.199C578.266 204.241 578.532 205.205 579.065 206.093C579.609 206.981 580.367 207.691 581.338 208.224C582.32 208.756 583.468 209.023 584.782 209.023C586.132 209.023 587.446 208.733 588.724 208.153C590.014 207.561 591.18 206.714 592.222 205.614C593.275 204.513 594.11 203.193 594.725 201.654C595.341 200.115 595.649 198.393 595.649 196.487H600.443C600.443 198.831 600.176 200.814 599.644 202.435C599.111 204.045 598.466 205.359 597.708 206.377C596.963 207.383 596.258 208.17 595.596 208.739C595.382 208.928 595.181 209.117 594.992 209.307C594.802 209.496 594.601 209.686 594.388 209.875C593.157 211.118 591.666 212.035 589.914 212.627C588.174 213.219 586.457 213.515 584.765 213.515ZM620.409 213V176.636H633.371C636.188 176.636 638.526 177.122 640.384 178.092C642.254 179.063 643.651 180.406 644.575 182.123C645.498 183.827 645.96 185.798 645.96 188.036C645.96 190.261 645.492 192.22 644.557 193.913C643.634 195.594 642.237 196.902 640.366 197.837C638.508 198.772 636.17 199.239 633.353 199.239H623.534V194.516H632.856C634.631 194.516 636.076 194.262 637.188 193.753C638.313 193.244 639.135 192.504 639.656 191.533C640.177 190.563 640.438 189.397 640.438 188.036C640.438 186.662 640.171 185.473 639.638 184.467C639.118 183.46 638.295 182.691 637.17 182.158C636.058 181.614 634.596 181.342 632.785 181.342H625.896V213H620.409ZM638.36 196.594L647.344 213H641.094L632.288 196.594H638.36ZM655.707 213H649.884L662.969 176.636H669.308L682.394 213H676.57L666.29 183.241H666.006L655.707 213ZM656.684 198.76H675.576V203.376H656.684V198.76ZM716.139 188.462H710.599C710.386 187.278 709.989 186.236 709.409 185.337C708.829 184.437 708.119 183.674 707.279 183.046C706.438 182.419 705.497 181.945 704.456 181.626C703.426 181.306 702.331 181.146 701.171 181.146C699.076 181.146 697.199 181.673 695.542 182.727C693.897 183.78 692.595 185.325 691.636 187.361C690.689 189.397 690.216 191.883 690.216 194.818C690.216 197.777 690.689 200.275 691.636 202.311C692.595 204.347 693.903 205.886 695.56 206.928C697.217 207.969 699.082 208.49 701.153 208.49C702.301 208.49 703.39 208.336 704.42 208.028C705.462 207.709 706.403 207.241 707.243 206.626C708.084 206.01 708.794 205.259 709.374 204.371C709.966 203.471 710.374 202.441 710.599 201.281L716.139 201.299C715.843 203.086 715.269 204.732 714.417 206.235C713.576 207.727 712.493 209.017 711.167 210.106C709.853 211.183 708.35 212.018 706.657 212.609C704.965 213.201 703.118 213.497 701.118 213.497C697.969 213.497 695.163 212.751 692.701 211.26C690.239 209.757 688.298 207.608 686.877 204.815C685.469 202.021 684.765 198.689 684.765 194.818C684.765 190.936 685.475 187.603 686.895 184.822C688.316 182.028 690.257 179.886 692.719 178.394C695.181 176.891 697.981 176.139 701.118 176.139C703.047 176.139 704.846 176.417 706.515 176.974C708.196 177.518 709.705 178.323 711.043 179.388C712.381 180.442 713.487 181.732 714.363 183.259C715.239 184.774 715.831 186.509 716.139 188.462ZM722.704 213V176.636H745.502V181.359H728.191V192.439H744.313V197.144H728.191V208.277H745.715V213H722.704ZM772.664 186.189C772.475 184.508 771.693 183.206 770.32 182.283C768.947 181.348 767.219 180.88 765.136 180.88C763.644 180.88 762.354 181.117 761.265 181.59C760.176 182.052 759.33 182.691 758.726 183.508C758.134 184.313 757.838 185.23 757.838 186.26C757.838 187.124 758.039 187.87 758.442 188.497C758.856 189.125 759.395 189.651 760.058 190.077C760.732 190.492 761.454 190.841 762.224 191.125C762.993 191.397 763.733 191.622 764.443 191.8L767.994 192.723C769.154 193.007 770.344 193.392 771.563 193.877C772.782 194.362 773.913 195.002 774.955 195.795C775.996 196.588 776.837 197.57 777.476 198.742C778.127 199.914 778.452 201.317 778.452 202.95C778.452 205.01 777.92 206.839 776.854 208.437C775.801 210.035 774.268 211.295 772.256 212.219C770.255 213.142 767.835 213.604 764.994 213.604C762.271 213.604 759.915 213.172 757.927 212.308C755.938 211.443 754.382 210.218 753.257 208.632C752.133 207.034 751.511 205.14 751.393 202.95H756.897C757.004 204.264 757.43 205.359 758.175 206.235C758.933 207.099 759.898 207.744 761.07 208.17C762.253 208.585 763.549 208.792 764.958 208.792C766.509 208.792 767.888 208.549 769.095 208.064C770.314 207.567 771.273 206.88 771.972 206.004C772.67 205.116 773.019 204.081 773.019 202.897C773.019 201.82 772.711 200.938 772.096 200.251C771.492 199.565 770.67 198.997 769.628 198.547C768.598 198.097 767.432 197.701 766.13 197.357L761.833 196.185C758.921 195.392 756.613 194.226 754.908 192.688C753.216 191.149 752.369 189.113 752.369 186.58C752.369 184.484 752.938 182.656 754.074 181.093C755.21 179.531 756.749 178.317 758.69 177.453C760.632 176.577 762.821 176.139 765.26 176.139C767.722 176.139 769.894 176.571 771.776 177.435C773.67 178.299 775.162 179.489 776.251 181.004C777.34 182.508 777.908 184.236 777.955 186.189H772.664Z" fill="#F2EBE0"/>
<path d="M92 222.943H365.042V226.352H92V222.943Z" fill="#F2EBE0"/>
<rect x="35.5" y="35.4922" width="1016" height="1016" rx="62.5" stroke="#F2EBE0" stroke-width="9"/>
</svg>
