<svg width="1088" height="1088" viewBox="0 0 1088 1088" fill="none" xmlns="http://www.w3.org/2000/svg">
<rect x="5" y="5" width="1078" height="1078" fill="#008B21" stroke="#FAF6EF" stroke-width="10"/>
<path d="M277.912 605.091C277.912 624.504 274.361 641.194 267.259 655.162C260.156 669.071 250.42 679.783 238.05 687.3C225.74 694.757 211.742 698.486 196.058 698.486C180.315 698.486 166.258 694.757 153.888 687.3C141.578 679.783 131.871 669.041 124.769 655.073C117.667 641.105 114.116 624.445 114.116 605.091C114.116 585.678 117.667 569.017 124.769 555.109C131.871 541.141 141.578 530.428 153.888 522.971C166.258 515.454 180.315 511.696 196.058 511.696C211.742 511.696 225.74 515.454 238.05 522.971C250.42 530.428 260.156 541.141 267.259 555.109C274.361 569.017 277.912 585.678 277.912 605.091ZM250.746 605.091C250.746 590.295 248.349 577.836 243.555 567.715C238.82 557.535 232.309 549.841 224.023 544.633C215.797 539.365 206.475 536.732 196.058 536.732C185.582 536.732 176.231 539.365 168.004 544.633C159.777 549.841 153.267 557.535 148.473 567.715C143.738 577.836 141.371 590.295 141.371 605.091C141.371 619.887 143.738 632.375 148.473 642.555C153.267 652.676 159.777 660.37 168.004 665.638C176.231 670.846 185.582 673.45 196.058 673.45C206.475 673.45 215.797 670.846 224.023 665.638C232.309 660.37 238.82 652.676 243.555 642.555C248.349 632.375 250.746 619.887 250.746 605.091ZM309.983 747.136V559.636H335.906V581.742H338.126C339.665 578.901 341.884 575.616 344.784 571.888C347.684 568.159 351.709 564.904 356.858 562.122C362.007 559.281 368.814 557.861 377.277 557.861C388.286 557.861 398.111 560.643 406.752 566.206C415.393 571.769 422.169 579.789 427.082 590.265C432.053 600.741 434.539 613.347 434.539 628.085C434.539 642.822 432.083 655.458 427.171 665.993C422.258 676.469 415.511 684.548 406.929 690.229C398.347 695.852 388.552 698.663 377.544 698.663C369.258 698.663 362.481 697.272 357.213 694.491C352.005 691.709 347.921 688.454 344.962 684.725C342.003 680.996 339.724 677.682 338.126 674.782H336.528V747.136H309.983ZM335.995 627.818C335.995 637.406 337.386 645.811 340.168 653.031C342.95 660.252 346.974 665.904 352.242 669.988C357.509 674.013 363.96 676.025 371.595 676.025C379.526 676.025 386.155 673.924 391.482 669.722C396.808 665.46 400.833 659.69 403.556 652.41C406.337 645.13 407.728 636.933 407.728 627.818C407.728 618.822 406.367 610.743 403.644 603.582C400.981 596.42 396.956 590.768 391.57 586.625C386.244 582.482 379.585 580.411 371.595 580.411C363.901 580.411 357.391 582.393 352.064 586.359C346.797 590.324 342.802 595.858 340.079 602.96C337.356 610.062 335.995 618.348 335.995 627.818ZM523.051 698.752C509.616 698.752 498.045 695.882 488.339 690.141C478.692 684.34 471.234 676.202 465.967 665.727C460.758 655.192 458.154 642.851 458.154 628.706C458.154 614.738 460.758 602.428 465.967 591.774C471.234 581.121 478.573 572.805 487.984 566.827C497.454 560.85 508.521 557.861 521.187 557.861C528.881 557.861 536.338 559.133 543.559 561.678C550.78 564.223 557.261 568.218 563.002 573.663C568.743 579.108 573.27 586.181 576.585 594.881C579.899 603.522 581.556 614.028 581.556 626.398V635.808H473.158V615.922H555.544C555.544 608.938 554.124 602.753 551.283 597.367C548.442 591.922 544.447 587.631 539.298 584.494C534.208 581.357 528.23 579.789 521.365 579.789C513.907 579.789 507.397 581.624 501.833 585.293C496.329 588.904 492.068 593.638 489.049 599.498C486.09 605.298 484.61 611.601 484.61 618.408V633.944C484.61 643.058 486.208 650.812 489.404 657.204C492.66 663.596 497.187 668.479 502.987 671.852C508.788 675.167 515.564 676.824 523.318 676.824C528.348 676.824 532.935 676.114 537.078 674.693C541.221 673.214 544.802 671.024 547.82 668.124C550.839 665.223 553.147 661.643 554.745 657.381L579.869 661.909C577.857 669.307 574.247 675.788 569.039 681.352C563.889 686.856 557.409 691.147 549.596 694.224C541.843 697.243 532.994 698.752 523.051 698.752ZM637.553 615.034V696H611.009V559.636H636.488V581.831H638.175C641.312 574.61 646.224 568.81 652.912 564.43C659.659 560.051 668.152 557.861 678.391 557.861C687.683 557.861 695.821 559.814 702.805 563.72C709.789 567.567 715.205 573.308 719.052 580.943C722.899 588.578 724.822 598.018 724.822 609.263V696H698.278V612.46C698.278 602.576 695.703 594.852 690.554 589.288C685.405 583.666 678.332 580.854 669.336 580.854C663.181 580.854 657.706 582.186 652.912 584.849C648.177 587.513 644.419 591.419 641.637 596.568C638.915 601.658 637.553 607.813 637.553 615.034ZM178.835 940H119.975V758.182H180.7C198.514 758.182 213.814 761.822 226.598 769.102C239.382 776.322 249.177 786.709 255.984 800.263C262.849 813.757 266.282 829.944 266.282 848.825C266.282 867.764 262.82 884.04 255.895 897.653C249.029 911.265 239.086 921.741 226.065 929.08C213.045 936.36 197.301 940 178.835 940ZM147.408 916.03H177.326C191.175 916.03 202.687 913.426 211.861 908.217C221.035 902.95 227.9 895.344 232.457 885.401C237.015 875.399 239.293 863.207 239.293 848.825C239.293 834.561 237.015 822.457 232.457 812.514C227.959 802.571 221.242 795.025 212.305 789.876C203.368 784.727 192.27 782.152 179.013 782.152H147.408V916.03ZM298.264 940V803.636H323.921V825.298H325.342C327.828 817.959 332.207 812.189 338.481 807.987C344.814 803.725 351.975 801.594 359.965 801.594C361.623 801.594 363.576 801.654 365.825 801.772C368.133 801.89 369.938 802.038 371.24 802.216V827.607C370.175 827.311 368.281 826.985 365.558 826.63C362.836 826.216 360.113 826.009 357.391 826.009C351.117 826.009 345.524 827.34 340.612 830.004C335.758 832.608 331.911 836.248 329.07 840.923C326.23 845.54 324.809 850.807 324.809 856.726V940H298.264ZM394.212 940V803.636H420.756V940H394.212ZM407.617 782.596C403.001 782.596 399.035 781.057 395.721 777.979C392.466 774.843 390.838 771.114 390.838 766.793C390.838 762.414 392.466 758.685 395.721 755.607C399.035 752.47 403.001 750.902 407.617 750.902C412.234 750.902 416.17 752.47 419.425 755.607C422.739 758.685 424.396 762.414 424.396 766.793C424.396 771.114 422.739 774.843 419.425 777.979C416.17 781.057 412.234 782.596 407.617 782.596ZM573.122 803.636L523.673 940H495.264L445.725 803.636H474.223L508.758 908.572H510.178L544.624 803.636H573.122ZM652.202 942.752C638.767 942.752 627.196 939.882 617.489 934.141C607.842 928.34 600.385 920.202 595.117 909.727C589.909 899.192 587.305 886.851 587.305 872.706C587.305 858.738 589.909 846.428 595.117 835.774C600.385 825.121 607.724 816.805 617.134 810.827C626.604 804.85 637.672 801.861 650.337 801.861C658.031 801.861 665.489 803.133 672.71 805.678C679.93 808.223 686.411 812.218 692.152 817.663C697.893 823.108 702.421 830.181 705.735 838.881C709.049 847.522 710.707 858.028 710.707 870.398V879.808H602.308V859.922H684.695C684.695 852.938 683.274 846.753 680.433 841.367C677.592 835.922 673.597 831.631 668.448 828.494C663.358 825.357 657.38 823.789 650.515 823.789C643.058 823.789 636.547 825.624 630.984 829.293C625.479 832.904 621.218 837.638 618.2 843.498C615.24 849.298 613.761 855.601 613.761 862.408V877.944C613.761 887.058 615.359 894.812 618.555 901.204C621.81 907.596 626.338 912.479 632.138 915.852C637.938 919.167 644.715 920.824 652.468 920.824C657.499 920.824 662.086 920.114 666.229 918.693C670.372 917.214 673.952 915.024 676.971 912.124C679.989 909.223 682.298 905.643 683.896 901.381L709.02 905.909C707.008 913.307 703.397 919.788 698.189 925.352C693.04 930.856 686.559 935.147 678.746 938.224C670.993 941.243 662.145 942.752 652.202 942.752Z" fill="black"/>
<path d="M128.577 118.818C128.577 122.784 127.825 126.157 126.322 128.939C124.83 131.721 122.794 133.845 120.214 135.313C117.645 136.769 114.757 137.497 111.549 137.497C108.317 137.497 105.417 136.763 102.849 135.295C100.28 133.828 98.25 131.703 96.7585 128.921C95.267 126.139 94.5213 122.772 94.5213 118.818C94.5213 114.853 95.267 111.479 96.7585 108.697C98.25 105.916 100.28 103.797 102.849 102.341C105.417 100.873 108.317 100.139 111.549 100.139C114.757 100.139 117.645 100.873 120.214 102.341C122.794 103.797 124.83 105.916 126.322 108.697C127.825 111.479 128.577 114.853 128.577 118.818ZM120.782 118.818C120.782 116.25 120.397 114.083 119.628 112.32C118.87 110.556 117.799 109.218 116.414 108.307C115.029 107.395 113.407 106.94 111.549 106.94C109.691 106.94 108.069 107.395 106.684 108.307C105.299 109.218 104.222 110.556 103.452 112.32C102.695 114.083 102.316 116.25 102.316 118.818C102.316 121.387 102.695 123.553 103.452 125.317C104.222 127.08 105.299 128.418 106.684 129.33C108.069 130.241 109.691 130.697 111.549 130.697C113.407 130.697 115.029 130.241 116.414 129.33C117.799 128.418 118.87 127.08 119.628 125.317C120.397 123.553 120.782 121.387 120.782 118.818ZM134.272 137V100.636H148.618C151.376 100.636 153.726 101.163 155.667 102.217C157.609 103.258 159.088 104.708 160.106 106.567C161.136 108.413 161.651 110.544 161.651 112.959C161.651 115.374 161.13 117.504 160.089 119.351C159.047 121.197 157.538 122.636 155.561 123.665C153.596 124.695 151.217 125.21 148.423 125.21H139.279V119.049H147.18C148.66 119.049 149.879 118.795 150.838 118.286C151.809 117.765 152.531 117.049 153.004 116.137C153.489 115.214 153.732 114.154 153.732 112.959C153.732 111.751 153.489 110.698 153.004 109.798C152.531 108.887 151.809 108.183 150.838 107.685C149.867 107.176 148.636 106.922 147.145 106.922H141.96V137H134.272ZM166.645 137V100.636H191.148V106.975H174.333V115.64H189.887V121.979H174.333V130.661H191.219V137H166.645ZM227.676 100.636V137H221.035L205.215 114.113H204.948V137H197.26V100.636H204.007L219.703 123.506H220.023V100.636H227.676ZM244.215 106.975V100.636H274.08V106.975H262.947V137H255.348V106.975H244.215ZM278.998 137V100.636H293.345C296.091 100.636 298.435 101.128 300.376 102.11C302.329 103.081 303.815 104.46 304.833 106.247C305.863 108.023 306.378 110.112 306.378 112.515C306.378 114.93 305.857 117.007 304.815 118.747C303.773 120.475 302.264 121.801 300.287 122.724C298.323 123.648 295.943 124.109 293.15 124.109H283.544V117.93H291.907C293.375 117.93 294.594 117.729 295.564 117.327C296.535 116.924 297.257 116.321 297.731 115.516C298.216 114.711 298.459 113.71 298.459 112.515C298.459 111.308 298.216 110.29 297.731 109.461C297.257 108.632 296.529 108.005 295.547 107.579C294.576 107.141 293.351 106.922 291.871 106.922H286.687V137H278.998ZM298.636 120.452L307.674 137H299.187L290.344 120.452H298.636ZM318.079 137H309.84L322.393 100.636H332.301L344.836 137H336.598L327.489 108.946H327.205L318.079 137ZM317.564 122.707H337.024V128.708H317.564V122.707ZM379.589 113.367H371.812C371.67 112.361 371.38 111.467 370.942 110.686C370.504 109.893 369.942 109.218 369.255 108.662C368.568 108.106 367.775 107.679 366.876 107.384C365.988 107.088 365.023 106.94 363.982 106.94C362.099 106.94 360.46 107.407 359.063 108.342C357.666 109.266 356.583 110.615 355.814 112.391C355.045 114.154 354.66 116.297 354.66 118.818C354.66 121.411 355.045 123.589 355.814 125.352C356.595 127.116 357.684 128.448 359.081 129.347C360.478 130.247 362.094 130.697 363.928 130.697C364.958 130.697 365.911 130.561 366.787 130.288C367.675 130.016 368.462 129.62 369.148 129.099C369.835 128.566 370.403 127.921 370.853 127.163C371.315 126.406 371.634 125.542 371.812 124.571L379.589 124.607C379.388 126.276 378.884 127.885 378.08 129.436C377.286 130.975 376.215 132.354 374.866 133.573C373.528 134.781 371.93 135.739 370.072 136.45C368.225 137.148 366.136 137.497 363.804 137.497C360.561 137.497 357.661 136.763 355.104 135.295C352.559 133.828 350.546 131.703 349.067 128.921C347.599 126.139 346.865 122.772 346.865 118.818C346.865 114.853 347.611 111.479 349.102 108.697C350.594 105.916 352.618 103.797 355.175 102.341C357.732 100.873 360.608 100.139 363.804 100.139C365.911 100.139 367.864 100.435 369.663 101.027C371.474 101.619 373.078 102.483 374.475 103.619C375.872 104.744 377.008 106.123 377.884 107.756C378.772 109.39 379.34 111.26 379.589 113.367ZM385.102 137V100.636H392.79V116.67H393.27L406.355 100.636H415.571L402.076 116.918L415.73 137H406.533L396.572 122.05L392.79 126.666V137H385.102Z" fill="black"/>
<path d="M95.995 217V180.636H109.312C111.892 180.636 114.029 181.062 115.722 181.915C117.414 182.755 118.681 183.897 119.521 185.342C120.362 186.774 120.782 188.39 120.782 190.189C120.782 191.704 120.504 192.982 119.947 194.024C119.391 195.054 118.645 195.883 117.71 196.51C116.787 197.125 115.769 197.575 114.656 197.859V198.214C115.864 198.274 117.041 198.664 118.19 199.386C119.35 200.097 120.308 201.109 121.066 202.423C121.824 203.737 122.202 205.335 122.202 207.217C122.202 209.075 121.764 210.744 120.888 212.224C120.024 213.692 118.687 214.857 116.876 215.722C115.065 216.574 112.75 217 109.933 217H95.995ZM101.482 212.295H109.401C112.028 212.295 113.911 211.786 115.047 210.768C116.183 209.75 116.751 208.477 116.751 206.95C116.751 205.802 116.461 204.749 115.881 203.79C115.301 202.831 114.473 202.067 113.396 201.499C112.33 200.931 111.064 200.647 109.596 200.647H101.482V212.295ZM101.482 196.368H108.832C110.063 196.368 111.17 196.131 112.153 195.658C113.147 195.184 113.934 194.521 114.514 193.669C115.106 192.805 115.402 191.787 115.402 190.615C115.402 189.112 114.875 187.851 113.822 186.833C112.768 185.815 111.152 185.306 108.974 185.306H101.482V196.368ZM128.71 217V180.636H151.508V185.359H134.196V196.439H150.319V201.144H134.196V212.277H151.721V217H128.71ZM178.67 190.189C178.481 188.508 177.699 187.206 176.326 186.283C174.953 185.348 173.225 184.88 171.142 184.88C169.65 184.88 168.36 185.117 167.271 185.59C166.182 186.052 165.335 186.691 164.732 187.508C164.14 188.313 163.844 189.23 163.844 190.26C163.844 191.124 164.045 191.87 164.448 192.497C164.862 193.125 165.401 193.651 166.063 194.077C166.738 194.492 167.46 194.841 168.23 195.125C168.999 195.397 169.739 195.622 170.449 195.8L174 196.723C175.16 197.007 176.35 197.392 177.569 197.877C178.788 198.362 179.919 199.002 180.96 199.795C182.002 200.588 182.843 201.57 183.482 202.742C184.133 203.914 184.458 205.317 184.458 206.95C184.458 209.01 183.926 210.839 182.86 212.437C181.807 214.035 180.274 215.295 178.262 216.219C176.261 217.142 173.84 217.604 170.999 217.604C168.277 217.604 165.921 217.172 163.933 216.308C161.944 215.443 160.387 214.218 159.263 212.632C158.138 211.034 157.517 209.14 157.399 206.95H162.903C163.009 208.264 163.436 209.359 164.181 210.235C164.939 211.099 165.904 211.744 167.075 212.17C168.259 212.585 169.555 212.792 170.964 212.792C172.515 212.792 173.894 212.549 175.101 212.064C176.32 211.567 177.279 210.88 177.977 210.004C178.676 209.116 179.025 208.081 179.025 206.897C179.025 205.82 178.717 204.938 178.102 204.251C177.498 203.565 176.675 202.997 175.634 202.547C174.604 202.097 173.438 201.701 172.136 201.357L167.839 200.185C164.927 199.392 162.619 198.226 160.914 196.688C159.222 195.149 158.375 193.113 158.375 190.58C158.375 188.484 158.943 186.656 160.08 185.093C161.216 183.531 162.755 182.317 164.696 181.453C166.637 180.577 168.827 180.139 171.266 180.139C173.728 180.139 175.9 180.571 177.782 181.435C179.676 182.299 181.168 183.489 182.257 185.004C183.346 186.508 183.914 188.236 183.961 190.189H178.67ZM189.221 185.359V180.636H217.364V185.359H206.018V217H200.549V185.359H189.221ZM236.815 217V180.636H259.365V185.359H242.302V196.439H257.749V201.144H242.302V217H236.815ZM297.7 198.818C297.7 202.701 296.989 206.039 295.569 208.832C294.148 211.614 292.201 213.757 289.727 215.26C287.265 216.751 284.466 217.497 281.329 217.497C278.18 217.497 275.369 216.751 272.895 215.26C270.433 213.757 268.491 211.608 267.071 208.815C265.651 206.021 264.94 202.689 264.94 198.818C264.94 194.936 265.651 191.603 267.071 188.822C268.491 186.028 270.433 183.886 272.895 182.394C275.369 180.891 278.18 180.139 281.329 180.139C284.466 180.139 287.265 180.891 289.727 182.394C292.201 183.886 294.148 186.028 295.569 188.822C296.989 191.603 297.7 194.936 297.7 198.818ZM292.266 198.818C292.266 195.859 291.787 193.367 290.828 191.343C289.881 189.307 288.579 187.768 286.922 186.727C285.277 185.673 283.412 185.146 281.329 185.146C279.234 185.146 277.363 185.673 275.718 186.727C274.073 187.768 272.771 189.307 271.812 191.343C270.865 193.367 270.391 195.859 270.391 198.818C270.391 201.777 270.865 204.275 271.812 206.311C272.771 208.335 274.073 209.874 275.718 210.928C277.363 211.969 279.234 212.49 281.329 212.49C283.412 212.49 285.277 211.969 286.922 210.928C288.579 209.874 289.881 208.335 290.828 206.311C291.787 204.275 292.266 201.777 292.266 198.818ZM304.54 217V180.636H317.502C320.319 180.636 322.657 181.122 324.515 182.092C326.385 183.063 327.782 184.406 328.705 186.123C329.629 187.827 330.09 189.798 330.09 192.036C330.09 194.261 329.623 196.22 328.688 197.913C327.764 199.594 326.368 200.902 324.497 201.837C322.639 202.772 320.301 203.239 317.484 203.239H307.665V198.516H316.987C318.762 198.516 320.206 198.262 321.319 197.753C322.444 197.244 323.266 196.504 323.787 195.533C324.308 194.563 324.568 193.397 324.568 192.036C324.568 190.662 324.302 189.473 323.769 188.467C323.249 187.46 322.426 186.691 321.301 186.158C320.189 185.614 318.727 185.342 316.916 185.342H310.026V217H304.54ZM322.491 200.594L331.475 217H325.225L316.419 200.594H322.491ZM374.608 192.124C374.265 191.047 373.803 190.082 373.223 189.23C372.655 188.366 371.975 187.632 371.181 187.028C370.388 186.413 369.483 185.945 368.465 185.626C367.459 185.306 366.352 185.146 365.145 185.146C363.097 185.146 361.25 185.673 359.605 186.727C357.959 187.78 356.657 189.325 355.699 191.361C354.752 193.385 354.278 195.865 354.278 198.8C354.278 201.748 354.757 204.24 355.716 206.276C356.675 208.312 357.989 209.856 359.658 210.91C361.327 211.963 363.227 212.49 365.358 212.49C367.334 212.49 369.057 212.088 370.525 211.283C372.004 210.478 373.146 209.341 373.951 207.874C374.768 206.394 375.176 204.654 375.176 202.653L376.597 202.92H366.192V198.392H380.485V202.529C380.485 205.583 379.834 208.235 378.532 210.484C377.242 212.721 375.455 214.449 373.17 215.668C370.897 216.888 368.293 217.497 365.358 217.497C362.067 217.497 359.179 216.74 356.693 215.224C354.219 213.709 352.289 211.561 350.904 208.779C349.52 205.986 348.827 202.671 348.827 198.836C348.827 195.936 349.23 193.332 350.034 191.023C350.839 188.715 351.97 186.756 353.426 185.146C354.894 183.525 356.616 182.288 358.593 181.435C360.581 180.571 362.753 180.139 365.109 180.139C367.074 180.139 368.903 180.429 370.596 181.009C372.3 181.589 373.815 182.412 375.141 183.477C376.479 184.543 377.585 185.809 378.461 187.277C379.337 188.733 379.929 190.349 380.237 192.124H374.608ZM387.45 217V180.636H400.412C403.229 180.636 405.567 181.122 407.425 182.092C409.296 183.063 410.692 184.406 411.616 186.123C412.539 187.827 413.001 189.798 413.001 192.036C413.001 194.261 412.533 196.22 411.598 197.913C410.675 199.594 409.278 200.902 407.407 201.837C405.549 202.772 403.211 203.239 400.394 203.239H390.575V198.516H399.897C401.672 198.516 403.117 198.262 404.229 197.753C405.354 197.244 406.176 196.504 406.697 195.533C407.218 194.563 407.479 193.397 407.479 192.036C407.479 190.662 407.212 189.473 406.68 188.467C406.159 187.46 405.336 186.691 404.211 186.158C403.099 185.614 401.637 185.342 399.826 185.342H392.937V217H387.45ZM405.401 200.594L414.385 217H408.135L399.329 200.594H405.401ZM451.264 198.818C451.264 202.701 450.554 206.039 449.133 208.832C447.713 211.614 445.766 213.757 443.292 215.26C440.83 216.751 438.03 217.497 434.893 217.497C431.745 217.497 428.933 216.751 426.459 215.26C423.997 213.757 422.056 211.608 420.635 208.815C419.215 206.021 418.505 202.689 418.505 198.818C418.505 194.936 419.215 191.603 420.635 188.822C422.056 186.028 423.997 183.886 426.459 182.394C428.933 180.891 431.745 180.139 434.893 180.139C438.03 180.139 440.83 180.891 443.292 182.394C445.766 183.886 447.713 186.028 449.133 188.822C450.554 191.603 451.264 194.936 451.264 198.818ZM445.831 198.818C445.831 195.859 445.351 193.367 444.393 191.343C443.446 189.307 442.144 187.768 440.486 186.727C438.841 185.673 436.977 185.146 434.893 185.146C432.798 185.146 430.928 185.673 429.282 186.727C427.637 187.768 426.335 189.307 425.376 191.343C424.429 193.367 423.956 195.859 423.956 198.818C423.956 201.777 424.429 204.275 425.376 206.311C426.335 208.335 427.637 209.874 429.282 210.928C430.928 211.969 432.798 212.49 434.893 212.49C436.977 212.49 438.841 211.969 440.486 210.928C442.144 209.874 443.446 208.335 444.393 206.311C445.351 204.275 445.831 201.777 445.831 198.818ZM481.489 180.636H486.993V204.553C486.993 207.098 486.395 209.353 485.2 211.318C484.004 213.271 482.323 214.81 480.157 215.935C477.991 217.047 475.452 217.604 472.54 217.604C469.64 217.604 467.107 217.047 464.94 215.935C462.774 214.81 461.093 213.271 459.898 211.318C458.702 209.353 458.104 207.098 458.104 204.553V180.636H463.591V204.109C463.591 205.755 463.952 207.217 464.674 208.495C465.408 209.773 466.444 210.78 467.781 211.513C469.119 212.236 470.705 212.597 472.54 212.597C474.386 212.597 475.978 212.236 477.316 211.513C478.665 210.78 479.695 209.773 480.406 208.495C481.128 207.217 481.489 205.755 481.489 204.109V180.636ZM494.97 217V180.636H507.931C510.76 180.636 513.104 181.151 514.963 182.181C516.821 183.211 518.212 184.62 519.135 186.407C520.058 188.183 520.52 190.183 520.52 192.408C520.52 194.646 520.052 196.658 519.117 198.445C518.194 200.221 516.797 201.629 514.927 202.671C513.069 203.701 510.731 204.216 507.914 204.216H499V199.564H507.416C509.204 199.564 510.654 199.256 511.767 198.641C512.879 198.013 513.696 197.161 514.217 196.084C514.738 195.007 514.998 193.781 514.998 192.408C514.998 191.035 514.738 189.816 514.217 188.751C513.696 187.685 512.873 186.851 511.749 186.247C510.636 185.643 509.168 185.342 507.345 185.342H500.456V217H494.97ZM546.785 190.189C546.596 188.508 545.815 187.206 544.441 186.283C543.068 185.348 541.34 184.88 539.257 184.88C537.765 184.88 536.475 185.117 535.386 185.59C534.297 186.052 533.451 186.691 532.847 187.508C532.255 188.313 531.959 189.23 531.959 190.26C531.959 191.124 532.16 191.87 532.563 192.497C532.977 193.125 533.516 193.651 534.179 194.077C534.853 194.492 535.575 194.841 536.345 195.125C537.114 195.397 537.854 195.622 538.564 195.8L542.115 196.723C543.275 197.007 544.465 197.392 545.684 197.877C546.904 198.362 548.034 199.002 549.076 199.795C550.117 200.588 550.958 201.57 551.597 202.742C552.248 203.914 552.574 205.317 552.574 206.95C552.574 209.01 552.041 210.839 550.975 212.437C549.922 214.035 548.389 215.295 546.377 216.219C544.376 217.142 541.956 217.604 539.115 217.604C536.392 217.604 534.037 217.172 532.048 216.308C530.059 215.443 528.503 214.218 527.378 212.632C526.254 211.034 525.632 209.14 525.514 206.95H531.018C531.125 208.264 531.551 209.359 532.297 210.235C533.054 211.099 534.019 211.744 535.191 212.17C536.374 212.585 537.671 212.792 539.079 212.792C540.63 212.792 542.009 212.549 543.216 212.064C544.435 211.567 545.394 210.88 546.093 210.004C546.791 209.116 547.14 208.081 547.14 206.897C547.14 205.82 546.833 204.938 546.217 204.251C545.613 203.565 544.791 202.997 543.749 202.547C542.719 202.097 541.553 201.701 540.251 201.357L535.954 200.185C533.042 199.392 530.734 198.226 529.029 196.688C527.337 195.149 526.49 193.113 526.49 190.58C526.49 188.484 527.059 186.656 528.195 185.093C529.331 183.531 530.87 182.317 532.811 181.453C534.753 180.577 536.943 180.139 539.381 180.139C541.843 180.139 544.015 180.571 545.897 181.435C547.791 182.299 549.283 183.489 550.372 185.004C551.461 186.508 552.029 188.236 552.076 190.189H546.785ZM603.95 198.818C603.95 202.701 603.239 206.039 601.819 208.832C600.398 211.614 598.451 213.757 595.977 215.26C593.515 216.751 590.716 217.497 587.579 217.497C584.43 217.497 581.619 216.751 579.145 215.26C576.683 213.757 574.741 211.608 573.321 208.815C571.901 206.021 571.19 202.689 571.19 198.818C571.19 194.936 571.901 191.603 573.321 188.822C574.741 186.028 576.683 183.886 579.145 182.394C581.619 180.891 584.43 180.139 587.579 180.139C590.716 180.139 593.515 180.891 595.977 182.394C598.451 183.886 600.398 186.028 601.819 188.822C603.239 191.603 603.95 194.936 603.95 198.818ZM598.516 198.818C598.516 195.859 598.037 193.367 597.078 191.343C596.131 189.307 594.829 187.768 593.172 186.727C591.527 185.673 589.662 185.146 587.579 185.146C585.484 185.146 583.613 185.673 581.968 186.727C580.323 187.768 579.021 189.307 578.062 191.343C577.115 193.367 576.641 195.859 576.641 198.818C576.641 201.777 577.115 204.275 578.062 206.311C579.021 208.335 580.323 209.874 581.968 210.928C583.613 211.969 585.484 212.49 587.579 212.49C589.662 212.49 591.527 211.969 593.172 210.928C594.829 209.874 596.131 208.335 597.078 206.311C598.037 204.275 598.516 201.777 598.516 198.818ZM610.79 217V180.636H623.752C626.569 180.636 628.907 181.122 630.765 182.092C632.635 183.063 634.032 184.406 634.955 186.123C635.879 187.827 636.34 189.798 636.34 192.036C636.34 194.261 635.873 196.22 634.938 197.913C634.014 199.594 632.618 200.902 630.747 201.837C628.889 202.772 626.551 203.239 623.734 203.239H613.915V198.516H623.237C625.012 198.516 626.456 198.262 627.569 197.753C628.694 197.244 629.516 196.504 630.037 195.533C630.558 194.563 630.818 193.397 630.818 192.036C630.818 190.662 630.552 189.473 630.019 188.467C629.499 187.46 628.676 186.691 627.551 186.158C626.439 185.614 624.977 185.342 623.166 185.342H616.276V217H610.79ZM628.741 200.594L637.725 217H631.475L622.669 200.594H628.741ZM115.828 251.189C115.639 249.508 114.857 248.206 113.484 247.283C112.111 246.348 110.383 245.88 108.3 245.88C106.808 245.88 105.518 246.117 104.429 246.59C103.34 247.052 102.494 247.691 101.89 248.508C101.298 249.313 101.002 250.23 101.002 251.26C101.002 252.124 101.203 252.87 101.606 253.497C102.02 254.125 102.559 254.651 103.222 255.077C103.896 255.492 104.618 255.841 105.388 256.125C106.157 256.397 106.897 256.622 107.607 256.8L111.158 257.723C112.318 258.007 113.508 258.392 114.727 258.877C115.946 259.362 117.077 260.002 118.119 260.795C119.16 261.588 120.001 262.57 120.64 263.742C121.291 264.914 121.616 266.317 121.616 267.95C121.616 270.01 121.084 271.839 120.018 273.437C118.965 275.035 117.432 276.295 115.42 277.219C113.419 278.142 110.999 278.604 108.158 278.604C105.435 278.604 103.08 278.172 101.091 277.308C99.1023 276.443 97.5457 275.218 96.4212 273.632C95.2966 272.034 94.6752 270.14 94.5568 267.95H100.061C100.168 269.264 100.594 270.359 101.339 271.235C102.097 272.099 103.062 272.744 104.234 273.17C105.417 273.585 106.714 273.792 108.122 273.792C109.673 273.792 111.052 273.549 112.259 273.064C113.478 272.567 114.437 271.88 115.136 271.004C115.834 270.116 116.183 269.081 116.183 267.897C116.183 266.82 115.875 265.938 115.26 265.251C114.656 264.565 113.834 263.997 112.792 263.547C111.762 263.097 110.596 262.701 109.294 262.357L104.997 261.185C102.085 260.392 99.777 259.226 98.0724 257.688C96.3797 256.149 95.5334 254.113 95.5334 251.58C95.5334 249.484 96.1016 247.656 97.2379 246.093C98.3743 244.531 99.9131 243.317 101.854 242.453C103.796 241.577 105.986 241.139 108.424 241.139C110.886 241.139 113.058 241.571 114.94 242.435C116.834 243.299 118.326 244.489 119.415 246.004C120.504 247.508 121.072 249.236 121.119 251.189H115.828ZM133.659 241.636V278H128.173V241.636H133.659ZM170.999 241.636V278H165.957L147.473 251.331H147.136V278H141.649V241.636H146.727L165.229 268.341H165.566V241.636H170.999ZM203.612 253.124C203.269 252.047 202.807 251.082 202.227 250.23C201.659 249.366 200.978 248.632 200.185 248.028C199.392 247.413 198.487 246.945 197.469 246.626C196.463 246.306 195.356 246.146 194.148 246.146C192.101 246.146 190.254 246.673 188.609 247.727C186.963 248.78 185.661 250.325 184.702 252.361C183.755 254.385 183.282 256.865 183.282 259.8C183.282 262.748 183.761 265.24 184.72 267.276C185.679 269.312 186.993 270.856 188.662 271.91C190.331 272.963 192.231 273.49 194.362 273.49C196.338 273.49 198.061 273.088 199.528 272.283C201.008 271.478 202.15 270.341 202.955 268.874C203.772 267.394 204.18 265.654 204.18 263.653L205.601 263.92H195.196V259.392H209.489V263.529C209.489 266.583 208.838 269.235 207.536 271.484C206.246 273.721 204.459 275.449 202.174 276.668C199.901 277.888 197.297 278.497 194.362 278.497C191.071 278.497 188.183 277.74 185.697 276.224C183.223 274.709 181.293 272.561 179.908 269.779C178.523 266.986 177.831 263.671 177.831 259.836C177.831 256.936 178.233 254.332 179.038 252.023C179.843 249.715 180.974 247.756 182.43 246.146C183.897 244.525 185.62 243.288 187.597 242.435C189.585 241.571 191.757 241.139 194.113 241.139C196.078 241.139 197.907 241.429 199.599 242.009C201.304 242.589 202.819 243.412 204.145 244.477C205.482 245.543 206.589 246.809 207.465 248.277C208.341 249.733 208.933 251.349 209.241 253.124H203.612ZM216.454 278V241.636H221.941V273.277H238.418V278H216.454ZM244.677 278V241.636H267.475V246.359H250.163V257.439H266.285V262.144H250.163V273.277H267.688V278H244.677ZM291.108 278H285.284L298.37 241.636H304.709L317.795 278H311.971L301.69 248.241H301.406L291.108 278ZM292.084 263.76H310.976V268.376H292.084V263.76ZM316.956 246.359V241.636H345.098V246.359H333.752V278H328.284V246.359H316.956ZM361.744 241.636H367.977L377.476 258.167H377.866L387.366 241.636H393.598L380.406 263.724V278H374.937V263.724L361.744 241.636ZM428.51 259.818C428.51 263.701 427.8 267.039 426.379 269.832C424.959 272.614 423.012 274.757 420.538 276.26C418.076 277.751 415.276 278.497 412.139 278.497C408.991 278.497 406.179 277.751 403.705 276.26C401.243 274.757 399.302 272.608 397.882 269.815C396.461 267.021 395.751 263.689 395.751 259.818C395.751 255.936 396.461 252.603 397.882 249.822C399.302 247.028 401.243 244.886 403.705 243.394C406.179 241.891 408.991 241.139 412.139 241.139C415.276 241.139 418.076 241.891 420.538 243.394C423.012 244.886 424.959 247.028 426.379 249.822C427.8 252.603 428.51 255.936 428.51 259.818ZM423.077 259.818C423.077 256.859 422.597 254.367 421.639 252.343C420.692 250.307 419.39 248.768 417.732 247.727C416.087 246.673 414.223 246.146 412.139 246.146C410.044 246.146 408.174 246.673 406.529 247.727C404.883 248.768 403.581 250.307 402.622 252.343C401.675 254.367 401.202 256.859 401.202 259.818C401.202 262.777 401.675 265.275 402.622 267.311C403.581 269.335 404.883 270.874 406.529 271.928C408.174 272.969 410.044 273.49 412.139 273.49C414.223 273.49 416.087 272.969 417.732 271.928C419.39 270.874 420.692 269.335 421.639 267.311C422.597 265.275 423.077 262.777 423.077 259.818ZM458.735 241.636H464.239V265.553C464.239 268.098 463.641 270.353 462.446 272.318C461.25 274.271 459.569 275.81 457.403 276.935C455.237 278.047 452.698 278.604 449.786 278.604C446.886 278.604 444.353 278.047 442.186 276.935C440.02 275.81 438.339 274.271 437.144 272.318C435.948 270.353 435.35 268.098 435.35 265.553V241.636H440.837V265.109C440.837 266.755 441.198 268.217 441.92 269.495C442.654 270.773 443.69 271.78 445.027 272.513C446.365 273.236 447.951 273.597 449.786 273.597C451.632 273.597 453.225 273.236 454.562 272.513C455.912 271.78 456.941 270.773 457.652 269.495C458.374 268.217 458.735 266.755 458.735 265.109V241.636ZM472.216 278V241.636H485.177C487.995 241.636 490.332 242.122 492.191 243.092C494.061 244.063 495.458 245.406 496.381 247.123C497.305 248.827 497.766 250.798 497.766 253.036C497.766 255.261 497.299 257.22 496.363 258.913C495.44 260.594 494.043 261.902 492.173 262.837C490.315 263.772 487.977 264.239 485.16 264.239H475.341V259.516H484.662C486.438 259.516 487.882 259.262 488.995 258.753C490.119 258.244 490.942 257.504 491.463 256.533C491.984 255.563 492.244 254.397 492.244 253.036C492.244 251.662 491.978 250.473 491.445 249.467C490.924 248.46 490.102 247.691 488.977 247.158C487.864 246.614 486.403 246.342 484.591 246.342H477.702V278H472.216ZM490.167 261.594L499.151 278H492.901L484.094 261.594H490.167ZM549.262 259.818C549.262 263.701 548.552 267.039 547.131 269.832C545.711 272.614 543.764 274.757 541.29 276.26C538.828 277.751 536.028 278.497 532.891 278.497C529.743 278.497 526.931 277.751 524.457 276.26C521.995 274.757 520.054 272.608 518.634 269.815C517.213 267.021 516.503 263.689 516.503 259.818C516.503 255.936 517.213 252.603 518.634 249.822C520.054 247.028 521.995 244.886 524.457 243.394C526.931 241.891 529.743 241.139 532.891 241.139C536.028 241.139 538.828 241.891 541.29 243.394C543.764 244.886 545.711 247.028 547.131 249.822C548.552 252.603 549.262 255.936 549.262 259.818ZM543.829 259.818C543.829 256.859 543.349 254.367 542.391 252.343C541.444 250.307 540.142 248.768 538.484 247.727C536.839 246.673 534.975 246.146 532.891 246.146C530.796 246.146 528.926 246.673 527.281 247.727C525.635 248.768 524.333 250.307 523.374 252.343C522.427 254.367 521.954 256.859 521.954 259.818C521.954 262.777 522.427 265.275 523.374 267.311C524.333 269.335 525.635 270.874 527.281 271.928C528.926 272.969 530.796 273.49 532.891 273.49C534.975 273.49 536.839 272.969 538.484 271.928C540.142 270.874 541.444 269.335 542.391 267.311C543.349 265.275 543.829 262.777 543.829 259.818ZM562.783 278L552.698 241.636H558.468L565.553 269.797H565.89L573.259 241.636H578.976L586.345 269.815H586.682L593.749 241.636H599.537L589.434 278H583.912L576.26 250.763H575.975L568.323 278H562.783ZM633.89 241.636V278H628.847L610.364 251.331H610.026V278H604.54V241.636H609.618L628.119 268.341H628.457V241.636H633.89ZM655.126 278V241.636H668.088C670.917 241.636 673.26 242.151 675.119 243.181C676.977 244.211 678.368 245.62 679.291 247.407C680.215 249.183 680.676 251.183 680.676 253.408C680.676 255.646 680.209 257.658 679.274 259.445C678.35 261.221 676.954 262.629 675.083 263.671C673.225 264.701 670.887 265.216 668.07 265.216H659.156V260.564H667.573C669.36 260.564 670.81 260.256 671.923 259.641C673.035 259.013 673.852 258.161 674.373 257.084C674.894 256.007 675.154 254.781 675.154 253.408C675.154 252.035 674.894 250.816 674.373 249.751C673.852 248.685 673.03 247.851 671.905 247.247C670.792 246.643 669.325 246.342 667.502 246.342H660.612V278H655.126ZM686.323 278H680.499L693.585 241.636H699.923L713.009 278H707.186L696.905 248.241H696.621L686.323 278ZM687.299 263.76H706.191V268.376H687.299V263.76ZM746.754 253.462H741.214C741.001 252.278 740.605 251.236 740.025 250.337C739.445 249.437 738.734 248.674 737.894 248.046C737.054 247.419 736.113 246.945 735.071 246.626C734.041 246.306 732.946 246.146 731.786 246.146C729.691 246.146 727.815 246.673 726.157 247.727C724.512 248.78 723.21 250.325 722.251 252.361C721.304 254.397 720.831 256.883 720.831 259.818C720.831 262.777 721.304 265.275 722.251 267.311C723.21 269.347 724.518 270.886 726.175 271.928C727.832 272.969 729.697 273.49 731.768 273.49C732.916 273.49 734.006 273.336 735.035 273.028C736.077 272.709 737.018 272.241 737.858 271.626C738.699 271.01 739.409 270.259 739.989 269.371C740.581 268.471 740.989 267.441 741.214 266.281L746.754 266.299C746.458 268.086 745.884 269.732 745.032 271.235C744.191 272.727 743.108 274.017 741.782 275.106C740.469 276.183 738.965 277.018 737.273 277.609C735.58 278.201 733.733 278.497 731.733 278.497C728.584 278.497 725.779 277.751 723.317 276.26C720.854 274.757 718.913 272.608 717.493 269.815C716.084 267.021 715.38 263.689 715.38 259.818C715.38 255.936 716.09 252.603 717.51 249.822C718.931 247.028 720.872 244.886 723.334 243.394C725.796 241.891 728.596 241.139 731.733 241.139C733.662 241.139 735.461 241.417 737.131 241.974C738.811 242.518 740.321 243.323 741.658 244.388C742.996 245.442 744.103 246.732 744.979 248.259C745.854 249.774 746.446 251.509 746.754 253.462ZM753.319 278V241.636H776.118V246.359H758.806V257.439H774.928V262.144H758.806V273.277H776.331V278H753.319Z" fill="black"/>
<path d="M929.797 207.975C896.842 207.985 870 181.217 870 148.362C870 114.862 896.575 87.9851 929.678 88C963.287 88.0149 989.995 114.629 990 148.119C990 181.321 963.197 207.97 929.797 207.98V207.975ZM986.599 148.045C986.555 116.686 961.254 91.3956 929.876 91.3906C898.3 91.3807 873.063 117.445 873.371 148.877C873.663 179.358 899.197 204.684 930.03 204.609C961.254 204.53 986.649 179.145 986.604 148.045H986.599Z" fill="black"/>
<path d="M929.936 197.591C902.514 197.551 880.321 175.383 880.391 148.105C880.46 120.212 902.554 98.3313 930.586 98.3907C957.572 98.4502 979.73 120.955 979.636 148.194C979.537 175.527 957.299 197.631 929.936 197.591ZM976.21 148.04C976.101 122.16 955.411 101.717 929.401 101.791C904.17 101.866 883.707 122.819 883.816 148.472C883.925 173.852 904.859 194.295 930.64 194.2C955.5 194.106 976.319 173.024 976.215 148.04H976.21Z" fill="black"/>
<path d="M929.95 187.198C908.238 187.079 890.655 169.522 890.774 148.087C890.893 126.152 908.416 108.659 930.138 108.778C951.865 108.902 969.348 126.574 969.209 148.271C969.07 169.789 951.394 187.312 929.954 187.193L929.95 187.198ZM965.819 148.271C966.022 128.7 950.04 112.362 930.495 112.159C910.776 111.95 894.427 127.892 894.194 147.562C893.961 167.266 909.819 183.639 929.315 183.818C949.416 184.001 965.615 168.228 965.819 148.271Z" fill="black"/>
<path d="M901.188 148.036C901.222 132.104 914.15 119.131 929.948 119.176C945.945 119.221 958.858 132.129 958.838 148.056C958.818 163.903 945.736 176.856 929.795 176.811C914.091 176.767 901.158 163.755 901.192 148.036H901.188ZM929.988 122.567C916.014 122.542 904.667 133.913 904.578 148.026C904.494 161.925 915.979 173.376 930.047 173.421C943.823 173.465 955.403 161.93 955.418 148.15C955.432 134.067 944.026 122.591 929.988 122.567Z" fill="black"/>
<path d="M911.57 148.108C911.56 138.04 919.878 129.568 929.773 129.578C940.029 129.588 948.456 137.931 948.451 148.063C948.441 157.977 939.979 166.394 930.001 166.419C919.997 166.439 911.58 158.081 911.57 148.108ZM914.986 147.964C914.827 155.96 921.45 162.845 929.46 163.023C937.867 163.207 944.847 156.698 945.015 148.519C945.189 140.052 938.7 133.152 930.387 132.964C921.871 132.77 915.159 139.309 914.986 147.964Z" fill="black"/>
<path d="M929.959 139.984C934.584 139.989 938.123 143.563 938.059 148.159C937.999 152.541 934.43 156.015 929.998 156.015C925.458 156.015 921.953 152.55 921.953 148.074C921.953 143.434 925.373 139.979 929.959 139.984ZM934.628 147.985C934.594 145.467 932.442 143.335 929.939 143.35C927.421 143.365 925.364 145.487 925.373 148.064C925.383 150.548 927.485 152.64 929.959 152.625C932.487 152.61 934.658 150.454 934.628 147.985Z" fill="black"/>
<path d="M934.63 147.986C934.66 150.455 932.488 152.611 929.96 152.626C927.492 152.641 925.385 150.544 925.375 148.066C925.365 145.488 927.422 143.367 929.94 143.352C932.439 143.337 934.595 145.468 934.63 147.986Z" fill="black"/>
</svg>
