<svg width="1088" height="1088" viewBox="0 0 1088 1088" fill="none" xmlns="http://www.w3.org/2000/svg">
<rect x="5" y="5" width="1078" height="1078" fill="#444AE7" stroke="#FAF6EF" stroke-width="10"/>
<path d="M258.726 513.182V695H233.513L141.094 561.655H139.408V695H111.975V513.182H137.366L229.873 646.705H231.56V513.182H258.726ZM296.612 695V558.636H323.157V695H296.612ZM310.018 537.596C305.401 537.596 301.436 536.057 298.121 532.979C294.866 529.843 293.238 526.114 293.238 521.793C293.238 517.414 294.866 513.685 298.121 510.607C301.436 507.47 305.401 505.902 310.018 505.902C314.634 505.902 318.57 507.47 321.825 510.607C325.14 513.685 326.797 517.414 326.797 521.793C326.797 526.114 325.14 529.843 321.825 532.979C318.57 536.057 314.634 537.596 310.018 537.596ZM416.041 748.977C405.21 748.977 395.888 747.557 388.076 744.716C380.323 741.875 373.99 738.117 369.077 733.441C364.165 728.765 360.496 723.646 358.069 718.082L380.885 708.672C382.483 711.276 384.614 714.028 387.277 716.928C390 719.888 393.669 722.403 398.286 724.474C402.961 726.546 408.969 727.582 416.308 727.582C426.369 727.582 434.685 725.125 441.254 720.213C447.824 715.36 451.109 707.607 451.109 696.953V670.142H449.422C447.824 673.042 445.516 676.268 442.497 679.819C439.538 683.37 435.454 686.448 430.246 689.052C425.037 691.656 418.261 692.958 409.915 692.958C399.144 692.958 389.437 690.443 380.796 685.412C372.214 680.322 365.408 672.835 360.377 662.951C355.406 653.008 352.92 640.786 352.92 626.286C352.92 611.785 355.376 599.356 360.288 588.999C365.26 578.641 372.066 570.71 380.707 565.206C389.348 559.643 399.144 556.861 410.093 556.861C418.557 556.861 425.393 558.281 430.601 561.122C435.809 563.904 439.863 567.159 442.763 570.888C445.723 574.616 448.001 577.901 449.599 580.742H451.553V558.636H477.565V698.018C477.565 709.737 474.842 719.355 469.397 726.871C463.952 734.388 456.583 739.951 447.291 743.562C438.058 747.172 427.642 748.977 416.041 748.977ZM415.775 670.941C423.41 670.941 429.861 669.165 435.129 665.614C440.455 662.004 444.48 656.855 447.202 650.167C449.984 643.42 451.375 635.341 451.375 625.93C451.375 616.757 450.014 608.678 447.291 601.694C444.569 594.71 440.574 589.265 435.306 585.359C430.039 581.393 423.528 579.411 415.775 579.411C407.785 579.411 401.126 581.482 395.8 585.625C390.473 589.709 386.448 595.272 383.726 602.315C381.063 609.358 379.731 617.23 379.731 625.93C379.731 634.867 381.092 642.71 383.815 649.457C386.537 656.204 390.562 661.471 395.888 665.259C401.274 669.047 407.903 670.941 415.775 670.941ZM539.71 614.034V695H513.165V513.182H539.354V580.831H541.041C544.237 573.492 549.12 567.662 555.69 563.342C562.259 559.021 570.841 556.861 581.435 556.861C590.787 556.861 598.954 558.784 605.938 562.631C612.981 566.478 618.426 572.219 622.273 579.854C626.18 587.43 628.133 596.9 628.133 608.263V695H601.588V611.46C601.588 601.457 599.013 593.704 593.864 588.2C588.715 582.636 581.554 579.854 572.38 579.854C566.106 579.854 560.484 581.186 555.512 583.849C550.6 586.513 546.723 590.419 543.882 595.568C541.1 600.658 539.71 606.813 539.71 614.034ZM727.21 558.636V579.943H652.724V558.636H727.21ZM672.7 525.966H699.244V654.961C699.244 660.11 700.014 663.987 701.553 666.591C703.091 669.136 705.074 670.882 707.501 671.829C709.987 672.717 712.679 673.161 715.58 673.161C717.71 673.161 719.575 673.013 721.173 672.717C722.771 672.421 724.013 672.184 724.901 672.006L729.695 693.935C728.156 694.527 725.967 695.118 723.126 695.71C720.285 696.361 716.734 696.716 712.472 696.776C705.488 696.894 698.978 695.651 692.941 693.047C686.904 690.443 682.021 686.418 678.293 680.973C674.564 675.528 672.7 668.692 672.7 660.465V525.966ZM111.975 757.182H145.267L203.151 898.517H205.281L263.165 757.182H296.457V939H270.356V807.43H268.669L215.047 938.734H193.385L139.763 807.342H138.076V939H111.975V757.182ZM391.649 941.752C378.865 941.752 367.709 938.822 358.18 932.963C348.651 927.104 341.253 918.906 335.985 908.371C330.718 897.836 328.084 885.526 328.084 871.44C328.084 857.294 330.718 844.924 335.985 834.33C341.253 823.736 348.651 815.509 358.18 809.65C367.709 803.79 378.865 800.861 391.649 800.861C404.433 800.861 415.59 803.79 425.119 809.65C434.648 815.509 442.046 823.736 447.313 834.33C452.581 844.924 455.215 857.294 455.215 871.44C455.215 885.526 452.581 897.836 447.313 908.371C442.046 918.906 434.648 927.104 425.119 932.963C415.59 938.822 404.433 941.752 391.649 941.752ZM391.738 919.469C400.024 919.469 406.89 917.279 412.335 912.899C417.78 908.519 421.804 902.69 424.409 895.41C427.072 888.13 428.404 880.11 428.404 871.351C428.404 862.651 427.072 854.661 424.409 847.381C421.804 840.042 417.78 834.153 412.335 829.714C406.89 825.275 400.024 823.055 391.738 823.055C383.393 823.055 376.468 825.275 370.964 829.714C365.519 834.153 361.465 840.042 358.801 847.381C356.197 854.661 354.895 862.651 354.895 871.351C354.895 880.11 356.197 888.13 358.801 895.41C361.465 902.69 365.519 908.519 370.964 912.899C376.468 917.279 383.393 919.469 391.738 919.469ZM596.861 802.636L547.411 939H519.002L469.464 802.636H497.961L532.496 907.572H533.917L568.363 802.636H596.861ZM675.94 941.752C662.505 941.752 650.934 938.882 641.228 933.141C631.58 927.34 624.123 919.202 618.855 908.727C613.647 898.192 611.043 885.851 611.043 871.706C611.043 857.738 613.647 845.428 618.855 834.774C624.123 824.121 631.462 815.805 640.873 809.827C650.342 803.85 661.41 800.861 674.076 800.861C681.77 800.861 689.227 802.133 696.448 804.678C703.668 807.223 710.149 811.218 715.89 816.663C721.631 822.108 726.159 829.181 729.473 837.881C732.788 846.522 734.445 857.028 734.445 869.398V878.808H626.047V858.922H708.433C708.433 851.938 707.012 845.753 704.172 840.367C701.331 834.922 697.336 830.631 692.186 827.494C687.096 824.357 681.119 822.789 674.253 822.789C666.796 822.789 660.285 824.624 654.722 828.293C649.218 831.904 644.956 836.638 641.938 842.498C638.979 848.298 637.499 854.601 637.499 861.408V876.944C637.499 886.058 639.097 893.812 642.293 900.204C645.548 906.596 650.076 911.479 655.876 914.852C661.676 918.167 668.453 919.824 676.206 919.824C681.237 919.824 685.824 919.114 689.967 917.693C694.11 916.214 697.691 914.024 700.709 911.124C703.728 908.223 706.036 904.643 707.634 900.381L732.758 904.909C730.746 912.307 727.136 918.788 721.927 924.352C716.778 929.856 710.297 934.147 702.485 937.224C694.731 940.243 685.883 941.752 675.94 941.752ZM866.081 835.928L842.022 840.19C841.016 837.112 839.418 834.182 837.228 831.401C835.097 828.619 832.197 826.34 828.528 824.565C824.858 822.789 820.271 821.901 814.767 821.901C807.251 821.901 800.977 823.588 795.946 826.962C790.915 830.276 788.4 834.567 788.4 839.835C788.4 844.392 790.087 848.061 793.46 850.843C796.834 853.625 802.279 855.903 809.796 857.679L831.458 862.651C844.005 865.551 853.356 870.019 859.512 876.056C865.667 882.093 868.744 889.935 868.744 899.582C868.744 907.75 866.377 915.03 861.642 921.422C856.967 927.755 850.427 932.726 842.022 936.337C833.677 939.947 824 941.752 812.992 941.752C797.722 941.752 785.263 938.497 775.616 931.987C765.969 925.417 760.05 916.095 757.86 904.021L783.517 900.115C785.115 906.803 788.4 911.863 793.372 915.296C798.343 918.67 804.824 920.357 812.814 920.357C821.514 920.357 828.469 918.551 833.677 914.941C838.885 911.272 841.49 906.803 841.49 901.536C841.49 897.274 839.892 893.693 836.695 890.793C833.559 887.893 828.735 885.703 822.225 884.224L799.142 879.163C786.417 876.263 777.007 871.647 770.911 865.314C764.874 858.981 761.855 850.961 761.855 841.255C761.855 833.206 764.104 826.163 768.602 820.126C773.101 814.089 779.315 809.384 787.246 806.01C795.177 802.577 804.262 800.861 814.501 800.861C829.238 800.861 840.838 804.057 849.302 810.449C857.766 816.782 863.359 825.275 866.081 835.928Z" fill="black"/>
<path d="M108.051 137H95.1605V100.636H108.158C111.815 100.636 114.964 101.364 117.604 102.82C120.243 104.264 122.273 106.342 123.694 109.053C125.126 111.763 125.842 115.007 125.842 118.783C125.842 122.571 125.126 125.826 123.694 128.548C122.273 131.271 120.232 133.36 117.568 134.816C114.917 136.272 111.744 137 108.051 137ZM102.849 130.413H107.732C110.004 130.413 111.916 130.01 113.467 129.205C115.029 128.388 116.201 127.128 116.982 125.423C117.775 123.707 118.172 121.493 118.172 118.783C118.172 116.096 117.775 113.9 116.982 112.195C116.201 110.491 115.035 109.236 113.484 108.431C111.934 107.626 110.022 107.224 107.749 107.224H102.849V130.413ZM131.537 137V100.636H145.884C148.63 100.636 150.974 101.128 152.915 102.11C154.868 103.081 156.354 104.46 157.372 106.247C158.402 108.023 158.917 110.112 158.917 112.515C158.917 114.93 158.396 117.007 157.354 118.747C156.313 120.475 154.803 121.801 152.827 122.724C150.862 123.648 148.482 124.109 145.689 124.109H136.083V117.93H144.446C145.914 117.93 147.133 117.729 148.104 117.327C149.074 116.924 149.796 116.321 150.27 115.516C150.755 114.711 150.998 113.71 150.998 112.515C150.998 111.308 150.755 110.29 150.27 109.461C149.796 108.632 149.068 108.005 148.086 107.579C147.115 107.141 145.89 106.922 144.41 106.922H139.226V137H131.537ZM151.175 120.452L160.213 137H151.726L142.883 120.452H151.175ZM197.766 118.818C197.766 122.784 197.015 126.157 195.511 128.939C194.02 131.721 191.984 133.845 189.403 135.313C186.835 136.769 183.946 137.497 180.738 137.497C177.507 137.497 174.607 136.763 172.038 135.295C169.47 133.828 167.439 131.703 165.948 128.921C164.456 126.139 163.711 122.772 163.711 118.818C163.711 114.853 164.456 111.479 165.948 108.697C167.439 105.916 169.47 103.797 172.038 102.341C174.607 100.873 177.507 100.139 180.738 100.139C183.946 100.139 186.835 100.873 189.403 102.341C191.984 103.797 194.02 105.916 195.511 108.697C197.015 111.479 197.766 114.853 197.766 118.818ZM189.971 118.818C189.971 116.25 189.587 114.083 188.817 112.32C188.06 110.556 186.988 109.218 185.604 108.307C184.219 107.395 182.597 106.94 180.738 106.94C178.88 106.94 177.258 107.395 175.873 108.307C174.488 109.218 173.411 110.556 172.642 112.32C171.884 114.083 171.506 116.25 171.506 118.818C171.506 121.387 171.884 123.553 172.642 125.317C173.411 127.08 174.488 128.418 175.873 129.33C177.258 130.241 178.88 130.697 180.738 130.697C182.597 130.697 184.219 130.241 185.604 129.33C186.988 128.418 188.06 127.08 188.817 125.317C189.587 123.553 189.971 121.387 189.971 118.818ZM203.461 137V100.636H217.808C220.566 100.636 222.916 101.163 224.857 102.217C226.798 103.258 228.278 104.708 229.296 106.567C230.326 108.413 230.841 110.544 230.841 112.959C230.841 115.374 230.32 117.504 229.278 119.351C228.236 121.197 226.727 122.636 224.75 123.665C222.785 124.695 220.406 125.21 217.613 125.21H208.468V119.049H216.37C217.849 119.049 219.069 118.795 220.027 118.286C220.998 117.765 221.72 117.049 222.194 116.137C222.679 115.214 222.922 114.154 222.922 112.959C222.922 111.751 222.679 110.698 222.194 109.798C221.72 108.887 220.998 108.183 220.027 107.685C219.057 107.176 217.826 106.922 216.334 106.922H211.15V137H203.461ZM257.674 115.817V121.819H232.674V115.817H257.674ZM268.523 100.636V137H260.834V100.636H268.523ZM305.263 100.636V137H298.623L282.803 114.113H282.536V137H274.848V100.636H281.595L297.291 123.506H297.611V100.636H305.263ZM323.188 137V100.636H337.534C340.281 100.636 342.624 101.128 344.566 102.11C346.519 103.081 348.004 104.46 349.022 106.247C350.052 108.023 350.567 110.112 350.567 112.515C350.567 114.93 350.046 117.007 349.005 118.747C347.963 120.475 346.454 121.801 344.477 122.724C342.512 123.648 340.133 124.109 337.339 124.109H327.733V117.93H336.096C337.564 117.93 338.783 117.729 339.754 117.327C340.725 116.924 341.447 116.321 341.92 115.516C342.405 114.711 342.648 113.71 342.648 112.515C342.648 111.308 342.405 110.29 341.92 109.461C341.447 108.632 340.719 108.005 339.736 107.579C338.766 107.141 337.54 106.922 336.061 106.922H330.876V137H323.188ZM342.826 120.452L351.863 137H343.376L334.534 120.452H342.826ZM362.268 137H354.029L366.583 100.636H376.49L389.026 137H380.787L371.679 108.946H371.395L362.268 137ZM361.753 122.707H381.213V128.708H361.753V122.707ZM423.778 113.367H416.001C415.859 112.361 415.569 111.467 415.131 110.686C414.693 109.893 414.131 109.218 413.444 108.662C412.758 108.106 411.965 107.679 411.065 107.384C410.177 107.088 409.213 106.94 408.171 106.94C406.289 106.94 404.649 107.407 403.253 108.342C401.856 109.266 400.773 110.615 400.003 112.391C399.234 114.154 398.849 116.297 398.849 118.818C398.849 121.411 399.234 123.589 400.003 125.352C400.785 127.116 401.874 128.448 403.27 129.347C404.667 130.247 406.283 130.697 408.118 130.697C409.148 130.697 410.1 130.561 410.976 130.288C411.864 130.016 412.651 129.62 413.338 129.099C414.024 128.566 414.593 127.921 415.042 127.163C415.504 126.406 415.824 125.542 416.001 124.571L423.778 124.607C423.577 126.276 423.074 127.885 422.269 129.436C421.476 130.975 420.405 132.354 419.055 133.573C417.718 134.781 416.12 135.739 414.261 136.45C412.415 137.148 410.325 137.497 407.993 137.497C404.75 137.497 401.85 136.763 399.293 135.295C396.748 133.828 394.736 131.703 393.256 128.921C391.788 126.139 391.055 122.772 391.055 118.818C391.055 114.853 391.8 111.479 393.292 108.697C394.783 105.916 396.807 103.797 399.364 102.341C401.921 100.873 404.797 100.139 407.993 100.139C410.1 100.139 412.054 100.435 413.853 101.027C415.664 101.619 417.268 102.483 418.665 103.619C420.061 104.744 421.198 106.123 422.074 107.756C422.961 109.39 423.53 111.26 423.778 113.367ZM429.291 137V100.636H453.794V106.975H436.98V115.64H452.534V121.979H436.98V130.661H453.865V137H429.291Z" fill="black"/>
<path d="M126.197 188.462H120.658C120.445 187.278 120.048 186.236 119.468 185.337C118.888 184.437 118.178 183.674 117.337 183.046C116.497 182.419 115.556 181.945 114.514 181.626C113.484 181.306 112.389 181.146 111.229 181.146C109.134 181.146 107.258 181.673 105.601 182.727C103.955 183.78 102.653 185.325 101.695 187.361C100.748 189.397 100.274 191.883 100.274 194.818C100.274 197.777 100.748 200.275 101.695 202.311C102.653 204.347 103.961 205.886 105.619 206.928C107.276 207.969 109.14 208.49 111.212 208.49C112.36 208.49 113.449 208.336 114.479 208.028C115.52 207.709 116.461 207.241 117.302 206.626C118.142 206.01 118.853 205.259 119.433 204.371C120.024 203.471 120.433 202.441 120.658 201.281L126.197 201.299C125.902 203.086 125.327 204.732 124.475 206.235C123.635 207.727 122.552 209.017 121.226 210.106C119.912 211.183 118.409 212.018 116.716 212.609C115.023 213.201 113.177 213.497 111.176 213.497C108.027 213.497 105.222 212.751 102.76 211.26C100.298 209.757 98.3565 207.608 96.9361 204.815C95.5275 202.021 94.8232 198.689 94.8232 194.818C94.8232 190.936 95.5334 187.603 96.9538 184.822C98.3743 182.028 100.316 179.886 102.778 178.394C105.24 176.891 108.039 176.139 111.176 176.139C113.106 176.139 114.905 176.417 116.574 176.974C118.255 177.518 119.764 178.323 121.102 179.388C122.439 180.442 123.546 181.732 124.422 183.259C125.298 184.774 125.89 186.509 126.197 188.462ZM164.35 194.818C164.35 198.701 163.64 202.039 162.219 204.832C160.799 207.614 158.852 209.757 156.378 211.26C153.916 212.751 151.116 213.497 147.979 213.497C144.831 213.497 142.019 212.751 139.545 211.26C137.083 209.757 135.142 207.608 133.721 204.815C132.301 202.021 131.591 198.689 131.591 194.818C131.591 190.936 132.301 187.603 133.721 184.822C135.142 182.028 137.083 179.886 139.545 178.394C142.019 176.891 144.831 176.139 147.979 176.139C151.116 176.139 153.916 176.891 156.378 178.394C158.852 179.886 160.799 182.028 162.219 184.822C163.64 187.603 164.35 190.936 164.35 194.818ZM158.917 194.818C158.917 191.859 158.437 189.367 157.479 187.343C156.532 185.307 155.229 183.768 153.572 182.727C151.927 181.673 150.063 181.146 147.979 181.146C145.884 181.146 144.014 181.673 142.368 182.727C140.723 183.768 139.421 185.307 138.462 187.343C137.515 189.367 137.042 191.859 137.042 194.818C137.042 197.777 137.515 200.275 138.462 202.311C139.421 204.335 140.723 205.874 142.368 206.928C144.014 207.969 145.884 208.49 147.979 208.49C150.063 208.49 151.927 207.969 153.572 206.928C155.229 205.874 156.532 204.335 157.479 202.311C158.437 200.275 158.917 197.777 158.917 194.818ZM171.19 176.636H177.849L189.425 204.903H189.852L201.428 176.636H208.087V213H202.866V186.686H202.529L191.805 212.947H187.472L176.748 186.668H176.411V213H171.19V176.636ZM216.063 213V176.636H229.025C231.854 176.636 234.198 177.151 236.056 178.181C237.915 179.211 239.306 180.62 240.229 182.407C241.152 184.183 241.614 186.183 241.614 188.408C241.614 190.646 241.146 192.658 240.211 194.445C239.288 196.221 237.891 197.629 236.021 198.671C234.162 199.701 231.825 200.216 229.007 200.216H220.094V195.564H228.51C230.298 195.564 231.748 195.256 232.86 194.641C233.973 194.013 234.79 193.161 235.311 192.084C235.831 191.007 236.092 189.781 236.092 188.408C236.092 187.035 235.831 185.816 235.311 184.751C234.79 183.685 233.967 182.851 232.843 182.247C231.73 181.643 230.262 181.342 228.439 181.342H221.55V213H216.063ZM248.046 213V176.636H270.844V181.359H253.532V192.439H269.654V197.144H253.532V208.277H271.057V213H248.046ZM276.379 181.359V176.636H304.522V181.359H293.176V213H287.708V181.359H276.379ZM316.228 176.636V213H310.741V176.636H316.228ZM322.424 181.359V176.636H350.567V181.359H339.221V213H333.752V181.359H322.424ZM362.273 176.636V213H356.786V176.636H362.273ZM373.441 176.636L383.562 206.253H383.97L394.091 176.636H400.021L386.935 213H380.596L367.51 176.636H373.441ZM405.272 213V176.636H428.071V181.359H410.759V192.439H426.881V197.144H410.759V208.277H428.284V213H405.272ZM448.632 213V176.636H454.118V192.439H472.247V176.636H477.751V213H472.247V197.144H454.118V213H448.632ZM509.125 176.636H514.63V200.553C514.63 203.098 514.032 205.353 512.836 207.318C511.641 209.271 509.96 210.81 507.794 211.935C505.627 213.047 503.088 213.604 500.176 213.604C497.276 213.604 494.743 213.047 492.577 211.935C490.411 210.81 488.73 209.271 487.534 207.318C486.339 205.353 485.741 203.098 485.741 200.553V176.636H491.228V200.109C491.228 201.755 491.589 203.217 492.311 204.495C493.045 205.773 494.08 206.78 495.418 207.513C496.756 208.236 498.342 208.597 500.176 208.597C502.023 208.597 503.615 208.236 504.953 207.513C506.302 206.78 507.332 205.773 508.042 204.495C508.764 203.217 509.125 201.755 509.125 200.109V176.636ZM522.606 176.636H529.265L540.841 204.903H541.268L552.844 176.636H559.503V213H554.282V186.686H553.945L543.221 212.947H538.888L528.164 186.668H527.827V213H522.606V176.636ZM570.551 213H564.727L577.813 176.636H584.152L597.238 213H591.414L581.134 183.241H580.849L570.551 213ZM571.528 198.76H590.42V203.376H571.528V198.76ZM631.839 176.636V213H626.797L608.313 186.331H607.976V213H602.489V176.636H607.567L626.069 203.341H626.406V176.636H631.839ZM655.485 192.51V197.126H639.363V192.51H655.485ZM658.215 181.359V176.636H686.358V181.359H675.012V213H669.544V181.359H658.215ZM722.602 194.818C722.602 198.701 721.892 202.039 720.471 204.832C719.051 207.614 717.104 209.757 714.63 211.26C712.167 212.751 709.368 213.497 706.231 213.497C703.083 213.497 700.271 212.751 697.797 211.26C695.335 209.757 693.394 207.608 691.973 204.815C690.553 202.021 689.843 198.689 689.843 194.818C689.843 190.936 690.553 187.603 691.973 184.822C693.394 182.028 695.335 179.886 697.797 178.394C700.271 176.891 703.083 176.139 706.231 176.139C709.368 176.139 712.167 176.891 714.63 178.394C717.104 179.886 719.051 182.028 720.471 184.822C721.892 187.603 722.602 190.936 722.602 194.818ZM717.169 194.818C717.169 191.859 716.689 189.367 715.73 187.343C714.783 185.307 713.481 183.768 711.824 182.727C710.179 181.673 708.315 181.146 706.231 181.146C704.136 181.146 702.266 181.673 700.62 182.727C698.975 183.768 697.673 185.307 696.714 187.343C695.767 189.367 695.294 191.859 695.294 194.818C695.294 197.777 695.767 200.275 696.714 202.311C697.673 204.335 698.975 205.874 700.62 206.928C702.266 207.969 704.136 208.49 706.231 208.49C708.315 208.49 710.179 207.969 711.824 206.928C713.481 205.874 714.783 204.335 715.73 202.311C716.689 200.275 717.169 197.777 717.169 194.818ZM745.085 192.51V197.126H728.963V192.51H745.085ZM95.995 274V237.636H101.482V253.439H119.61V237.636H125.114V274H119.61V258.144H101.482V274H95.995ZM156.489 237.636H161.993V261.553C161.993 264.098 161.395 266.353 160.2 268.318C159.004 270.271 157.323 271.81 155.157 272.935C152.991 274.047 150.452 274.604 147.54 274.604C144.64 274.604 142.107 274.047 139.94 272.935C137.774 271.81 136.093 270.271 134.898 268.318C133.702 266.353 133.104 264.098 133.104 261.553V237.636H138.591V261.109C138.591 262.755 138.952 264.217 139.674 265.495C140.408 266.773 141.444 267.78 142.781 268.513C144.119 269.236 145.705 269.597 147.54 269.597C149.386 269.597 150.978 269.236 152.316 268.513C153.665 267.78 154.695 266.773 155.406 265.495C156.128 264.217 156.489 262.755 156.489 261.109V237.636ZM169.97 237.636H176.628L188.205 265.903H188.631L200.208 237.636H206.866V274H201.646V247.686H201.308L190.584 273.947H186.252L175.527 247.668H175.19V274H169.97V237.636ZM217.914 274H212.091L225.176 237.636H231.515L244.601 274H238.777L228.497 244.241H228.213L217.914 274ZM218.891 259.76H237.783V264.376H218.891V259.76ZM279.203 237.636V274H274.16L255.676 247.331H255.339V274H249.852V237.636H254.931L273.432 264.341H273.769V237.636H279.203ZM300.438 274V237.636H313.4C316.217 237.636 318.555 238.122 320.414 239.092C322.284 240.063 323.681 241.406 324.604 243.123C325.527 244.827 325.989 246.798 325.989 249.036C325.989 251.261 325.521 253.22 324.586 254.913C323.663 256.594 322.266 257.902 320.396 258.837C318.537 259.772 316.2 260.239 313.382 260.239H303.563V255.516H312.885C314.661 255.516 316.105 255.262 317.218 254.753C318.342 254.244 319.165 253.504 319.686 252.533C320.206 251.563 320.467 250.397 320.467 249.036C320.467 247.662 320.2 246.473 319.668 245.467C319.147 244.46 318.324 243.691 317.2 243.158C316.087 242.614 314.625 242.342 312.814 242.342H305.925V274H300.438ZM318.389 257.594L327.374 274H321.124L312.317 257.594H318.389ZM335.737 274H329.913L342.999 237.636H349.338L362.423 274H356.6L346.319 244.241H346.035L335.737 274ZM336.713 259.76H355.605V264.376H336.713V259.76ZM396.168 249.462H390.628C390.415 248.278 390.019 247.236 389.439 246.337C388.859 245.437 388.148 244.674 387.308 244.046C386.468 243.419 385.527 242.945 384.485 242.626C383.455 242.306 382.36 242.146 381.2 242.146C379.105 242.146 377.229 242.673 375.572 243.727C373.926 244.78 372.624 246.325 371.665 248.361C370.718 250.397 370.245 252.883 370.245 255.818C370.245 258.777 370.718 261.275 371.665 263.311C372.624 265.347 373.932 266.886 375.589 267.928C377.247 268.969 379.111 269.49 381.182 269.49C382.331 269.49 383.42 269.336 384.449 269.028C385.491 268.709 386.432 268.241 387.273 267.626C388.113 267.01 388.823 266.259 389.403 265.371C389.995 264.471 390.403 263.441 390.628 262.281L396.168 262.299C395.872 264.086 395.298 265.732 394.446 267.235C393.605 268.727 392.522 270.017 391.197 271.106C389.883 272.183 388.379 273.018 386.687 273.609C384.994 274.201 383.147 274.497 381.147 274.497C377.998 274.497 375.193 273.751 372.731 272.26C370.269 270.757 368.327 268.608 366.907 265.815C365.498 263.021 364.794 259.689 364.794 255.818C364.794 251.936 365.504 248.603 366.925 245.822C368.345 243.028 370.286 240.886 372.748 239.394C375.211 237.891 378.01 237.139 381.147 237.139C383.076 237.139 384.876 237.417 386.545 237.974C388.225 238.518 389.735 239.323 391.072 240.388C392.41 241.442 393.517 242.732 394.393 244.259C395.269 245.774 395.86 247.509 396.168 249.462ZM408.22 237.636V274H402.733V237.636H408.22ZM445.56 237.636V274H440.517L422.034 247.331H421.696V274H416.21V237.636H421.288L439.789 264.341H440.127V237.636H445.56ZM478.173 249.124C477.829 248.047 477.368 247.082 476.788 246.23C476.22 245.366 475.539 244.632 474.746 244.028C473.953 243.413 473.047 242.945 472.029 242.626C471.023 242.306 469.916 242.146 468.709 242.146C466.661 242.146 464.815 242.673 463.169 243.727C461.524 244.78 460.222 246.325 459.263 248.361C458.316 250.385 457.843 252.865 457.843 255.8C457.843 258.748 458.322 261.24 459.281 263.276C460.24 265.312 461.553 266.856 463.222 267.91C464.892 268.963 466.791 269.49 468.922 269.49C470.899 269.49 472.621 269.088 474.089 268.283C475.569 267.478 476.711 266.341 477.516 264.874C478.333 263.394 478.741 261.654 478.741 259.653L480.161 259.92H469.757V255.392H484.05V259.529C484.05 262.583 483.399 265.235 482.097 267.484C480.807 269.721 479.019 271.449 476.735 272.668C474.462 273.888 471.858 274.497 468.922 274.497C465.631 274.497 462.743 273.74 460.257 272.224C457.783 270.709 455.854 268.561 454.469 265.779C453.084 262.986 452.392 259.671 452.392 255.836C452.392 252.936 452.794 250.332 453.599 248.023C454.404 245.715 455.534 243.756 456.99 242.146C458.458 240.525 460.18 239.288 462.157 238.435C464.146 237.571 466.318 237.139 468.673 237.139C470.638 237.139 472.467 237.429 474.16 238.009C475.865 238.589 477.38 239.412 478.705 240.477C480.043 241.543 481.15 242.809 482.026 244.277C482.902 245.733 483.494 247.349 483.801 249.124H478.173ZM525.554 278.652C521.884 278.652 518.629 278.149 515.788 277.143C512.959 276.148 510.574 274.687 508.633 272.757C506.691 270.816 505.218 268.442 504.211 265.637C503.205 262.832 502.702 259.63 502.702 256.031C502.702 252.527 503.211 249.379 504.229 246.585C505.247 243.792 506.727 241.412 508.668 239.447C510.621 237.471 512.995 235.961 515.788 234.92C518.582 233.878 521.754 233.357 525.305 233.357C528.702 233.357 531.697 233.89 534.29 234.955C536.882 236.021 539.06 237.482 540.824 239.341C542.599 241.199 543.937 243.33 544.836 245.733C545.736 248.136 546.186 250.675 546.186 253.35C546.186 255.22 546.068 257.049 545.831 258.837C545.594 260.612 545.156 262.222 544.517 263.666C543.89 265.098 542.978 266.247 541.782 267.111C540.599 267.963 539.06 268.407 537.166 268.442C536.16 268.478 535.183 268.36 534.236 268.087C533.289 267.815 532.484 267.377 531.822 266.773C531.159 266.158 530.756 265.377 530.614 264.43H530.401C530.117 265.128 529.644 265.779 528.981 266.383C528.318 266.975 527.471 267.448 526.442 267.803C525.424 268.147 524.24 268.289 522.89 268.229C521.399 268.17 520.055 267.833 518.86 267.217C517.664 266.602 516.64 265.75 515.788 264.661C514.948 263.571 514.303 262.281 513.853 260.79C513.403 259.298 513.178 257.641 513.178 255.818C513.178 254.066 513.433 252.498 513.942 251.113C514.451 249.716 515.143 248.515 516.019 247.509C516.907 246.491 517.925 245.686 519.073 245.094C520.221 244.502 521.434 244.129 522.713 243.975C523.956 243.833 525.098 243.869 526.14 244.082C527.181 244.295 528.046 244.62 528.732 245.058C529.43 245.496 529.868 245.976 530.046 246.496H530.277V244.508H534.645V260.985C534.645 261.92 534.887 262.713 535.373 263.364C535.87 264.015 536.574 264.341 537.486 264.341C538.563 264.341 539.403 263.944 540.007 263.151C540.622 262.358 541.055 261.139 541.303 259.494C541.564 257.848 541.694 255.741 541.694 253.173C541.694 251.373 541.451 249.681 540.966 248.094C540.492 246.496 539.788 245.052 538.853 243.762C537.93 242.46 536.793 241.341 535.444 240.406C534.094 239.471 532.555 238.749 530.827 238.24C529.111 237.731 527.211 237.477 525.128 237.477C522.299 237.477 519.783 237.915 517.581 238.79C515.38 239.655 513.521 240.903 512.006 242.537C510.503 244.17 509.361 246.129 508.579 248.414C507.81 250.687 507.425 253.238 507.425 256.067C507.425 259.014 507.822 261.63 508.615 263.915C509.408 266.187 510.58 268.105 512.131 269.668C513.681 271.23 515.599 272.42 517.883 273.237C520.168 274.041 522.802 274.444 525.785 274.444C527.11 274.444 528.412 274.326 529.691 274.089C530.969 273.864 532.106 273.609 533.1 273.325C534.106 273.029 534.858 272.793 535.355 272.615L536.598 276.504C535.864 276.847 534.887 277.184 533.668 277.516C532.461 277.847 531.147 278.119 529.726 278.332C528.318 278.545 526.927 278.652 525.554 278.652ZM523.92 263.879C525.459 263.879 526.696 263.571 527.631 262.956C528.578 262.34 529.259 261.423 529.673 260.204C530.099 258.973 530.312 257.434 530.312 255.587C530.3 253.788 530.07 252.356 529.62 251.29C529.182 250.213 528.495 249.444 527.56 248.982C526.637 248.509 525.447 248.272 523.991 248.272C522.654 248.272 521.511 248.598 520.564 249.249C519.629 249.9 518.913 250.781 518.416 251.894C517.931 253.007 517.682 254.244 517.67 255.605C517.682 257.037 517.883 258.387 518.274 259.653C518.676 260.908 519.327 261.926 520.227 262.707C521.139 263.489 522.37 263.879 523.92 263.879ZM585.701 247.189C585.512 245.508 584.731 244.206 583.357 243.283C581.984 242.348 580.256 241.88 578.173 241.88C576.681 241.88 575.391 242.117 574.302 242.59C573.213 243.052 572.367 243.691 571.763 244.508C571.171 245.313 570.875 246.23 570.875 247.26C570.875 248.124 571.076 248.87 571.479 249.497C571.893 250.125 572.432 250.651 573.095 251.077C573.769 251.492 574.491 251.841 575.261 252.125C576.03 252.397 576.77 252.622 577.48 252.8L581.031 253.723C582.191 254.007 583.381 254.392 584.6 254.877C585.82 255.362 586.95 256.002 587.992 256.795C589.033 257.588 589.874 258.57 590.513 259.742C591.164 260.914 591.49 262.317 591.49 263.95C591.49 266.01 590.957 267.839 589.892 269.437C588.838 271.035 587.305 272.295 585.293 273.219C583.292 274.142 580.872 274.604 578.031 274.604C575.308 274.604 572.953 274.172 570.964 273.308C568.975 272.443 567.419 271.218 566.294 269.632C565.17 268.034 564.548 266.14 564.43 263.95H569.934C570.041 265.264 570.467 266.359 571.213 267.235C571.97 268.099 572.935 268.744 574.107 269.17C575.29 269.585 576.587 269.792 577.995 269.792C579.546 269.792 580.925 269.549 582.132 269.064C583.352 268.567 584.31 267.88 585.009 267.004C585.707 266.116 586.056 265.081 586.056 263.897C586.056 262.82 585.749 261.938 585.133 261.251C584.529 260.565 583.707 259.997 582.665 259.547C581.635 259.097 580.469 258.701 579.167 258.357L574.87 257.185C571.958 256.392 569.65 255.226 567.945 253.688C566.253 252.149 565.406 250.113 565.406 247.58C565.406 245.484 565.975 243.656 567.111 242.093C568.247 240.531 569.786 239.317 571.727 238.453C573.669 237.577 575.859 237.139 578.297 237.139C580.759 237.139 582.931 237.571 584.813 238.435C586.707 239.299 588.199 240.489 589.288 242.004C590.377 243.508 590.945 245.236 590.992 247.189H585.701ZM621.43 237.636H626.934V261.553C626.934 264.098 626.337 266.353 625.141 268.318C623.945 270.271 622.265 271.81 620.098 272.935C617.932 274.047 615.393 274.604 612.481 274.604C609.581 274.604 607.048 274.047 604.882 272.935C602.716 271.81 601.035 270.271 599.839 268.318C598.644 266.353 598.046 264.098 598.046 261.553V237.636H603.532V261.109C603.532 262.755 603.893 264.217 604.615 265.495C605.349 266.773 606.385 267.78 607.723 268.513C609.06 269.236 610.646 269.597 612.481 269.597C614.328 269.597 615.92 269.236 617.257 268.513C618.607 267.78 619.637 266.773 620.347 265.495C621.069 264.217 621.43 262.755 621.43 261.109V237.636ZM634.911 274V237.636H647.873C650.702 237.636 653.046 238.151 654.904 239.181C656.762 240.211 658.153 241.62 659.077 243.407C660 245.183 660.461 247.183 660.461 249.408C660.461 251.646 659.994 253.658 659.059 255.445C658.135 257.221 656.739 258.629 654.868 259.671C653.01 260.701 650.672 261.216 647.855 261.216H638.942V256.564H647.358C649.145 256.564 650.595 256.256 651.708 255.641C652.821 255.013 653.637 254.161 654.158 253.084C654.679 252.007 654.939 250.781 654.939 249.408C654.939 248.035 654.679 246.816 654.158 245.751C653.637 244.685 652.815 243.851 651.69 243.247C650.577 242.643 649.11 242.342 647.287 242.342H640.398V274H634.911ZM666.893 274V237.636H689.692V242.359H672.38V253.439H688.502V258.144H672.38V269.277H689.905V274H666.893ZM697.02 274V237.636H709.982C712.799 237.636 715.137 238.122 716.996 239.092C718.866 240.063 720.263 241.406 721.186 243.123C722.109 244.827 722.571 246.798 722.571 249.036C722.571 251.261 722.103 253.22 721.168 254.913C720.245 256.594 718.848 257.902 716.978 258.837C715.119 259.772 712.782 260.239 709.964 260.239H700.145V255.516H709.467C711.243 255.516 712.687 255.262 713.8 254.753C714.924 254.244 715.747 253.504 716.268 252.533C716.788 251.563 717.049 250.397 717.049 249.036C717.049 247.662 716.782 246.473 716.25 245.467C715.729 244.46 714.906 243.691 713.782 243.158C712.669 242.614 711.207 242.342 709.396 242.342H702.507V274H697.02ZM714.971 257.594L723.956 274H717.706L708.899 257.594H714.971ZM729.247 274V237.636H734.733V269.277H751.211V274H729.247ZM762.397 274H756.573L769.659 237.636H775.998L789.084 274H783.26L772.979 244.241H772.695L762.397 274ZM763.373 259.76H782.265V264.376H763.373V259.76ZM794.335 274V237.636H807.297C810.126 237.636 812.469 238.151 814.328 239.181C816.186 240.211 817.577 241.62 818.5 243.407C819.424 245.183 819.885 247.183 819.885 249.408C819.885 251.646 819.418 253.658 818.483 255.445C817.559 257.221 816.163 258.629 814.292 259.671C812.434 260.701 810.096 261.216 807.279 261.216H798.365V256.564H806.782C808.569 256.564 810.019 256.256 811.132 255.641C812.244 255.013 813.061 254.161 813.582 253.084C814.103 252.007 814.363 250.781 814.363 249.408C814.363 248.035 814.103 246.816 813.582 245.751C813.061 244.685 812.239 243.851 811.114 243.247C810.001 242.643 808.533 242.342 806.711 242.342H799.821V274H794.335Z" fill="black"/>
<path d="M986.775 100.573C978.512 100.953 970.248 101.427 962.079 101.806C962.079 102.091 962.079 102.28 962.079 102.565C970.913 103.608 980.031 103.039 988.675 105.505C988.675 105.884 988.77 106.263 988.77 106.737C986.87 107.212 984.971 108.065 983.071 108.16C972.622 108.919 962.079 109.488 951.536 110.151C950.111 110.246 948.781 110.341 947.356 110.436C947.356 110.626 947.356 110.815 947.356 111.005C951.821 111.29 956.38 111.384 960.844 111.953C968.633 112.902 976.327 113.945 984.021 115.367C986.11 115.747 988.01 117.359 989.91 118.402C989.91 118.687 989.91 119.066 989.91 119.35C989.15 120.014 988.39 120.963 987.535 121.247C983.071 122.48 978.512 124.092 973.952 124.661C964.359 125.799 954.575 126.463 944.982 127.222C944.412 127.222 943.937 127.317 943.272 127.696C945.551 127.98 947.736 128.36 950.016 128.549C959.514 129.403 968.823 131.11 977.752 134.524C981.266 135.852 984.591 137.843 987.725 140.024C990.48 141.921 990.67 145.051 988.675 147.801C986.395 150.646 983.546 152.732 980.126 154.06C969.298 158.327 957.995 159.94 946.501 160.698C945.646 160.793 944.887 160.888 944.032 160.983V161.742C945.267 161.836 946.596 162.121 947.831 162.121C959.989 162.5 972.052 163.543 983.831 166.483C986.205 167.052 988.675 167.621 990.005 170.656C988.295 171.604 986.775 172.932 985.066 173.406C975.187 175.872 965.214 177.389 955.05 177.579C952.105 177.674 949.161 177.958 946.216 178.527C960.084 179.665 974.142 179.191 987.82 182.036C988.2 182.131 988.58 182.51 989.055 182.89C988.01 184.786 986.205 184.597 984.591 184.786C978.322 185.355 972.052 185.83 965.783 186.399C962.839 186.683 959.894 186.873 957.045 187.537C966.923 187.821 976.707 188.2 986.585 188.485C986.585 188.864 986.68 189.149 986.68 189.528C985.73 189.718 984.686 190.097 983.736 190.097C966.068 190.382 948.306 190.666 930.639 190.761C920.095 190.856 909.552 190.761 899.103 190.571C891.505 190.382 883.811 189.907 876.212 189.623C875.737 189.623 875.262 189.528 874.787 189.149C884.381 187.347 894.069 188.011 903.758 187.157C893.024 185.355 882.006 186.209 871.463 182.605C885.805 179.95 900.338 179.476 914.871 178.812C914.871 178.527 914.871 178.338 914.871 178.053C907.272 177.389 899.578 177.105 892.075 176.062C884.666 175.018 876.972 174.829 870.228 170.941C870.608 168.38 872.033 167.621 873.742 167.147C886.47 163.543 899.483 162.974 912.591 162.311C914.491 162.216 916.296 162.026 918.196 161.836C918.196 161.647 918.196 161.362 918.196 161.173C916.676 160.983 915.061 160.793 913.541 160.698C902.998 159.94 892.644 158.422 882.671 154.629C878.966 153.206 875.357 151.405 872.318 149.034C868.423 145.999 869.848 141.068 873.552 138.602C879.346 134.808 885.995 132.817 892.739 131.679C900.243 130.446 907.842 129.498 915.441 128.455C916.106 128.36 916.771 128.17 917.436 127.601C913.066 127.317 908.792 127.032 904.423 126.653C894.164 125.799 883.906 125.23 874.027 122.006C872.602 121.532 871.368 120.488 870.038 119.825C870.703 116.885 872.792 116.126 874.787 115.842C883.241 114.514 891.6 113.281 900.053 112.238C905.373 111.574 910.787 111.479 916.201 110.626C908.697 110.246 901.193 109.867 893.689 109.488C886.28 109.108 878.872 108.824 871.748 106.643C871.748 106.263 871.653 105.979 871.653 105.599C872.602 105.22 873.552 104.746 874.502 104.651C880.581 104.082 886.565 103.608 892.644 103.229C897.679 102.944 902.713 102.849 907.747 102.66C908.507 102.66 909.267 102.47 910.027 101.996C897.964 101.522 885.9 101.047 873.837 100.478C873.837 100.289 873.837 100.099 873.837 99.8145C879.251 97.0643 982.026 97.5385 986.775 100.573ZM907.082 186.778C907.082 186.968 907.082 187.157 906.987 187.347C907.462 187.347 907.842 187.252 908.317 187.252C908.317 187.157 908.317 186.968 908.317 186.873C907.937 186.873 907.462 186.873 907.082 186.778Z" fill="black"/>
</svg>
