<svg width="1088" height="1088" viewBox="0 0 1088 1088" fill="none" xmlns="http://www.w3.org/2000/svg">
<rect x="5" y="5" width="1078" height="1078" fill="black" stroke="#FAF6EF" stroke-width="10"/>
<path d="M111.975 695V513.182H224.724V536.797H139.408V592.195H216.645V615.721H139.408V695H111.975ZM256.329 695V558.636H282.874V695H256.329ZM269.734 537.596C265.118 537.596 261.152 536.057 257.838 532.979C254.583 529.843 252.955 526.114 252.955 521.793C252.955 517.414 254.583 513.685 257.838 510.607C261.152 507.47 265.118 505.902 269.734 505.902C274.351 505.902 278.287 507.47 281.542 510.607C284.856 513.685 286.513 517.414 286.513 521.793C286.513 526.114 284.856 529.843 281.542 532.979C278.287 536.057 274.351 537.596 269.734 537.596ZM318.585 695V558.636H344.242V580.298H345.662C348.148 572.959 352.528 567.189 358.801 562.987C365.134 558.725 372.296 556.594 380.286 556.594C381.943 556.594 383.896 556.654 386.145 556.772C388.453 556.89 390.258 557.038 391.561 557.216V582.607C390.495 582.311 388.601 581.985 385.879 581.63C383.156 581.216 380.434 581.009 377.711 581.009C371.437 581.009 365.844 582.34 360.932 585.004C356.079 587.608 352.232 591.248 349.391 595.923C346.55 600.54 345.129 605.807 345.129 611.726V695H318.585ZM516.716 591.928L492.657 596.19C491.651 593.112 490.053 590.182 487.863 587.401C485.732 584.619 482.832 582.34 479.163 580.565C475.493 578.789 470.906 577.901 465.402 577.901C457.885 577.901 451.612 579.588 446.581 582.962C441.55 586.276 439.035 590.567 439.035 595.835C439.035 600.392 440.722 604.061 444.095 606.843C447.469 609.625 452.914 611.903 460.43 613.679L482.092 618.651C494.64 621.551 503.991 626.019 510.146 632.056C516.302 638.093 519.379 645.935 519.379 655.582C519.379 663.75 517.012 671.03 512.277 677.422C507.601 683.755 501.061 688.726 492.657 692.337C484.312 695.947 474.635 697.752 463.626 697.752C448.357 697.752 435.898 694.497 426.251 687.987C416.603 681.417 410.685 672.095 408.495 660.021L434.152 656.115C435.75 662.803 439.035 667.863 444.006 671.296C448.978 674.67 455.459 676.357 463.449 676.357C472.149 676.357 479.103 674.551 484.312 670.941C489.52 667.272 492.124 662.803 492.124 657.536C492.124 653.274 490.526 649.693 487.33 646.793C484.193 643.893 479.37 641.703 472.859 640.224L449.777 635.163C437.052 632.263 427.642 627.647 421.545 621.314C415.509 614.981 412.49 606.961 412.49 597.255C412.49 589.206 414.739 582.163 419.237 576.126C423.735 570.089 429.95 565.384 437.881 562.01C445.812 558.577 454.897 556.861 465.136 556.861C479.873 556.861 491.473 560.057 499.937 566.449C508.4 572.782 513.993 581.275 516.716 591.928ZM612.219 558.636V579.943H537.734V558.636H612.219ZM557.709 525.966H584.254V654.961C584.254 660.11 585.023 663.987 586.562 666.591C588.101 669.136 590.084 670.882 592.51 671.829C594.996 672.717 597.689 673.161 600.589 673.161C602.72 673.161 604.584 673.013 606.182 672.717C607.78 672.421 609.023 672.184 609.911 672.006L614.705 693.935C613.166 694.527 610.976 695.118 608.135 695.71C605.295 696.361 601.743 696.716 597.482 696.776C590.498 696.894 583.988 695.651 577.951 693.047C571.914 690.443 567.031 686.418 563.302 680.973C559.574 675.528 557.709 668.692 557.709 660.465V525.966ZM170.835 939H111.975V757.182H172.7C190.514 757.182 205.814 760.822 218.598 768.102C231.382 775.322 241.177 785.709 247.984 799.263C254.849 812.757 258.282 828.944 258.282 847.825C258.282 866.764 254.82 883.04 247.895 896.653C241.029 910.265 231.086 920.741 218.065 928.08C205.045 935.36 189.301 939 170.835 939ZM139.408 915.03H169.326C183.175 915.03 194.687 912.426 203.861 907.217C213.035 901.95 219.9 894.344 224.457 884.401C229.015 874.399 231.293 862.207 231.293 847.825C231.293 833.561 229.015 821.457 224.457 811.514C219.959 801.571 213.242 794.025 204.305 788.876C195.368 783.727 184.27 781.152 171.013 781.152H139.408V915.03ZM290.264 939V802.636H315.921V824.298H317.342C319.828 816.959 324.207 811.189 330.481 806.987C336.814 802.725 343.975 800.594 351.965 800.594C353.623 800.594 355.576 800.654 357.825 800.772C360.133 800.89 361.938 801.038 363.24 801.216V826.607C362.175 826.311 360.281 825.985 357.558 825.63C354.836 825.216 352.113 825.009 349.391 825.009C343.117 825.009 337.524 826.34 332.612 829.004C327.758 831.608 323.911 835.248 321.07 839.923C318.23 844.54 316.809 849.807 316.809 855.726V939H290.264ZM386.212 939V802.636H412.756V939H386.212ZM399.617 781.596C395.001 781.596 391.035 780.057 387.721 776.979C384.466 773.843 382.838 770.114 382.838 765.793C382.838 761.414 384.466 757.685 387.721 754.607C391.035 751.47 395.001 749.902 399.617 749.902C404.234 749.902 408.17 751.47 411.425 754.607C414.739 757.685 416.396 761.414 416.396 765.793C416.396 770.114 414.739 773.843 411.425 776.979C408.17 780.057 404.234 781.596 399.617 781.596ZM565.122 802.636L515.673 939H487.264L437.725 802.636H466.223L500.758 907.572H502.178L536.624 802.636H565.122ZM644.202 941.752C630.767 941.752 619.196 938.882 609.489 933.141C599.842 927.34 592.385 919.202 587.117 908.727C581.909 898.192 579.305 885.851 579.305 871.706C579.305 857.738 581.909 845.428 587.117 834.774C592.385 824.121 599.724 815.805 609.134 809.827C618.604 803.85 629.672 800.861 642.337 800.861C650.031 800.861 657.489 802.133 664.71 804.678C671.93 807.223 678.411 811.218 684.152 816.663C689.893 822.108 694.421 829.181 697.735 837.881C701.049 846.522 702.707 857.028 702.707 869.398V878.808H594.308V858.922H676.695C676.695 851.938 675.274 845.753 672.433 840.367C669.592 834.922 665.597 830.631 660.448 827.494C655.358 824.357 649.38 822.789 642.515 822.789C635.058 822.789 628.547 824.624 622.984 828.293C617.479 831.904 613.218 836.638 610.2 842.498C607.24 848.298 605.761 854.601 605.761 861.408V876.944C605.761 886.058 607.359 893.812 610.555 900.204C613.81 906.596 618.338 911.479 624.138 914.852C629.938 918.167 636.715 919.824 644.468 919.824C649.499 919.824 654.086 919.114 658.229 917.693C662.372 916.214 665.952 914.024 668.971 911.124C671.989 908.223 674.298 904.643 675.896 900.381L701.02 904.909C699.008 912.307 695.397 918.788 690.189 924.352C685.04 929.856 678.559 934.147 670.746 937.224C662.993 940.243 654.145 941.752 644.202 941.752Z" fill="#F2EBE0"/>
<path d="M128.577 118.818C128.577 122.784 127.825 126.157 126.322 128.939C124.83 131.721 122.794 133.845 120.214 135.313C117.645 136.769 114.757 137.497 111.549 137.497C108.317 137.497 105.417 136.763 102.849 135.295C100.28 133.828 98.25 131.703 96.7585 128.921C95.267 126.139 94.5213 122.772 94.5213 118.818C94.5213 114.853 95.267 111.479 96.7585 108.697C98.25 105.916 100.28 103.797 102.849 102.341C105.417 100.873 108.317 100.139 111.549 100.139C114.757 100.139 117.645 100.873 120.214 102.341C122.794 103.797 124.83 105.916 126.322 108.697C127.825 111.479 128.577 114.853 128.577 118.818ZM120.782 118.818C120.782 116.25 120.397 114.083 119.628 112.32C118.87 110.556 117.799 109.218 116.414 108.307C115.029 107.395 113.407 106.94 111.549 106.94C109.691 106.94 108.069 107.395 106.684 108.307C105.299 109.218 104.222 110.556 103.452 112.32C102.695 114.083 102.316 116.25 102.316 118.818C102.316 121.387 102.695 123.553 103.452 125.317C104.222 127.08 105.299 128.418 106.684 129.33C108.069 130.241 109.691 130.697 111.549 130.697C113.407 130.697 115.029 130.241 116.414 129.33C117.799 128.418 118.87 127.08 119.628 125.317C120.397 123.553 120.782 121.387 120.782 118.818ZM134.272 137V100.636H148.618C151.376 100.636 153.726 101.163 155.667 102.217C157.609 103.258 159.088 104.708 160.106 106.567C161.136 108.413 161.651 110.544 161.651 112.959C161.651 115.374 161.13 117.504 160.089 119.351C159.047 121.197 157.538 122.636 155.561 123.665C153.596 124.695 151.217 125.21 148.423 125.21H139.279V119.049H147.18C148.66 119.049 149.879 118.795 150.838 118.286C151.809 117.765 152.531 117.049 153.004 116.137C153.489 115.214 153.732 114.154 153.732 112.959C153.732 111.751 153.489 110.698 153.004 109.798C152.531 108.887 151.809 108.183 150.838 107.685C149.867 107.176 148.636 106.922 147.145 106.922H141.96V137H134.272ZM166.645 137V100.636H191.148V106.975H174.333V115.64H189.887V121.979H174.333V130.661H191.219V137H166.645ZM227.676 100.636V137H221.035L205.215 114.113H204.948V137H197.26V100.636H204.007L219.703 123.506H220.023V100.636H227.676ZM244.215 106.975V100.636H274.08V106.975H262.947V137H255.348V106.975H244.215ZM278.998 137V100.636H293.345C296.091 100.636 298.435 101.128 300.376 102.11C302.329 103.081 303.815 104.46 304.833 106.247C305.863 108.023 306.378 110.112 306.378 112.515C306.378 114.93 305.857 117.007 304.815 118.747C303.773 120.475 302.264 121.801 300.287 122.724C298.323 123.648 295.943 124.109 293.15 124.109H283.544V117.93H291.907C293.375 117.93 294.594 117.729 295.564 117.327C296.535 116.924 297.257 116.321 297.731 115.516C298.216 114.711 298.459 113.71 298.459 112.515C298.459 111.308 298.216 110.29 297.731 109.461C297.257 108.632 296.529 108.005 295.547 107.579C294.576 107.141 293.351 106.922 291.871 106.922H286.687V137H278.998ZM298.636 120.452L307.674 137H299.187L290.344 120.452H298.636ZM318.079 137H309.84L322.393 100.636H332.301L344.836 137H336.598L327.489 108.946H327.205L318.079 137ZM317.564 122.707H337.024V128.708H317.564V122.707ZM379.589 113.367H371.812C371.67 112.361 371.38 111.467 370.942 110.686C370.504 109.893 369.942 109.218 369.255 108.662C368.568 108.106 367.775 107.679 366.876 107.384C365.988 107.088 365.023 106.94 363.982 106.94C362.099 106.94 360.46 107.407 359.063 108.342C357.666 109.266 356.583 110.615 355.814 112.391C355.045 114.154 354.66 116.297 354.66 118.818C354.66 121.411 355.045 123.589 355.814 125.352C356.595 127.116 357.684 128.448 359.081 129.347C360.478 130.247 362.094 130.697 363.928 130.697C364.958 130.697 365.911 130.561 366.787 130.288C367.675 130.016 368.462 129.62 369.148 129.099C369.835 128.566 370.403 127.921 370.853 127.163C371.315 126.406 371.634 125.542 371.812 124.571L379.589 124.607C379.388 126.276 378.884 127.885 378.08 129.436C377.286 130.975 376.215 132.354 374.866 133.573C373.528 134.781 371.93 135.739 370.072 136.45C368.225 137.148 366.136 137.497 363.804 137.497C360.561 137.497 357.661 136.763 355.104 135.295C352.559 133.828 350.546 131.703 349.067 128.921C347.599 126.139 346.865 122.772 346.865 118.818C346.865 114.853 347.611 111.479 349.102 108.697C350.594 105.916 352.618 103.797 355.175 102.341C357.732 100.873 360.608 100.139 363.804 100.139C365.911 100.139 367.864 100.435 369.663 101.027C371.474 101.619 373.078 102.483 374.475 103.619C375.872 104.744 377.008 106.123 377.884 107.756C378.772 109.39 379.34 111.26 379.589 113.367ZM385.102 137V100.636H392.79V116.67H393.27L406.355 100.636H415.571L402.076 116.918L415.73 137H406.533L396.572 122.05L392.79 126.666V137H385.102Z" fill="#F2EBE0"/>
<path d="M95.995 213V176.636H108.957C111.774 176.636 114.112 177.122 115.97 178.092C117.84 179.063 119.237 180.406 120.161 182.123C121.084 183.827 121.545 185.798 121.545 188.036C121.545 190.261 121.078 192.22 120.143 193.913C119.219 195.594 117.823 196.902 115.952 197.837C114.094 198.772 111.756 199.239 108.939 199.239H99.12V194.516H108.442C110.217 194.516 111.661 194.262 112.774 193.753C113.899 193.244 114.721 192.504 115.242 191.533C115.763 190.563 116.023 189.397 116.023 188.036C116.023 186.662 115.757 185.473 115.224 184.467C114.704 183.46 113.881 182.691 112.756 182.158C111.644 181.614 110.182 181.342 108.371 181.342H101.482V213H95.995ZM113.946 196.594L122.93 213H116.68L107.874 196.594H113.946ZM128.222 213V176.636H151.02V181.359H133.708V192.439H149.83V197.144H133.708V208.277H151.233V213H128.222ZM171.719 201.21H177.116L180.916 206.164L182.709 208.366L188.764 216.267H183.153L179.105 210.994L177.72 209.076L171.719 201.21ZM189.936 194.818C189.936 198.701 189.226 202.039 187.805 204.832C186.385 207.614 184.438 209.757 181.964 211.26C179.501 212.751 176.702 213.497 173.565 213.497C170.416 213.497 167.605 212.751 165.131 211.26C162.669 209.757 160.728 207.608 159.307 204.815C157.887 202.021 157.177 198.689 157.177 194.818C157.177 190.936 157.887 187.603 159.307 184.822C160.728 182.028 162.669 179.886 165.131 178.394C167.605 176.891 170.416 176.139 173.565 176.139C176.702 176.139 179.501 176.891 181.964 178.394C184.438 179.886 186.385 182.028 187.805 184.822C189.226 187.603 189.936 190.936 189.936 194.818ZM184.503 194.818C184.503 191.859 184.023 189.367 183.064 187.343C182.117 185.307 180.815 183.768 179.158 182.727C177.513 181.673 175.648 181.146 173.565 181.146C171.47 181.146 169.6 181.673 167.954 182.727C166.309 183.768 165.007 185.307 164.048 187.343C163.101 189.367 162.628 191.859 162.628 194.818C162.628 197.777 163.101 200.275 164.048 202.311C165.007 204.335 166.309 205.874 167.954 206.928C169.6 207.969 171.47 208.49 173.565 208.49C175.648 208.49 177.513 207.969 179.158 206.928C180.815 205.874 182.117 204.335 183.064 202.311C184.023 200.275 184.503 197.777 184.503 194.818ZM220.161 176.636H225.665V200.553C225.665 203.098 225.067 205.353 223.871 207.318C222.676 209.271 220.995 210.81 218.829 211.935C216.663 213.047 214.124 213.604 211.212 213.604C208.312 213.604 205.778 213.047 203.612 211.935C201.446 210.81 199.765 209.271 198.57 207.318C197.374 205.353 196.776 203.098 196.776 200.553V176.636H202.263V200.109C202.263 201.755 202.624 203.217 203.346 204.495C204.08 205.773 205.116 206.78 206.453 207.513C207.791 208.236 209.377 208.597 211.212 208.597C213.058 208.597 214.65 208.236 215.988 207.513C217.337 206.78 218.367 205.773 219.077 204.495C219.799 203.217 220.161 201.755 220.161 200.109V176.636ZM239.128 176.636V213H233.642V176.636H239.128ZM247.118 213V176.636H260.08C262.897 176.636 265.235 177.122 267.093 178.092C268.963 179.063 270.36 180.406 271.284 182.123C272.207 183.827 272.669 185.798 272.669 188.036C272.669 190.261 272.201 192.22 271.266 193.913C270.343 195.594 268.946 196.902 267.075 197.837C265.217 198.772 262.879 199.239 260.062 199.239H250.243V194.516H259.565C261.34 194.516 262.785 194.262 263.897 193.753C265.022 193.244 265.844 192.504 266.365 191.533C266.886 190.563 267.146 189.397 267.146 188.036C267.146 186.662 266.88 185.473 266.347 184.467C265.827 183.46 265.004 182.691 263.879 182.158C262.767 181.614 261.305 181.342 259.494 181.342H252.605V213H247.118ZM265.069 196.594L274.053 213H267.803L258.997 196.594H265.069ZM279.345 213V176.636H302.143V181.359H284.831V192.439H300.953V197.144H284.831V208.277H302.356V213H279.345ZM309.472 176.636H316.13L327.707 204.903H328.133L339.71 176.636H346.368V213H341.148V186.686H340.81L330.086 212.947H325.754L315.029 186.668H314.692V213H309.472V176.636ZM354.345 213V176.636H377.143V181.359H359.831V192.439H375.953V197.144H359.831V208.277H377.356V213H354.345ZM413.822 176.636V213H408.779L390.295 186.331H389.958V213H384.472V176.636H389.55L408.051 203.341H408.388V176.636H413.822ZM420.032 181.359V176.636H448.175V181.359H436.829V213H431.36V181.359H420.032ZM467.626 213V176.636H490.176V181.359H473.112V192.439H488.56V197.144H473.112V213H467.626ZM528.51 194.818C528.51 198.701 527.8 202.039 526.379 204.832C524.959 207.614 523.012 209.757 520.538 211.26C518.076 212.751 515.276 213.497 512.139 213.497C508.991 213.497 506.179 212.751 503.705 211.26C501.243 209.757 499.302 207.608 497.882 204.815C496.461 202.021 495.751 198.689 495.751 194.818C495.751 190.936 496.461 187.603 497.882 184.822C499.302 182.028 501.243 179.886 503.705 178.394C506.179 176.891 508.991 176.139 512.139 176.139C515.276 176.139 518.076 176.891 520.538 178.394C523.012 179.886 524.959 182.028 526.379 184.822C527.8 187.603 528.51 190.936 528.51 194.818ZM523.077 194.818C523.077 191.859 522.597 189.367 521.639 187.343C520.692 185.307 519.39 183.768 517.732 182.727C516.087 181.673 514.223 181.146 512.139 181.146C510.044 181.146 508.174 181.673 506.529 182.727C504.883 183.768 503.581 185.307 502.622 187.343C501.675 189.367 501.202 191.859 501.202 194.818C501.202 197.777 501.675 200.275 502.622 202.311C503.581 204.335 504.883 205.874 506.529 206.928C508.174 207.969 510.044 208.49 512.139 208.49C514.223 208.49 516.087 207.969 517.732 206.928C519.39 205.874 520.692 204.335 521.639 202.311C522.597 200.275 523.077 197.777 523.077 194.818ZM535.35 213V176.636H548.312C551.129 176.636 553.467 177.122 555.326 178.092C557.196 179.063 558.593 180.406 559.516 182.123C560.439 183.827 560.901 185.798 560.901 188.036C560.901 190.261 560.433 192.22 559.498 193.913C558.575 195.594 557.178 196.902 555.308 197.837C553.449 198.772 551.112 199.239 548.294 199.239H538.475V194.516H547.797C549.573 194.516 551.017 194.262 552.13 193.753C553.254 193.244 554.077 192.504 554.598 191.533C555.118 190.563 555.379 189.397 555.379 188.036C555.379 186.662 555.113 185.473 554.58 184.467C554.059 183.46 553.236 182.691 552.112 182.158C550.999 181.614 549.537 181.342 547.726 181.342H540.837V213H535.35ZM553.301 196.594L562.286 213H556.036L547.229 196.594H553.301ZM578.004 176.636H584.236L593.736 193.167H594.126L603.626 176.636H609.858L596.665 198.724V213H591.197V198.724L578.004 176.636ZM644.77 194.818C644.77 198.701 644.06 202.039 642.639 204.832C641.219 207.614 639.272 209.757 636.798 211.26C634.335 212.751 631.536 213.497 628.399 213.497C625.25 213.497 622.439 212.751 619.965 211.26C617.503 209.757 615.562 207.608 614.141 204.815C612.721 202.021 612.011 198.689 612.011 194.818C612.011 190.936 612.721 187.603 614.141 184.822C615.562 182.028 617.503 179.886 619.965 178.394C622.439 176.891 625.25 176.139 628.399 176.139C631.536 176.139 634.335 176.891 636.798 178.394C639.272 179.886 641.219 182.028 642.639 184.822C644.06 187.603 644.77 190.936 644.77 194.818ZM639.337 194.818C639.337 191.859 638.857 189.367 637.898 187.343C636.951 185.307 635.649 183.768 633.992 182.727C632.347 181.673 630.482 181.146 628.399 181.146C626.304 181.146 624.434 181.673 622.788 182.727C621.143 183.768 619.841 185.307 618.882 187.343C617.935 189.367 617.462 191.859 617.462 194.818C617.462 197.777 617.935 200.275 618.882 202.311C619.841 204.335 621.143 205.874 622.788 206.928C624.434 207.969 626.304 208.49 628.399 208.49C630.482 208.49 632.347 207.969 633.992 206.928C635.649 205.874 636.951 204.335 637.898 202.311C638.857 200.275 639.337 197.777 639.337 194.818ZM674.994 176.636H680.499V200.553C680.499 203.098 679.901 205.353 678.705 207.318C677.51 209.271 675.829 210.81 673.663 211.935C671.497 213.047 668.958 213.604 666.046 213.604C663.146 213.604 660.612 213.047 658.446 211.935C656.28 210.81 654.599 209.271 653.404 207.318C652.208 205.353 651.61 203.098 651.61 200.553V176.636H657.097V200.109C657.097 201.755 657.458 203.217 658.18 204.495C658.914 205.773 659.95 206.78 661.287 207.513C662.625 208.236 664.211 208.597 666.046 208.597C667.892 208.597 669.484 208.236 670.822 207.513C672.171 206.78 673.201 205.773 673.911 204.495C674.633 203.217 674.994 201.755 674.994 200.109V176.636ZM688.475 213V176.636H701.437C704.254 176.636 706.592 177.122 708.451 178.092C710.321 179.063 711.718 180.406 712.641 182.123C713.564 183.827 714.026 185.798 714.026 188.036C714.026 190.261 713.558 192.22 712.623 193.913C711.7 195.594 710.303 196.902 708.433 197.837C706.574 198.772 704.237 199.239 701.419 199.239H691.6V194.516H700.922C702.698 194.516 704.142 194.262 705.255 193.753C706.379 193.244 707.202 192.504 707.723 191.533C708.243 190.563 708.504 189.397 708.504 188.036C708.504 186.662 708.238 185.473 707.705 184.467C707.184 183.46 706.361 182.691 705.237 182.158C704.124 181.614 702.662 181.342 700.851 181.342H693.962V213H688.475ZM706.426 196.594L715.411 213H709.161L700.354 196.594H706.426ZM95.995 274V237.636H118.545V242.359H101.482V253.439H116.929V258.144H101.482V274H95.995ZM130.778 237.636V274H125.292V237.636H130.778ZM138.768 274V237.636H151.73C154.547 237.636 156.885 238.122 158.744 239.092C160.614 240.063 162.011 241.406 162.934 243.123C163.857 244.827 164.319 246.798 164.319 249.036C164.319 251.261 163.851 253.22 162.916 254.913C161.993 256.594 160.596 257.902 158.726 258.837C156.867 259.772 154.53 260.239 151.712 260.239H141.893V255.516H151.215C152.991 255.516 154.435 255.262 155.548 254.753C156.672 254.244 157.495 253.504 158.016 252.533C158.536 251.563 158.797 250.397 158.797 249.036C158.797 247.662 158.531 246.473 157.998 245.467C157.477 244.46 156.654 243.691 155.53 243.158C154.417 242.614 152.955 242.342 151.144 242.342H144.255V274H138.768ZM156.719 257.594L165.704 274H159.454L150.647 257.594H156.719ZM190.828 247.189C190.639 245.508 189.857 244.206 188.484 243.283C187.111 242.348 185.383 241.88 183.3 241.88C181.808 241.88 180.518 242.117 179.429 242.59C178.34 243.052 177.494 243.691 176.89 244.508C176.298 245.313 176.002 246.23 176.002 247.26C176.002 248.124 176.203 248.87 176.606 249.497C177.02 250.125 177.559 250.651 178.222 251.077C178.896 251.492 179.618 251.841 180.388 252.125C181.157 252.397 181.897 252.622 182.607 252.8L186.158 253.723C187.318 254.007 188.508 254.392 189.727 254.877C190.946 255.362 192.077 256.002 193.119 256.795C194.16 257.588 195.001 258.57 195.64 259.742C196.291 260.914 196.616 262.317 196.616 263.95C196.616 266.01 196.084 267.839 195.018 269.437C193.965 271.035 192.432 272.295 190.42 273.219C188.419 274.142 185.999 274.604 183.158 274.604C180.435 274.604 178.08 274.172 176.091 273.308C174.102 272.443 172.546 271.218 171.421 269.632C170.297 268.034 169.675 266.14 169.557 263.95H175.061C175.168 265.264 175.594 266.359 176.339 267.235C177.097 268.099 178.062 268.744 179.234 269.17C180.417 269.585 181.714 269.792 183.122 269.792C184.673 269.792 186.052 269.549 187.259 269.064C188.478 268.567 189.437 267.88 190.136 267.004C190.834 266.116 191.183 265.081 191.183 263.897C191.183 262.82 190.875 261.938 190.26 261.251C189.656 260.565 188.834 259.997 187.792 259.547C186.762 259.097 185.596 258.701 184.294 258.357L179.997 257.185C177.085 256.392 174.777 255.226 173.072 253.688C171.38 252.149 170.533 250.113 170.533 247.58C170.533 245.484 171.102 243.656 172.238 242.093C173.374 240.531 174.913 239.317 176.854 238.453C178.796 237.577 180.986 237.139 183.424 237.139C185.886 237.139 188.058 237.571 189.94 238.435C191.834 239.299 193.326 240.489 194.415 242.004C195.504 243.508 196.072 245.236 196.119 247.189H190.828ZM201.379 242.359V237.636H229.522V242.359H218.176V274H212.708V242.359H201.379ZM247.18 242.359V237.636H275.323V242.359H263.977V274H258.508V242.359H247.18ZM287.028 237.636V274H281.542V237.636H287.028ZM295.018 237.636H301.677L313.254 265.903H313.68L325.256 237.636H331.915V274H326.695V247.686H326.357L315.633 273.947H311.3L300.576 247.668H300.239V274H295.018V237.636ZM339.892 274V237.636H362.69V242.359H345.378V253.439H361.5V258.144H345.378V269.277H362.903V274H339.892ZM404.558 278.652C400.888 278.652 397.633 278.149 394.792 277.143C391.963 276.148 389.578 274.687 387.637 272.757C385.695 270.816 384.222 268.442 383.215 265.637C382.209 262.832 381.706 259.63 381.706 256.031C381.706 252.527 382.215 249.379 383.233 246.585C384.251 243.792 385.731 241.412 387.672 239.447C389.625 237.471 391.999 235.961 394.792 234.92C397.586 233.878 400.758 233.357 404.309 233.357C407.706 233.357 410.701 233.89 413.294 234.955C415.886 236.021 418.064 237.482 419.828 239.341C421.603 241.199 422.941 243.33 423.84 245.733C424.74 248.136 425.19 250.675 425.19 253.35C425.19 255.22 425.071 257.049 424.835 258.837C424.598 260.612 424.16 262.222 423.521 263.666C422.893 265.098 421.982 266.247 420.786 267.111C419.603 267.963 418.064 268.407 416.17 268.442C415.164 268.478 414.187 268.36 413.24 268.087C412.293 267.815 411.488 267.377 410.825 266.773C410.163 266.158 409.76 265.377 409.618 264.43H409.405C409.121 265.128 408.647 265.779 407.985 266.383C407.322 266.975 406.475 267.448 405.445 267.803C404.427 268.147 403.244 268.289 401.894 268.229C400.403 268.17 399.059 267.833 397.864 267.217C396.668 266.602 395.644 265.75 394.792 264.661C393.952 263.571 393.307 262.281 392.857 260.79C392.407 259.298 392.182 257.641 392.182 255.818C392.182 254.066 392.436 252.498 392.945 251.113C393.454 249.716 394.147 248.515 395.023 247.509C395.911 246.491 396.929 245.686 398.077 245.094C399.225 244.502 400.438 244.129 401.717 243.975C402.96 243.833 404.102 243.869 405.144 244.082C406.185 244.295 407.049 244.62 407.736 245.058C408.434 245.496 408.872 245.976 409.05 246.496H409.281V244.508H413.649V260.985C413.649 261.92 413.891 262.713 414.377 263.364C414.874 264.015 415.578 264.341 416.49 264.341C417.567 264.341 418.407 263.944 419.011 263.151C419.626 262.358 420.058 261.139 420.307 259.494C420.567 257.848 420.698 255.741 420.698 253.173C420.698 251.373 420.455 249.681 419.97 248.094C419.496 246.496 418.792 245.052 417.857 243.762C416.933 242.46 415.797 241.341 414.448 240.406C413.098 239.471 411.559 238.749 409.831 238.24C408.115 237.731 406.215 237.477 404.132 237.477C401.302 237.477 398.787 237.915 396.585 238.79C394.384 239.655 392.525 240.903 391.01 242.537C389.507 244.17 388.365 246.129 387.583 248.414C386.814 250.687 386.429 253.238 386.429 256.067C386.429 259.014 386.826 261.63 387.619 263.915C388.412 266.187 389.584 268.105 391.134 269.668C392.685 271.23 394.603 272.42 396.887 273.237C399.172 274.041 401.806 274.444 404.789 274.444C406.114 274.444 407.416 274.326 408.695 274.089C409.973 273.864 411.11 273.609 412.104 273.325C413.11 273.029 413.862 272.793 414.359 272.615L415.602 276.504C414.868 276.847 413.891 277.184 412.672 277.516C411.465 277.847 410.151 278.119 408.73 278.332C407.322 278.545 405.931 278.652 404.558 278.652ZM402.924 263.879C404.463 263.879 405.7 263.571 406.635 262.956C407.582 262.34 408.263 261.423 408.677 260.204C409.103 258.973 409.316 257.434 409.316 255.587C409.304 253.788 409.074 252.356 408.624 251.29C408.186 250.213 407.499 249.444 406.564 248.982C405.641 248.509 404.451 248.272 402.995 248.272C401.658 248.272 400.515 248.598 399.568 249.249C398.633 249.9 397.917 250.781 397.42 251.894C396.935 253.007 396.686 254.244 396.674 255.605C396.686 257.037 396.887 258.387 397.278 259.653C397.68 260.908 398.331 261.926 399.231 262.707C400.142 263.489 401.374 263.879 402.924 263.879ZM464.705 247.189C464.516 245.508 463.734 244.206 462.361 243.283C460.988 242.348 459.26 241.88 457.177 241.88C455.685 241.88 454.395 242.117 453.306 242.59C452.217 243.052 451.371 243.691 450.767 244.508C450.175 245.313 449.879 246.23 449.879 247.26C449.879 248.124 450.08 248.87 450.483 249.497C450.897 250.125 451.436 250.651 452.099 251.077C452.773 251.492 453.495 251.841 454.265 252.125C455.034 252.397 455.774 252.622 456.484 252.8L460.035 253.723C461.195 254.007 462.385 254.392 463.604 254.877C464.823 255.362 465.954 256.002 466.996 256.795C468.037 257.588 468.878 258.57 469.517 259.742C470.168 260.914 470.493 262.317 470.493 263.95C470.493 266.01 469.961 267.839 468.895 269.437C467.842 271.035 466.309 272.295 464.297 273.219C462.296 274.142 459.876 274.604 457.035 274.604C454.312 274.604 451.956 274.172 449.968 273.308C447.979 272.443 446.423 271.218 445.298 269.632C444.174 268.034 443.552 266.14 443.434 263.95H448.938C449.045 265.264 449.471 266.359 450.216 267.235C450.974 268.099 451.939 268.744 453.111 269.17C454.294 269.585 455.59 269.792 456.999 269.792C458.55 269.792 459.929 269.549 461.136 269.064C462.355 268.567 463.314 267.88 464.013 267.004C464.711 266.116 465.06 265.081 465.06 263.897C465.06 262.82 464.752 261.938 464.137 261.251C463.533 260.565 462.711 259.997 461.669 259.547C460.639 259.097 459.473 258.701 458.171 258.357L453.874 257.185C450.962 256.392 448.654 255.226 446.949 253.688C445.257 252.149 444.41 250.113 444.41 247.58C444.41 245.484 444.979 243.656 446.115 242.093C447.251 240.531 448.79 239.317 450.731 238.453C452.673 237.577 454.863 237.139 457.301 237.139C459.763 237.139 461.935 237.571 463.817 238.435C465.711 239.299 467.203 240.489 468.292 242.004C469.381 243.508 469.949 245.236 469.996 247.189H464.705ZM500.434 237.636H505.938V261.553C505.938 264.098 505.34 266.353 504.145 268.318C502.949 270.271 501.268 271.81 499.102 272.935C496.936 274.047 494.397 274.604 491.485 274.604C488.585 274.604 486.052 274.047 483.886 272.935C481.719 271.81 480.039 270.271 478.843 268.318C477.647 266.353 477.05 264.098 477.05 261.553V237.636H482.536V261.109C482.536 262.755 482.897 264.217 483.619 265.495C484.353 266.773 485.389 267.78 486.727 268.513C488.064 269.236 489.65 269.597 491.485 269.597C493.332 269.597 494.924 269.236 496.261 268.513C497.611 267.78 498.641 266.773 499.351 265.495C500.073 264.217 500.434 262.755 500.434 261.109V237.636ZM513.915 274V237.636H526.877C529.706 237.636 532.049 238.151 533.908 239.181C535.766 240.211 537.157 241.62 538.08 243.407C539.004 245.183 539.465 247.183 539.465 249.408C539.465 251.646 538.998 253.658 538.063 255.445C537.139 257.221 535.743 258.629 533.872 259.671C532.014 260.701 529.676 261.216 526.859 261.216H517.945V256.564H526.362C528.149 256.564 529.599 256.256 530.712 255.641C531.825 255.013 532.641 254.161 533.162 253.084C533.683 252.007 533.943 250.781 533.943 249.408C533.943 248.035 533.683 246.816 533.162 245.751C532.641 244.685 531.819 243.851 530.694 243.247C529.581 242.643 528.114 242.342 526.291 242.342H519.401V274H513.915ZM545.897 274V237.636H568.696V242.359H551.384V253.439H567.506V258.144H551.384V269.277H568.909V274H545.897ZM576.024 274V237.636H588.986C591.803 237.636 594.141 238.122 595.999 239.092C597.87 240.063 599.267 241.406 600.19 243.123C601.113 244.827 601.575 246.798 601.575 249.036C601.575 251.261 601.107 253.22 600.172 254.913C599.249 256.594 597.852 257.902 595.982 258.837C594.123 259.772 591.785 260.239 588.968 260.239H579.149V255.516H588.471C590.247 255.516 591.691 255.262 592.803 254.753C593.928 254.244 594.751 253.504 595.271 252.533C595.792 251.563 596.053 250.397 596.053 249.036C596.053 247.662 595.786 246.473 595.254 245.467C594.733 244.46 593.91 243.691 592.786 243.158C591.673 242.614 590.211 242.342 588.4 242.342H581.511V274H576.024ZM593.975 257.594L602.96 274H596.71L587.903 257.594H593.975ZM608.251 274V237.636H613.737V269.277H630.215V274H608.251ZM641.401 274H635.577L648.663 237.636H655.002L668.088 274H662.264L651.983 244.241H651.699L641.401 274ZM642.377 259.76H661.269V264.376H642.377V259.76ZM673.339 274V237.636H686.3C689.129 237.636 691.473 238.151 693.332 239.181C695.19 240.211 696.581 241.62 697.504 243.407C698.428 245.183 698.889 247.183 698.889 249.408C698.889 251.646 698.422 253.658 697.487 255.445C696.563 257.221 695.166 258.629 693.296 259.671C691.438 260.701 689.1 261.216 686.283 261.216H677.369V256.564H685.786C687.573 256.564 689.023 256.256 690.136 255.641C691.248 255.013 692.065 254.161 692.586 253.084C693.107 252.007 693.367 250.781 693.367 249.408C693.367 248.035 693.107 246.816 692.586 245.751C692.065 244.685 691.242 243.851 690.118 243.247C689.005 242.643 687.537 242.342 685.714 242.342H678.825V274H673.339Z" fill="#F2EBE0"/>
<path d="M929.797 207.975C896.842 207.985 870 181.217 870 148.362C870 114.862 896.575 87.9851 929.678 88C963.287 88.0149 989.995 114.629 990 148.119C990 181.321 963.197 207.97 929.797 207.98V207.975ZM986.599 148.045C986.555 116.686 961.254 91.3956 929.876 91.3906C898.3 91.3807 873.063 117.445 873.371 148.877C873.663 179.358 899.197 204.684 930.03 204.609C961.254 204.53 986.649 179.145 986.604 148.045H986.599Z" fill="#F2EBE0"/>
<path d="M929.938 197.591C902.516 197.551 880.323 175.383 880.393 148.105C880.462 120.212 902.556 98.3313 930.588 98.3907C957.574 98.4502 979.732 120.955 979.638 148.194C979.538 175.527 957.301 197.631 929.938 197.591ZM976.212 148.04C976.103 122.16 955.413 101.717 929.403 101.791C904.172 101.866 883.709 122.819 883.818 148.472C883.927 173.852 904.861 194.295 930.642 194.2C955.502 194.106 976.321 173.024 976.217 148.04H976.212Z" fill="#F2EBE0"/>
<path d="M929.948 187.198C908.236 187.079 890.653 169.522 890.772 148.087C890.891 126.152 908.414 108.659 930.136 108.778C951.863 108.902 969.346 126.574 969.207 148.271C969.069 169.789 951.392 187.312 929.953 187.193L929.948 187.198ZM965.817 148.271C966.02 128.7 950.038 112.362 930.493 112.159C910.774 111.95 894.425 127.892 894.192 147.562C893.959 167.266 909.817 183.639 929.313 183.818C949.414 184.001 965.613 168.228 965.817 148.271Z" fill="#F2EBE0"/>
<path d="M901.188 148.036C901.222 132.104 914.15 119.131 929.948 119.176C945.945 119.221 958.858 132.129 958.838 148.056C958.818 163.903 945.736 176.856 929.795 176.811C914.091 176.767 901.158 163.755 901.192 148.036H901.188ZM929.988 122.567C916.014 122.542 904.667 133.913 904.578 148.026C904.494 161.925 915.979 173.376 930.047 173.421C943.823 173.465 955.403 161.93 955.418 148.15C955.432 134.067 944.026 122.591 929.988 122.567Z" fill="#F2EBE0"/>
<path d="M911.57 148.108C911.56 138.04 919.878 129.568 929.773 129.578C940.029 129.588 948.456 137.931 948.451 148.063C948.441 157.977 939.979 166.394 930.001 166.419C919.997 166.439 911.58 158.081 911.57 148.108ZM914.986 147.964C914.827 155.96 921.45 162.845 929.46 163.023C937.867 163.207 944.847 156.698 945.015 148.519C945.189 140.052 938.7 133.152 930.387 132.964C921.871 132.77 915.159 139.309 914.986 147.964Z" fill="#F2EBE0"/>
<path d="M929.959 139.984C934.584 139.989 938.123 143.563 938.059 148.159C937.999 152.541 934.43 156.015 929.998 156.015C925.458 156.015 921.953 152.55 921.953 148.074C921.953 143.434 925.373 139.979 929.959 139.984ZM934.628 147.985C934.594 145.467 932.442 143.335 929.939 143.35C927.421 143.365 925.364 145.487 925.373 148.064C925.383 150.548 927.485 152.64 929.959 152.625C932.487 152.61 934.658 150.454 934.628 147.985Z" fill="#F2EBE0"/>
<path d="M934.628 147.986C934.658 150.455 932.486 152.611 929.958 152.626C927.49 152.641 925.383 150.544 925.373 148.066C925.363 145.488 927.42 143.367 929.939 143.352C932.437 143.337 934.593 145.468 934.628 147.986Z" fill="#F2EBE0"/>
</svg>
