<svg width="1088" height="1088" viewBox="0 0 1088 1088" fill="none" xmlns="http://www.w3.org/2000/svg">
<rect x="5" y="5" width="1078" height="1078" fill="#F2EBE0" stroke="#F2EBE0" stroke-width="10"/>
<path d="M95.1605 137V100.636H119.237V106.975H102.849V115.64H117.639V121.979H102.849V137H95.1605ZM124.409 137V100.636H148.911V106.975H132.097V115.64H147.651V121.979H132.097V130.661H148.982V137H124.409ZM161.292 137H153.053L165.606 100.636H175.514L188.049 137H179.811L170.702 108.946H170.418L161.292 137ZM160.777 122.707H180.237V128.708H160.777V122.707ZM186.598 106.975V100.636H216.463V106.975H205.33V137H197.731V106.975H186.598ZM243.842 100.636H251.53V124.251C251.53 126.903 250.897 129.223 249.631 131.212C248.376 133.2 246.618 134.751 244.357 135.864C242.096 136.964 239.462 137.515 236.456 137.515C233.437 137.515 230.798 136.964 228.537 135.864C226.276 134.751 224.518 133.2 223.263 131.212C222.009 129.223 221.381 126.903 221.381 124.251V100.636H229.069V123.594C229.069 124.979 229.371 126.21 229.975 127.288C230.59 128.365 231.455 129.211 232.567 129.827C233.68 130.442 234.976 130.75 236.456 130.75C237.947 130.75 239.243 130.442 240.344 129.827C241.457 129.211 242.315 128.365 242.919 127.288C243.534 126.21 243.842 124.979 243.842 123.594V100.636ZM257.856 137V100.636H272.202C274.949 100.636 277.292 101.128 279.234 102.11C281.187 103.081 282.672 104.46 283.69 106.247C284.72 108.023 285.235 110.112 285.235 112.515C285.235 114.93 284.714 117.007 283.673 118.747C282.631 120.475 281.122 121.801 279.145 122.724C277.18 123.648 274.801 124.109 272.007 124.109H262.401V117.93H270.764C272.232 117.93 273.451 117.729 274.422 117.327C275.393 116.924 276.115 116.321 276.588 115.516C277.073 114.711 277.316 113.71 277.316 112.515C277.316 111.308 277.073 110.29 276.588 109.461C276.115 108.632 275.387 108.005 274.404 107.579C273.433 107.141 272.208 106.922 270.729 106.922H265.544V137H257.856ZM277.494 120.452L286.531 137H278.044L269.202 120.452H277.494ZM290.668 137V100.636H315.171V106.975H298.357V115.64H313.911V121.979H298.357V130.661H315.242V137H290.668ZM332.856 137V100.636H347.202C349.949 100.636 352.292 101.128 354.234 102.11C356.187 103.081 357.672 104.46 358.69 106.247C359.72 108.023 360.235 110.112 360.235 112.515C360.235 114.93 359.714 117.007 358.673 118.747C357.631 120.475 356.122 121.801 354.145 122.724C352.18 123.648 349.801 124.109 347.007 124.109H337.401V117.93H345.764C347.232 117.93 348.451 117.729 349.422 117.327C350.393 116.924 351.115 116.321 351.588 115.516C352.073 114.711 352.316 113.71 352.316 112.515C352.316 111.308 352.073 110.29 351.588 109.461C351.115 108.632 350.387 108.005 349.404 107.579C348.433 107.141 347.208 106.922 345.729 106.922H340.544V137H332.856ZM352.494 120.452L361.531 137H353.044L344.202 120.452H352.494ZM371.936 137H363.697L376.251 100.636H386.158L398.694 137H390.455L381.347 108.946H381.062L371.936 137ZM371.421 122.707H390.881V128.708H371.421V122.707ZM433.446 113.367H425.669C425.527 112.361 425.237 111.467 424.799 110.686C424.361 109.893 423.799 109.218 423.112 108.662C422.426 108.106 421.633 107.679 420.733 107.384C419.845 107.088 418.881 106.94 417.839 106.94C415.957 106.94 414.317 107.407 412.921 108.342C411.524 109.266 410.441 110.615 409.671 112.391C408.902 114.154 408.517 116.297 408.517 118.818C408.517 121.411 408.902 123.589 409.671 125.352C410.453 127.116 411.542 128.448 412.938 129.347C414.335 130.247 415.951 130.697 417.786 130.697C418.816 130.697 419.768 130.561 420.644 130.288C421.532 130.016 422.319 129.62 423.006 129.099C423.692 128.566 424.261 127.921 424.71 127.163C425.172 126.406 425.492 125.542 425.669 124.571L433.446 124.607C433.245 126.276 432.742 127.885 431.937 129.436C431.144 130.975 430.073 132.354 428.723 133.573C427.386 134.781 425.788 135.739 423.929 136.45C422.083 137.148 419.993 137.497 417.661 137.497C414.418 137.497 411.518 136.763 408.961 135.295C406.416 133.828 404.404 131.703 402.924 128.921C401.456 126.139 400.722 122.772 400.722 118.818C400.722 114.853 401.468 111.479 402.96 108.697C404.451 105.916 406.475 103.797 409.032 102.341C411.589 100.873 414.465 100.139 417.661 100.139C419.768 100.139 421.722 100.435 423.521 101.027C425.332 101.619 426.936 102.483 428.333 103.619C429.729 104.744 430.866 106.123 431.742 107.756C432.629 109.39 433.198 111.26 433.446 113.367ZM438.959 137V100.636H463.462V106.975H446.648V115.64H462.202V121.979H446.648V130.661H463.533V137H438.959Z" fill="black"/>
<path d="M986.775 100.573C978.512 100.953 970.248 101.427 962.079 101.806C962.079 102.091 962.079 102.28 962.079 102.565C970.913 103.608 980.031 103.039 988.675 105.505C988.675 105.884 988.77 106.263 988.77 106.737C986.87 107.212 984.971 108.065 983.071 108.16C972.622 108.919 962.079 109.488 951.536 110.151C950.111 110.246 948.781 110.341 947.356 110.436C947.356 110.626 947.356 110.815 947.356 111.005C951.821 111.29 956.38 111.384 960.844 111.953C968.633 112.902 976.327 113.945 984.021 115.367C986.11 115.747 988.01 117.359 989.91 118.402C989.91 118.687 989.91 119.066 989.91 119.35C989.15 120.014 988.39 120.963 987.535 121.247C983.071 122.48 978.512 124.092 973.952 124.661C964.359 125.799 954.575 126.463 944.982 127.222C944.412 127.222 943.937 127.317 943.272 127.696C945.551 127.98 947.736 128.36 950.016 128.549C959.514 129.403 968.823 131.11 977.752 134.524C981.266 135.852 984.591 137.843 987.725 140.024C990.48 141.921 990.67 145.051 988.675 147.801C986.395 150.646 983.546 152.732 980.126 154.06C969.298 158.327 957.995 159.94 946.501 160.698C945.646 160.793 944.887 160.888 944.032 160.983V161.742C945.267 161.836 946.596 162.121 947.831 162.121C959.989 162.5 972.052 163.543 983.831 166.483C986.205 167.052 988.675 167.621 990.005 170.656C988.295 171.604 986.775 172.932 985.066 173.406C975.187 175.872 965.214 177.389 955.05 177.579C952.105 177.674 949.161 177.958 946.216 178.527C960.084 179.665 974.142 179.191 987.82 182.036C988.2 182.131 988.58 182.51 989.055 182.89C988.01 184.786 986.205 184.597 984.591 184.786C978.322 185.355 972.052 185.83 965.783 186.399C962.839 186.683 959.894 186.873 957.045 187.537C966.923 187.821 976.707 188.2 986.585 188.485C986.585 188.864 986.68 189.149 986.68 189.528C985.73 189.718 984.686 190.097 983.736 190.097C966.068 190.382 948.306 190.666 930.639 190.761C920.095 190.856 909.552 190.761 899.103 190.571C891.505 190.382 883.811 189.907 876.212 189.623C875.737 189.623 875.262 189.528 874.787 189.149C884.381 187.347 894.069 188.011 903.758 187.157C893.024 185.355 882.006 186.209 871.463 182.605C885.805 179.95 900.338 179.476 914.871 178.812C914.871 178.527 914.871 178.338 914.871 178.053C907.272 177.389 899.578 177.105 892.075 176.062C884.666 175.018 876.972 174.829 870.228 170.941C870.608 168.38 872.033 167.621 873.742 167.147C886.47 163.543 899.483 162.974 912.591 162.311C914.491 162.216 916.296 162.026 918.196 161.836C918.196 161.647 918.196 161.362 918.196 161.173C916.676 160.983 915.061 160.793 913.541 160.698C902.998 159.94 892.644 158.422 882.671 154.629C878.966 153.206 875.357 151.405 872.318 149.034C868.423 145.999 869.848 141.068 873.552 138.602C879.346 134.808 885.995 132.817 892.739 131.679C900.243 130.446 907.842 129.498 915.441 128.455C916.106 128.36 916.771 128.17 917.436 127.601C913.066 127.317 908.792 127.032 904.423 126.653C894.164 125.799 883.906 125.23 874.027 122.006C872.602 121.532 871.368 120.488 870.038 119.825C870.703 116.885 872.792 116.126 874.787 115.842C883.241 114.514 891.6 113.281 900.053 112.238C905.373 111.574 910.787 111.479 916.201 110.626C908.697 110.246 901.193 109.867 893.689 109.488C886.28 109.108 878.872 108.824 871.748 106.643C871.748 106.263 871.653 105.979 871.653 105.599C872.602 105.22 873.552 104.746 874.502 104.651C880.581 104.082 886.565 103.608 892.644 103.229C897.679 102.944 902.713 102.849 907.747 102.66C908.507 102.66 909.267 102.47 910.027 101.996C897.964 101.522 885.9 101.047 873.837 100.478C873.837 100.289 873.837 100.099 873.837 99.8145C879.251 97.0643 982.026 97.5385 986.775 100.573ZM907.082 186.778C907.082 186.968 907.082 187.157 906.987 187.347C907.462 187.347 907.842 187.252 908.317 187.252C908.317 187.157 908.317 186.968 908.317 186.873C907.937 186.873 907.462 186.873 907.082 186.778Z" fill="black"/>
<path d="M126.197 192.462H120.658C120.445 191.278 120.048 190.236 119.468 189.337C118.888 188.437 118.178 187.674 117.337 187.046C116.497 186.419 115.556 185.945 114.514 185.626C113.484 185.306 112.389 185.146 111.229 185.146C109.134 185.146 107.258 185.673 105.601 186.727C103.955 187.78 102.653 189.325 101.695 191.361C100.748 193.397 100.274 195.883 100.274 198.818C100.274 201.777 100.748 204.275 101.695 206.311C102.653 208.347 103.961 209.886 105.619 210.928C107.276 211.969 109.14 212.49 111.212 212.49C112.36 212.49 113.449 212.336 114.479 212.028C115.52 211.709 116.461 211.241 117.302 210.626C118.142 210.01 118.853 209.259 119.433 208.371C120.024 207.471 120.433 206.441 120.658 205.281L126.197 205.299C125.902 207.086 125.327 208.732 124.475 210.235C123.635 211.727 122.552 213.017 121.226 214.106C119.912 215.183 118.409 216.018 116.716 216.609C115.023 217.201 113.177 217.497 111.176 217.497C108.027 217.497 105.222 216.751 102.76 215.26C100.298 213.757 98.3565 211.608 96.9361 208.815C95.5275 206.021 94.8232 202.689 94.8232 198.818C94.8232 194.936 95.5334 191.603 96.9538 188.822C98.3743 186.028 100.316 183.886 102.778 182.394C105.24 180.891 108.039 180.139 111.176 180.139C113.106 180.139 114.905 180.417 116.574 180.974C118.255 181.518 119.764 182.323 121.102 183.388C122.439 184.442 123.546 185.732 124.422 187.259C125.298 188.774 125.89 190.509 126.197 192.462ZM164.35 198.818C164.35 202.701 163.64 206.039 162.219 208.832C160.799 211.614 158.852 213.757 156.378 215.26C153.916 216.751 151.116 217.497 147.979 217.497C144.831 217.497 142.019 216.751 139.545 215.26C137.083 213.757 135.142 211.608 133.721 208.815C132.301 206.021 131.591 202.689 131.591 198.818C131.591 194.936 132.301 191.603 133.721 188.822C135.142 186.028 137.083 183.886 139.545 182.394C142.019 180.891 144.831 180.139 147.979 180.139C151.116 180.139 153.916 180.891 156.378 182.394C158.852 183.886 160.799 186.028 162.219 188.822C163.64 191.603 164.35 194.936 164.35 198.818ZM158.917 198.818C158.917 195.859 158.437 193.367 157.479 191.343C156.532 189.307 155.229 187.768 153.572 186.727C151.927 185.673 150.063 185.146 147.979 185.146C145.884 185.146 144.014 185.673 142.368 186.727C140.723 187.768 139.421 189.307 138.462 191.343C137.515 193.367 137.042 195.859 137.042 198.818C137.042 201.777 137.515 204.275 138.462 206.311C139.421 208.335 140.723 209.874 142.368 210.928C144.014 211.969 145.884 212.49 147.979 212.49C150.063 212.49 151.927 211.969 153.572 210.928C155.229 209.874 156.532 208.335 157.479 206.311C158.437 204.275 158.917 201.777 158.917 198.818ZM171.19 180.636H177.849L189.425 208.903H189.852L201.428 180.636H208.087V217H202.866V190.686H202.529L191.805 216.947H187.472L176.748 190.668H176.411V217H171.19V180.636ZM216.063 217V180.636H229.025C231.854 180.636 234.198 181.151 236.056 182.181C237.915 183.211 239.306 184.62 240.229 186.407C241.152 188.183 241.614 190.183 241.614 192.408C241.614 194.646 241.146 196.658 240.211 198.445C239.288 200.221 237.891 201.629 236.021 202.671C234.162 203.701 231.825 204.216 229.007 204.216H220.094V199.564H228.51C230.298 199.564 231.748 199.256 232.86 198.641C233.973 198.013 234.79 197.161 235.311 196.084C235.831 195.007 236.092 193.781 236.092 192.408C236.092 191.035 235.831 189.816 235.311 188.751C234.79 187.685 233.967 186.851 232.843 186.247C231.73 185.643 230.262 185.342 228.439 185.342H221.55V217H216.063ZM248.046 217V180.636H270.844V185.359H253.532V196.439H269.654V201.144H253.532V212.277H271.057V217H248.046ZM276.379 185.359V180.636H304.522V185.359H293.176V217H287.708V185.359H276.379ZM316.228 180.636V217H310.741V180.636H316.228ZM322.424 185.359V180.636H350.567V185.359H339.221V217H333.752V185.359H322.424ZM362.273 180.636V217H356.786V180.636H362.273ZM373.441 180.636L383.562 210.253H383.97L394.091 180.636H400.021L386.935 217H380.596L367.51 180.636H373.441ZM405.272 217V180.636H428.071V185.359H410.759V196.439H426.881V201.144H410.759V212.277H428.284V217H405.272ZM448.632 217V180.636H454.118V196.439H472.247V180.636H477.751V217H472.247V201.144H454.118V217H448.632ZM509.125 180.636H514.63V204.553C514.63 207.098 514.032 209.353 512.836 211.318C511.641 213.271 509.96 214.81 507.794 215.935C505.627 217.047 503.088 217.604 500.176 217.604C497.276 217.604 494.743 217.047 492.577 215.935C490.411 214.81 488.73 213.271 487.534 211.318C486.339 209.353 485.741 207.098 485.741 204.553V180.636H491.228V204.109C491.228 205.755 491.589 207.217 492.311 208.495C493.045 209.773 494.08 210.78 495.418 211.513C496.756 212.236 498.342 212.597 500.176 212.597C502.023 212.597 503.615 212.236 504.953 211.513C506.302 210.78 507.332 209.773 508.042 208.495C508.764 207.217 509.125 205.755 509.125 204.109V180.636ZM522.606 180.636H529.265L540.841 208.903H541.268L552.844 180.636H559.503V217H554.282V190.686H553.945L543.221 216.947H538.888L528.164 190.668H527.827V217H522.606V180.636ZM570.551 217H564.727L577.813 180.636H584.152L597.238 217H591.414L581.134 187.241H580.849L570.551 217ZM571.528 202.76H590.42V207.376H571.528V202.76ZM631.839 180.636V217H626.797L608.313 190.331H607.976V217H602.489V180.636H607.567L626.069 207.341H626.406V180.636H631.839ZM660.848 196.528V201.126H635.848V196.528H660.848ZM663.049 185.359V180.636H691.192V185.359H679.846V217H674.377V185.359H663.049ZM727.436 198.818C727.436 202.701 726.726 206.039 725.305 208.832C723.885 211.614 721.938 213.757 719.464 215.26C717.001 216.751 714.202 217.497 711.065 217.497C707.916 217.497 705.105 216.751 702.631 215.26C700.169 213.757 698.228 211.608 696.807 208.815C695.387 206.021 694.677 202.689 694.677 198.818C694.677 194.936 695.387 191.603 696.807 188.822C698.228 186.028 700.169 183.886 702.631 182.394C705.105 180.891 707.916 180.139 711.065 180.139C714.202 180.139 717.001 180.891 719.464 182.394C721.938 183.886 723.885 186.028 725.305 188.822C726.726 191.603 727.436 194.936 727.436 198.818ZM722.003 198.818C722.003 195.859 721.523 193.367 720.564 191.343C719.617 189.307 718.315 187.768 716.658 186.727C715.013 185.673 713.148 185.146 711.065 185.146C708.97 185.146 707.1 185.673 705.454 186.727C703.809 187.768 702.507 189.307 701.548 191.343C700.601 193.367 700.128 195.859 700.128 198.818C700.128 201.777 700.601 204.275 701.548 206.311C702.507 208.335 703.809 209.874 705.454 210.928C707.1 211.969 708.97 212.49 711.065 212.49C713.148 212.49 715.013 211.969 716.658 210.928C718.315 209.874 719.617 208.335 720.564 206.311C721.523 204.275 722.003 201.777 722.003 198.818ZM755.281 196.528V201.126H730.281V196.528H755.281ZM95.995 278V241.636H101.482V257.439H119.61V241.636H125.114V278H119.61V262.144H101.482V278H95.995ZM156.489 241.636H161.993V265.553C161.993 268.098 161.395 270.353 160.2 272.318C159.004 274.271 157.323 275.81 155.157 276.935C152.991 278.047 150.452 278.604 147.54 278.604C144.64 278.604 142.107 278.047 139.94 276.935C137.774 275.81 136.093 274.271 134.898 272.318C133.702 270.353 133.104 268.098 133.104 265.553V241.636H138.591V265.109C138.591 266.755 138.952 268.217 139.674 269.495C140.408 270.773 141.444 271.78 142.781 272.513C144.119 273.236 145.705 273.597 147.54 273.597C149.386 273.597 150.978 273.236 152.316 272.513C153.665 271.78 154.695 270.773 155.406 269.495C156.128 268.217 156.489 266.755 156.489 265.109V241.636ZM169.97 241.636H176.628L188.205 269.903H188.631L200.208 241.636H206.866V278H201.646V251.686H201.308L190.584 277.947H186.252L175.527 251.668H175.19V278H169.97V241.636ZM217.914 278H212.091L225.176 241.636H231.515L244.601 278H238.777L228.497 248.241H228.213L217.914 278ZM218.891 263.76H237.783V268.376H218.891V263.76ZM279.203 241.636V278H274.16L255.676 251.331H255.339V278H249.852V241.636H254.931L273.432 268.341H273.769V241.636H279.203ZM300.438 278V241.636H323.237V246.359H305.925V257.439H322.047V262.144H305.925V273.277H323.45V278H300.438ZM333.744 241.636L343.864 271.253H344.273L354.393 241.636H360.324L347.238 278H340.899L327.813 241.636H333.744ZM365.575 278V241.636H388.373V246.359H371.062V257.439H387.184V262.144H371.062V273.277H388.586V278H365.575ZM425.052 241.636V278H420.01L401.526 251.331H401.189V278H395.702V241.636H400.78L419.282 268.341H419.619V241.636H425.052ZM431.262 246.359V241.636H459.405V246.359H448.059V278H442.59V246.359H431.262ZM478.856 278V241.636H491.818C494.635 241.636 496.973 242.122 498.831 243.092C500.702 244.063 502.099 245.406 503.022 247.123C503.945 248.827 504.407 250.798 504.407 253.036C504.407 255.261 503.939 257.22 503.004 258.913C502.081 260.594 500.684 261.902 498.814 262.837C496.955 263.772 494.617 264.239 491.8 264.239H481.981V259.516H491.303C493.079 259.516 494.523 259.262 495.635 258.753C496.76 258.244 497.583 257.504 498.104 256.533C498.624 255.563 498.885 254.397 498.885 253.036C498.885 251.662 498.618 250.473 498.086 249.467C497.565 248.46 496.742 247.691 495.618 247.158C494.505 246.614 493.043 246.342 491.232 246.342H484.343V278H478.856ZM496.807 261.594L505.792 278H499.542L490.735 261.594H496.807ZM514.155 278H508.331L521.417 241.636H527.756L540.841 278H535.018L524.737 248.241H524.453L514.155 278ZM515.131 263.76H534.023V268.376H515.131V263.76ZM574.586 253.462H569.046C568.833 252.278 568.437 251.236 567.857 250.337C567.277 249.437 566.566 248.674 565.726 248.046C564.886 247.419 563.945 246.945 562.903 246.626C561.873 246.306 560.778 246.146 559.618 246.146C557.523 246.146 555.647 246.673 553.99 247.727C552.344 248.78 551.042 250.325 550.083 252.361C549.136 254.397 548.663 256.883 548.663 259.818C548.663 262.777 549.136 265.275 550.083 267.311C551.042 269.347 552.35 270.886 554.007 271.928C555.664 272.969 557.529 273.49 559.6 273.49C560.749 273.49 561.838 273.336 562.867 273.028C563.909 272.709 564.85 272.241 565.691 271.626C566.531 271.01 567.241 270.259 567.821 269.371C568.413 268.471 568.821 267.441 569.046 266.281L574.586 266.299C574.29 268.086 573.716 269.732 572.864 271.235C572.023 272.727 570.94 274.017 569.615 275.106C568.301 276.183 566.797 277.018 565.105 277.609C563.412 278.201 561.565 278.497 559.565 278.497C556.416 278.497 553.611 277.751 551.149 276.26C548.686 274.757 546.745 272.608 545.325 269.815C543.916 267.021 543.212 263.689 543.212 259.818C543.212 255.936 543.922 252.603 545.343 249.822C546.763 247.028 548.704 244.886 551.166 243.394C553.628 241.891 556.428 241.139 559.565 241.139C561.494 241.139 563.294 241.417 564.963 241.974C566.643 242.518 568.153 243.323 569.49 244.388C570.828 245.442 571.935 246.732 572.811 248.259C573.686 249.774 574.278 251.509 574.586 253.462ZM581.151 278V241.636H603.95V246.359H586.638V257.439H602.76V262.144H586.638V273.277H604.163V278H581.151ZM631.111 251.189C630.922 249.508 630.141 248.206 628.768 247.283C627.394 246.348 625.666 245.88 623.583 245.88C622.091 245.88 620.801 246.117 619.712 246.59C618.623 247.052 617.777 247.691 617.173 248.508C616.581 249.313 616.285 250.23 616.285 251.26C616.285 252.124 616.487 252.87 616.889 253.497C617.303 254.125 617.842 254.651 618.505 255.077C619.18 255.492 619.902 255.841 620.671 256.125C621.44 256.397 622.18 256.622 622.89 256.8L626.442 257.723C627.602 258.007 628.791 258.392 630.01 258.877C631.23 259.362 632.36 260.002 633.402 260.795C634.443 261.588 635.284 262.57 635.923 263.742C636.574 264.914 636.9 266.317 636.9 267.95C636.9 270.01 636.367 271.839 635.302 273.437C634.248 275.035 632.715 276.295 630.703 277.219C628.702 278.142 626.282 278.604 623.441 278.604C620.718 278.604 618.363 278.172 616.374 277.308C614.385 276.443 612.829 275.218 611.704 273.632C610.58 272.034 609.958 270.14 609.84 267.95H615.344C615.451 269.264 615.877 270.359 616.623 271.235C617.38 272.099 618.345 272.744 619.517 273.17C620.701 273.585 621.997 273.792 623.405 273.792C624.956 273.792 626.335 273.549 627.542 273.064C628.762 272.567 629.72 271.88 630.419 271.004C631.117 270.116 631.466 269.081 631.466 267.897C631.466 266.82 631.159 265.938 630.543 265.251C629.939 264.565 629.117 263.997 628.075 263.547C627.045 263.097 625.879 262.701 624.577 262.357L620.28 261.185C617.368 260.392 615.06 259.226 613.356 257.688C611.663 256.149 610.817 254.113 610.817 251.58C610.817 249.484 611.385 247.656 612.521 246.093C613.657 244.531 615.196 243.317 617.138 242.453C619.079 241.577 621.269 241.139 623.707 241.139C626.169 241.139 628.341 241.571 630.224 242.435C632.117 243.299 633.609 244.489 634.698 246.004C635.787 247.508 636.355 249.236 636.403 251.189H631.111ZM677.995 282.652C674.326 282.652 671.07 282.149 668.23 281.143C665.401 280.148 663.015 278.687 661.074 276.757C659.133 274.816 657.659 272.442 656.653 269.637C655.647 266.832 655.144 263.63 655.144 260.031C655.144 256.527 655.653 253.379 656.671 250.585C657.689 247.792 659.168 245.412 661.11 243.447C663.063 241.471 665.436 239.961 668.23 238.92C671.023 237.878 674.195 237.357 677.747 237.357C681.144 237.357 684.139 237.89 686.731 238.955C689.323 240.021 691.501 241.482 693.265 243.341C695.041 245.199 696.378 247.33 697.278 249.733C698.177 252.136 698.627 254.675 698.627 257.35C698.627 259.22 698.509 261.049 698.272 262.837C698.035 264.612 697.597 266.222 696.958 267.666C696.331 269.098 695.419 270.247 694.224 271.111C693.04 271.963 691.501 272.407 689.607 272.442C688.601 272.478 687.625 272.36 686.678 272.087C685.731 271.815 684.926 271.377 684.263 270.773C683.6 270.158 683.198 269.377 683.056 268.43H682.843C682.558 269.128 682.085 269.779 681.422 270.383C680.759 270.975 679.913 271.448 678.883 271.803C677.865 272.147 676.681 272.289 675.332 272.229C673.84 272.17 672.497 271.833 671.301 271.217C670.106 270.602 669.082 269.75 668.23 268.661C667.389 267.571 666.744 266.281 666.294 264.79C665.844 263.298 665.619 261.641 665.619 259.818C665.619 258.066 665.874 256.498 666.383 255.113C666.892 253.716 667.584 252.515 668.46 251.509C669.348 250.491 670.366 249.686 671.514 249.094C672.663 248.502 673.876 248.129 675.154 247.975C676.397 247.833 677.539 247.869 678.581 248.082C679.623 248.295 680.487 248.62 681.173 249.058C681.872 249.496 682.31 249.976 682.487 250.496H682.718V248.508H687.086V264.985C687.086 265.92 687.329 266.713 687.814 267.364C688.311 268.015 689.016 268.341 689.927 268.341C691.004 268.341 691.845 267.944 692.448 267.151C693.064 266.358 693.496 265.139 693.744 263.494C694.005 261.848 694.135 259.741 694.135 257.173C694.135 255.373 693.892 253.681 693.407 252.094C692.934 250.496 692.229 249.052 691.294 247.762C690.371 246.46 689.235 245.341 687.885 244.406C686.536 243.471 684.997 242.749 683.269 242.24C681.552 241.731 679.652 241.477 677.569 241.477C674.74 241.477 672.225 241.915 670.023 242.79C667.821 243.655 665.963 244.903 664.448 246.537C662.944 248.17 661.802 250.129 661.021 252.414C660.251 254.687 659.867 257.238 659.867 260.067C659.867 263.014 660.263 265.63 661.056 267.915C661.849 270.187 663.021 272.105 664.572 273.668C666.123 275.23 668.04 276.42 670.325 277.237C672.609 278.041 675.243 278.444 678.226 278.444C679.552 278.444 680.854 278.326 682.132 278.089C683.411 277.864 684.547 277.609 685.541 277.325C686.548 277.029 687.299 276.793 687.796 276.615L689.039 280.504C688.305 280.847 687.329 281.184 686.11 281.516C684.902 281.847 683.588 282.119 682.168 282.332C680.759 282.545 679.368 282.652 677.995 282.652ZM676.362 267.879C677.901 267.879 679.137 267.571 680.073 266.956C681.02 266.34 681.7 265.423 682.115 264.204C682.541 262.973 682.754 261.434 682.754 259.587C682.742 257.788 682.511 256.356 682.061 255.29C681.623 254.213 680.937 253.444 680.002 252.982C679.078 252.509 677.889 252.272 676.433 252.272C675.095 252.272 673.953 252.598 673.006 253.249C672.071 253.9 671.355 254.781 670.857 255.894C670.372 257.007 670.124 258.244 670.112 259.605C670.124 261.037 670.325 262.387 670.715 263.653C671.118 264.908 671.769 265.926 672.669 266.707C673.58 267.489 674.811 267.879 676.362 267.879ZM115.828 312.189C115.639 310.508 114.857 309.206 113.484 308.283C112.111 307.348 110.383 306.88 108.3 306.88C106.808 306.88 105.518 307.117 104.429 307.59C103.34 308.052 102.494 308.691 101.89 309.508C101.298 310.313 101.002 311.23 101.002 312.26C101.002 313.124 101.203 313.87 101.606 314.497C102.02 315.125 102.559 315.651 103.222 316.077C103.896 316.492 104.618 316.841 105.388 317.125C106.157 317.397 106.897 317.622 107.607 317.8L111.158 318.723C112.318 319.007 113.508 319.392 114.727 319.877C115.946 320.362 117.077 321.002 118.119 321.795C119.16 322.588 120.001 323.57 120.64 324.742C121.291 325.914 121.616 327.317 121.616 328.95C121.616 331.01 121.084 332.839 120.018 334.437C118.965 336.035 117.432 337.295 115.42 338.219C113.419 339.142 110.999 339.604 108.158 339.604C105.435 339.604 103.08 339.172 101.091 338.308C99.1023 337.443 97.5457 336.218 96.4212 334.632C95.2966 333.034 94.6752 331.14 94.5568 328.95H100.061C100.168 330.264 100.594 331.359 101.339 332.235C102.097 333.099 103.062 333.744 104.234 334.17C105.417 334.585 106.714 334.792 108.122 334.792C109.673 334.792 111.052 334.549 112.259 334.064C113.478 333.567 114.437 332.88 115.136 332.004C115.834 331.116 116.183 330.081 116.183 328.897C116.183 327.82 115.875 326.938 115.26 326.251C114.656 325.565 113.834 324.997 112.792 324.547C111.762 324.097 110.596 323.701 109.294 323.357L104.997 322.185C102.085 321.392 99.777 320.226 98.0724 318.688C96.3797 317.149 95.5334 315.113 95.5334 312.58C95.5334 310.484 96.1016 308.656 97.2379 307.093C98.3743 305.531 99.9131 304.317 101.854 303.453C103.796 302.577 105.986 302.139 108.424 302.139C110.886 302.139 113.058 302.571 114.94 303.435C116.834 304.299 118.326 305.489 119.415 307.004C120.504 308.508 121.072 310.236 121.119 312.189H115.828ZM151.557 302.636H157.061V326.553C157.061 329.098 156.463 331.353 155.268 333.318C154.072 335.271 152.392 336.81 150.225 337.935C148.059 339.047 145.52 339.604 142.608 339.604C139.708 339.604 137.175 339.047 135.009 337.935C132.843 336.81 131.162 335.271 129.966 333.318C128.771 331.353 128.173 329.098 128.173 326.553V302.636H133.659V326.109C133.659 327.755 134.02 329.217 134.742 330.495C135.476 331.773 136.512 332.78 137.85 333.513C139.187 334.236 140.773 334.597 142.608 334.597C144.455 334.597 146.047 334.236 147.384 333.513C148.734 332.78 149.764 331.773 150.474 330.495C151.196 329.217 151.557 327.755 151.557 326.109V302.636ZM165.038 339V302.636H178C180.829 302.636 183.172 303.151 185.031 304.181C186.889 305.211 188.28 306.62 189.203 308.407C190.127 310.183 190.588 312.183 190.588 314.408C190.588 316.646 190.121 318.658 189.186 320.445C188.262 322.221 186.866 323.629 184.995 324.671C183.137 325.701 180.799 326.216 177.982 326.216H169.069V321.564H177.485C179.272 321.564 180.722 321.256 181.835 320.641C182.948 320.013 183.764 319.161 184.285 318.084C184.806 317.007 185.066 315.781 185.066 314.408C185.066 313.035 184.806 311.816 184.285 310.751C183.764 309.685 182.942 308.851 181.817 308.247C180.704 307.643 179.237 307.342 177.414 307.342H170.525V339H165.038ZM197.02 339V302.636H219.819V307.359H202.507V318.439H218.629V323.144H202.507V334.277H220.032V339H197.02ZM227.147 339V302.636H240.109C242.926 302.636 245.264 303.122 247.123 304.092C248.993 305.063 250.39 306.406 251.313 308.123C252.236 309.827 252.698 311.798 252.698 314.036C252.698 316.261 252.23 318.22 251.295 319.913C250.372 321.594 248.975 322.902 247.105 323.837C245.246 324.772 242.908 325.239 240.091 325.239H230.272V320.516H239.594C241.37 320.516 242.814 320.262 243.926 319.753C245.051 319.244 245.874 318.504 246.395 317.533C246.915 316.563 247.176 315.397 247.176 314.036C247.176 312.662 246.909 311.473 246.377 310.467C245.856 309.46 245.033 308.691 243.909 308.158C242.796 307.614 241.334 307.342 239.523 307.342H232.634V339H227.147ZM245.098 322.594L254.083 339H247.833L239.026 322.594H245.098ZM259.374 339V302.636H264.86V334.277H281.338V339H259.374ZM292.524 339H286.7L299.786 302.636H306.125L319.211 339H313.387L303.106 309.241H302.822L292.524 339ZM293.5 324.76H312.392V329.376H293.5V324.76ZM324.462 339V302.636H337.423C340.253 302.636 342.596 303.151 344.455 304.181C346.313 305.211 347.704 306.62 348.627 308.407C349.551 310.183 350.012 312.183 350.012 314.408C350.012 316.646 349.545 318.658 348.61 320.445C347.686 322.221 346.289 323.629 344.419 324.671C342.561 325.701 340.223 326.216 337.406 326.216H328.492V321.564H336.909C338.696 321.564 340.146 321.256 341.259 320.641C342.371 320.013 343.188 319.161 343.709 318.084C344.23 317.007 344.49 315.781 344.49 314.408C344.49 313.035 344.23 311.816 343.709 310.751C343.188 309.685 342.365 308.851 341.241 308.247C340.128 307.643 338.66 307.342 336.838 307.342H329.948V339H324.462Z" fill="black"/>
<rect x="1088" y="700.043" width="78.0422" height="78.0422" transform="rotate(180 1088 700.043)" fill="black"/>
<rect x="1011.25" y="778.086" width="78.0422" height="78.0422" transform="rotate(180 1011.25 778.086)" fill="black"/>
<rect x="934.211" y="700.043" width="78.0422" height="78.0422" transform="rotate(180 934.211 700.043)" fill="black"/>
<rect x="856.164" y="778.086" width="78.0422" height="78.0422" transform="rotate(180 856.164 778.086)" fill="black"/>
<rect x="778.125" y="700.043" width="78.0422" height="78.0422" transform="rotate(180 778.125 700.043)" fill="black"/>
<rect x="700.086" y="778.086" width="78.0422" height="78.0422" transform="rotate(180 700.086 778.086)" fill="black"/>
<rect x="622.039" y="700.043" width="78.0422" height="78.0422" transform="rotate(180 622.039 700.043)" fill="black"/>
<rect x="544" y="778.086" width="78.0422" height="78.0422" transform="rotate(180 544 778.086)" fill="black"/>
<rect x="463.664" y="700.043" width="78.0422" height="78.0422" transform="rotate(180 463.664 700.043)" fill="black"/>
<rect x="385.617" y="778.086" width="78.0422" height="78.0422" transform="rotate(180 385.617 778.086)" fill="black"/>
<rect x="309.875" y="700.043" width="78.0422" height="78.0422" transform="rotate(180 309.875 700.043)" fill="black"/>
<rect x="231.836" y="778.086" width="78.0422" height="78.0422" transform="rotate(180 231.836 778.086)" fill="black"/>
<rect x="155.492" y="700.043" width="78.0422" height="78.0422" transform="rotate(180 155.492 700.043)" fill="black"/>
<rect x="78.0391" y="778.086" width="78.0422" height="78.0422" transform="rotate(180 78.0391 778.086)" fill="black"/>
<rect x="1088" y="544.043" width="78.0422" height="78.0422" transform="rotate(180 1088 544.043)" fill="black"/>
<rect x="1011.25" y="622.086" width="78.0422" height="78.0422" transform="rotate(180 1011.25 622.086)" fill="black"/>
<rect x="934.211" y="544.043" width="78.0422" height="78.0422" transform="rotate(180 934.211 544.043)" fill="black"/>
<rect x="856.164" y="622.086" width="78.0422" height="78.0422" transform="rotate(180 856.164 622.086)" fill="black"/>
<rect x="778.125" y="544.043" width="78.0422" height="78.0422" transform="rotate(180 778.125 544.043)" fill="black"/>
<rect x="700.086" y="622.086" width="78.0422" height="78.0422" transform="rotate(180 700.086 622.086)" fill="black"/>
<rect x="622.039" y="544.043" width="78.0422" height="78.0422" transform="rotate(180 622.039 544.043)" fill="black"/>
<rect x="544" y="622.086" width="78.0422" height="78.0422" transform="rotate(180 544 622.086)" fill="black"/>
<rect x="463.664" y="544.043" width="78.0422" height="78.0422" transform="rotate(180 463.664 544.043)" fill="black"/>
<rect x="385.617" y="622.086" width="78.0422" height="78.0422" transform="rotate(180 385.617 622.086)" fill="black"/>
<rect x="309.875" y="544.043" width="78.0422" height="78.0422" transform="rotate(180 309.875 544.043)" fill="black"/>
<rect x="231.836" y="622.086" width="78.0422" height="78.0422" transform="rotate(180 231.836 622.086)" fill="black"/>
<rect x="155.492" y="544.043" width="78.0422" height="78.0422" transform="rotate(180 155.492 544.043)" fill="black"/>
<rect x="78.0391" y="622.086" width="78.0422" height="78.0422" transform="rotate(180 78.0391 622.086)" fill="black"/>
<rect x="1088" y="854.773" width="78.0422" height="78.0422" transform="rotate(180 1088 854.773)" fill="black"/>
<rect x="1011.25" y="932.816" width="78.0422" height="78.0422" transform="rotate(180 1011.25 932.816)" fill="black"/>
<rect x="934.211" y="854.773" width="78.0422" height="78.0422" transform="rotate(180 934.211 854.773)" fill="black"/>
<rect x="856.164" y="932.816" width="78.0422" height="78.0422" transform="rotate(180 856.164 932.816)" fill="black"/>
<rect x="778.125" y="854.773" width="78.0422" height="78.0422" transform="rotate(180 778.125 854.773)" fill="black"/>
<rect x="700.086" y="932.816" width="78.0422" height="78.0422" transform="rotate(180 700.086 932.816)" fill="black"/>
<rect x="622.039" y="854.773" width="78.0422" height="78.0422" transform="rotate(180 622.039 854.773)" fill="black"/>
<rect x="544" y="932.816" width="78.0422" height="78.0422" transform="rotate(180 544 932.816)" fill="black"/>
<rect x="463.664" y="854.773" width="78.0422" height="78.0422" transform="rotate(180 463.664 854.773)" fill="black"/>
<rect x="385.617" y="932.816" width="78.0422" height="78.0422" transform="rotate(180 385.617 932.816)" fill="black"/>
<rect x="309.875" y="854.773" width="78.0422" height="78.0422" transform="rotate(180 309.875 854.773)" fill="black"/>
<rect x="231.836" y="932.816" width="78.0422" height="78.0422" transform="rotate(180 231.836 932.816)" fill="black"/>
<rect x="155.492" y="854.773" width="78.0422" height="78.0422" transform="rotate(180 155.492 854.773)" fill="black"/>
<rect x="78.0391" y="932.816" width="78.0422" height="78.0422" transform="rotate(180 78.0391 932.816)" fill="black"/>
<rect x="1088" y="1009.77" width="78.0422" height="78.0422" transform="rotate(180 1088 1009.77)" fill="black"/>
<rect x="1011.25" y="1087.82" width="78.0422" height="78.0422" transform="rotate(180 1011.25 1087.82)" fill="black"/>
<rect x="934.211" y="1009.77" width="78.0422" height="78.0422" transform="rotate(180 934.211 1009.77)" fill="black"/>
<rect x="856.164" y="1087.82" width="78.0422" height="78.0422" transform="rotate(180 856.164 1087.82)" fill="black"/>
<rect x="778.125" y="1009.77" width="78.0422" height="78.0422" transform="rotate(180 778.125 1009.77)" fill="black"/>
<rect x="700.086" y="1087.82" width="78.0422" height="78.0422" transform="rotate(180 700.086 1087.82)" fill="black"/>
<rect x="622.039" y="1009.77" width="78.0422" height="78.0422" transform="rotate(180 622.039 1009.77)" fill="black"/>
<rect x="544" y="1087.82" width="78.0422" height="78.0422" transform="rotate(180 544 1087.82)" fill="black"/>
<rect x="463.664" y="1009.77" width="78.0422" height="78.0422" transform="rotate(180 463.664 1009.77)" fill="black"/>
<rect x="385.617" y="1087.82" width="78.0422" height="78.0422" transform="rotate(180 385.617 1087.82)" fill="black"/>
<rect x="309.875" y="1009.77" width="78.0422" height="78.0422" transform="rotate(180 309.875 1009.77)" fill="black"/>
<rect x="231.836" y="1087.82" width="78.0422" height="78.0422" transform="rotate(180 231.836 1087.82)" fill="black"/>
<rect x="155.492" y="1009.77" width="78.0422" height="78.0422" transform="rotate(180 155.492 1009.77)" fill="black"/>
<rect x="78.0391" y="1087.82" width="78.0422" height="78.0422" transform="rotate(180 78.0391 1087.82)" fill="black"/>
</svg>
