<svg width="1088" height="1088" viewBox="0 0 1088 1088" fill="none" xmlns="http://www.w3.org/2000/svg">
<rect x="5" y="5" width="1078" height="1078" fill="#F7CB00" stroke="#FAF6EF" stroke-width="10"/>
<path d="M178.835 696H119.975V514.182H180.7C198.514 514.182 213.814 517.822 226.598 525.102C239.382 532.322 249.177 542.709 255.984 556.263C262.849 569.757 266.282 585.944 266.282 604.825C266.282 623.764 262.82 640.04 255.895 653.653C249.029 667.265 239.086 677.741 226.065 685.08C213.045 692.36 197.301 696 178.835 696ZM147.408 672.03H177.326C191.175 672.03 202.687 669.426 211.861 664.217C221.035 658.95 227.9 651.344 232.457 641.401C237.015 631.399 239.293 619.207 239.293 604.825C239.293 590.561 237.015 578.457 232.457 568.514C227.959 558.571 221.242 551.025 212.305 545.876C203.368 540.727 192.27 538.152 179.013 538.152H147.408V672.03ZM298.264 696V559.636H323.921V581.298H325.342C327.828 573.959 332.207 568.189 338.481 563.987C344.814 559.725 351.975 557.594 359.965 557.594C361.623 557.594 363.576 557.654 365.825 557.772C368.133 557.89 369.938 558.038 371.24 558.216V583.607C370.175 583.311 368.281 582.985 365.558 582.63C362.836 582.216 360.113 582.009 357.391 582.009C351.117 582.009 345.524 583.34 340.612 586.004C335.758 588.608 331.911 592.248 329.07 596.923C326.23 601.54 324.809 606.807 324.809 612.726V696H298.264ZM394.212 696V559.636H420.756V696H394.212ZM407.617 538.596C403.001 538.596 399.035 537.057 395.721 533.979C392.466 530.843 390.838 527.114 390.838 522.793C390.838 518.414 392.466 514.685 395.721 511.607C399.035 508.47 403.001 506.902 407.617 506.902C412.234 506.902 416.17 508.47 419.425 511.607C422.739 514.685 424.396 518.414 424.396 522.793C424.396 527.114 422.739 530.843 419.425 533.979C416.17 537.057 412.234 538.596 407.617 538.596ZM483.012 514.182V696H456.468V514.182H483.012ZM545.268 514.182V696H518.723V514.182H545.268ZM119.975 758.182H153.267L211.151 899.517H213.281L271.165 758.182H304.457V940H278.356V808.43H276.669L223.047 939.734H201.385L147.763 808.342H146.076V940H119.975V758.182ZM399.649 942.752C386.865 942.752 375.709 939.822 366.18 933.963C356.651 928.104 349.253 919.906 343.985 909.371C338.718 898.836 336.084 886.526 336.084 872.44C336.084 858.294 338.718 845.924 343.985 835.33C349.253 824.736 356.651 816.509 366.18 810.65C375.709 804.79 386.865 801.861 399.649 801.861C412.433 801.861 423.59 804.79 433.119 810.65C442.648 816.509 450.046 824.736 455.313 835.33C460.581 845.924 463.215 858.294 463.215 872.44C463.215 886.526 460.581 898.836 455.313 909.371C450.046 919.906 442.648 928.104 433.119 933.963C423.59 939.822 412.433 942.752 399.649 942.752ZM399.738 920.469C408.024 920.469 414.89 918.279 420.335 913.899C425.78 909.519 429.804 903.69 432.409 896.41C435.072 889.13 436.404 881.11 436.404 872.351C436.404 863.651 435.072 855.661 432.409 848.381C429.804 841.042 425.78 835.153 420.335 830.714C414.89 826.275 408.024 824.055 399.738 824.055C391.393 824.055 384.468 826.275 378.964 830.714C373.519 835.153 369.465 841.042 366.801 848.381C364.197 855.661 362.895 863.651 362.895 872.351C362.895 881.11 364.197 889.13 366.801 896.41C369.465 903.69 373.519 909.519 378.964 913.899C384.468 918.279 391.393 920.469 399.738 920.469ZM543.892 942.663C532.884 942.663 523.059 939.852 514.418 934.229C505.836 928.548 499.089 920.469 494.176 909.993C489.323 899.458 486.896 886.822 486.896 872.085C486.896 857.347 489.353 844.741 494.265 834.265C499.237 823.789 506.043 815.769 514.684 810.206C523.325 804.643 533.12 801.861 544.07 801.861C552.533 801.861 559.339 803.281 564.489 806.122C569.697 808.904 573.722 812.159 576.562 815.888C579.463 819.616 581.712 822.901 583.31 825.742H584.908V758.182H611.452V940H585.529V918.782H583.31C581.712 921.682 579.403 924.996 576.385 928.725C573.426 932.454 569.342 935.709 564.134 938.491C558.925 941.272 552.178 942.663 543.892 942.663ZM549.751 920.025C557.386 920.025 563.838 918.013 569.105 913.988C574.432 909.904 578.456 904.252 581.179 897.031C583.961 889.811 585.352 881.406 585.352 871.818C585.352 862.348 583.99 854.062 581.268 846.96C578.545 839.858 574.55 834.324 569.283 830.359C564.015 826.393 557.505 824.411 549.751 824.411C541.761 824.411 535.103 826.482 529.776 830.625C524.45 834.768 520.425 840.42 517.702 847.582C515.039 854.743 513.707 862.822 513.707 871.818C513.707 880.933 515.069 889.13 517.791 896.41C520.514 903.69 524.538 909.46 529.865 913.722C535.251 917.924 541.88 920.025 549.751 920.025ZM708.11 942.752C694.675 942.752 683.104 939.882 673.398 934.141C663.75 928.34 656.293 920.202 651.025 909.727C645.817 899.192 643.213 886.851 643.213 872.706C643.213 858.738 645.817 846.428 651.025 835.774C656.293 825.121 663.632 816.805 673.042 810.827C682.512 804.85 693.58 801.861 706.246 801.861C713.94 801.861 721.397 803.133 728.618 805.678C735.838 808.223 742.319 812.218 748.06 817.663C753.801 823.108 758.329 830.181 761.643 838.881C764.958 847.522 766.615 858.028 766.615 870.398V879.808H658.216V859.922H740.603C740.603 852.938 739.182 846.753 736.341 841.367C733.501 835.922 729.506 831.631 724.356 828.494C719.266 825.357 713.289 823.789 706.423 823.789C698.966 823.789 692.455 825.624 686.892 829.293C681.388 832.904 677.126 837.638 674.108 843.498C671.148 849.298 669.669 855.601 669.669 862.408V877.944C669.669 887.058 671.267 894.812 674.463 901.204C677.718 907.596 682.246 912.479 688.046 915.852C693.846 919.167 700.623 920.824 708.376 920.824C713.407 920.824 717.994 920.114 722.137 918.693C726.28 917.214 729.861 915.024 732.879 912.124C735.898 909.223 738.206 905.643 739.804 901.381L764.928 905.909C762.916 913.307 759.305 919.788 754.097 925.352C748.948 930.856 742.467 935.147 734.655 938.224C726.901 941.243 718.053 942.752 708.11 942.752Z" fill="black"/>
<path d="M95.1605 137V100.636H109.507C112.265 100.636 114.615 101.163 116.556 102.217C118.497 103.258 119.977 104.708 120.995 106.567C122.025 108.413 122.54 110.544 122.54 112.959C122.54 115.374 122.019 117.504 120.977 119.351C119.936 121.197 118.426 122.636 116.45 123.665C114.485 124.695 112.105 125.21 109.312 125.21H100.168V119.049H108.069C109.549 119.049 110.768 118.795 111.727 118.286C112.697 117.765 113.419 117.049 113.893 116.137C114.378 115.214 114.621 114.154 114.621 112.959C114.621 111.751 114.378 110.698 113.893 109.798C113.419 108.887 112.697 108.183 111.727 107.685C110.756 107.176 109.525 106.922 108.033 106.922H102.849V137H95.1605ZM127.534 137V100.636H141.88C144.626 100.636 146.97 101.128 148.911 102.11C150.865 103.081 152.35 104.46 153.368 106.247C154.398 108.023 154.913 110.112 154.913 112.515C154.913 114.93 154.392 117.007 153.35 118.747C152.309 120.475 150.799 121.801 148.823 122.724C146.858 123.648 144.478 124.109 141.685 124.109H132.079V117.93H140.442C141.91 117.93 143.129 117.729 144.1 117.327C145.07 116.924 145.792 116.321 146.266 115.516C146.751 114.711 146.994 113.71 146.994 112.515C146.994 111.308 146.751 110.29 146.266 109.461C145.792 108.632 145.064 108.005 144.082 107.579C143.111 107.141 141.886 106.922 140.406 106.922H135.222V137H127.534ZM147.171 120.452L156.209 137H147.722L138.879 120.452H147.171ZM166.614 137H158.375L170.928 100.636H180.836L193.372 137H185.133L176.024 108.946H175.74L166.614 137ZM166.099 122.707H185.559V128.708H166.099V122.707ZM228.124 113.367H220.347C220.205 112.361 219.915 111.467 219.477 110.686C219.039 109.893 218.477 109.218 217.79 108.662C217.104 108.106 216.31 107.679 215.411 107.384C214.523 107.088 213.558 106.94 212.517 106.94C210.635 106.94 208.995 107.407 207.598 108.342C206.202 109.266 205.118 110.615 204.349 112.391C203.58 114.154 203.195 116.297 203.195 118.818C203.195 121.411 203.58 123.589 204.349 125.352C205.13 127.116 206.219 128.448 207.616 129.347C209.013 130.247 210.629 130.697 212.463 130.697C213.493 130.697 214.446 130.561 215.322 130.288C216.21 130.016 216.997 129.62 217.684 129.099C218.37 128.566 218.938 127.921 219.388 127.163C219.85 126.406 220.169 125.542 220.347 124.571L228.124 124.607C227.923 126.276 227.42 127.885 226.615 129.436C225.822 130.975 224.75 132.354 223.401 133.573C222.063 134.781 220.465 135.739 218.607 136.45C216.76 137.148 214.671 137.497 212.339 137.497C209.096 137.497 206.196 136.763 203.639 135.295C201.094 133.828 199.082 131.703 197.602 128.921C196.134 126.139 195.4 122.772 195.4 118.818C195.4 114.853 196.146 111.479 197.637 108.697C199.129 105.916 201.153 103.797 203.71 102.341C206.267 100.873 209.143 100.139 212.339 100.139C214.446 100.139 216.399 100.435 218.199 101.027C220.01 101.619 221.614 102.483 223.01 103.619C224.407 104.744 225.543 106.123 226.419 107.756C227.307 109.39 227.875 111.26 228.124 113.367ZM232.252 106.975V100.636H262.117V106.975H250.984V137H243.385V106.975H232.252ZM274.724 100.636V137H267.036V100.636H274.724ZM313.134 113.367H305.357C305.215 112.361 304.925 111.467 304.487 110.686C304.049 109.893 303.486 109.218 302.8 108.662C302.113 108.106 301.32 107.679 300.421 107.384C299.533 107.088 298.568 106.94 297.526 106.94C295.644 106.94 294.005 107.407 292.608 108.342C291.211 109.266 290.128 110.615 289.359 112.391C288.589 114.154 288.205 116.297 288.205 118.818C288.205 121.411 288.589 123.589 289.359 125.352C290.14 127.116 291.229 128.448 292.626 129.347C294.023 130.247 295.638 130.697 297.473 130.697C298.503 130.697 299.456 130.561 300.332 130.288C301.22 130.016 302.007 129.62 302.693 129.099C303.38 128.566 303.948 127.921 304.398 127.163C304.86 126.406 305.179 125.542 305.357 124.571L313.134 124.607C312.932 126.276 312.429 127.885 311.624 129.436C310.831 130.975 309.76 132.354 308.411 133.573C307.073 134.781 305.475 135.739 303.617 136.45C301.77 137.148 299.681 137.497 297.349 137.497C294.106 137.497 291.205 136.763 288.649 135.295C286.104 133.828 284.091 131.703 282.612 128.921C281.144 126.139 280.41 122.772 280.41 118.818C280.41 114.853 281.156 111.479 282.647 108.697C284.139 105.916 286.163 103.797 288.72 102.341C291.276 100.873 294.153 100.139 297.349 100.139C299.456 100.139 301.409 100.435 303.208 101.027C305.019 101.619 306.623 102.483 308.02 103.619C309.417 104.744 310.553 106.123 311.429 107.756C312.317 109.39 312.885 111.26 313.134 113.367ZM318.647 137V100.636H343.15V106.975H326.335V115.64H341.889V121.979H326.335V130.661H343.221V137H318.647ZM360.834 137V100.636H375.181C377.927 100.636 380.271 101.128 382.212 102.11C384.165 103.081 385.651 104.46 386.669 106.247C387.699 108.023 388.214 110.112 388.214 112.515C388.214 114.93 387.693 117.007 386.651 118.747C385.609 120.475 384.1 121.801 382.123 122.724C380.158 123.648 377.779 124.109 374.986 124.109H365.38V117.93H373.743C375.211 117.93 376.43 117.729 377.4 117.327C378.371 116.924 379.093 116.321 379.567 115.516C380.052 114.711 380.295 113.71 380.295 112.515C380.295 111.308 380.052 110.29 379.567 109.461C379.093 108.632 378.365 108.005 377.383 107.579C376.412 107.141 375.187 106.922 373.707 106.922H368.523V137H360.834ZM380.472 120.452L389.51 137H381.023L372.18 120.452H380.472ZM399.915 137H391.676L404.229 100.636H414.137L426.672 137H418.434L409.325 108.946H409.041L399.915 137ZM399.4 122.707H418.86V128.708H399.4V122.707ZM461.425 113.367H453.648C453.506 112.361 453.216 111.467 452.778 110.686C452.34 109.893 451.777 109.218 451.091 108.662C450.404 108.106 449.611 107.679 448.712 107.384C447.824 107.088 446.859 106.94 445.817 106.94C443.935 106.94 442.296 107.407 440.899 108.342C439.502 109.266 438.419 110.615 437.65 112.391C436.88 114.154 436.496 116.297 436.496 118.818C436.496 121.411 436.88 123.589 437.65 125.352C438.431 127.116 439.52 128.448 440.917 129.347C442.314 130.247 443.929 130.697 445.764 130.697C446.794 130.697 447.747 130.561 448.623 130.288C449.511 130.016 450.298 129.62 450.984 129.099C451.671 128.566 452.239 127.921 452.689 127.163C453.151 126.406 453.47 125.542 453.648 124.571L461.425 124.607C461.223 126.276 460.72 127.885 459.915 129.436C459.122 130.975 458.051 132.354 456.702 133.573C455.364 134.781 453.766 135.739 451.908 136.45C450.061 137.148 447.972 137.497 445.64 137.497C442.397 137.497 439.496 136.763 436.94 135.295C434.395 133.828 432.382 131.703 430.903 128.921C429.435 126.139 428.701 122.772 428.701 118.818C428.701 114.853 429.447 111.479 430.938 108.697C432.43 105.916 434.454 103.797 437.011 102.341C439.567 100.873 442.444 100.139 445.64 100.139C447.747 100.139 449.7 100.435 451.499 101.027C453.31 101.619 454.914 102.483 456.311 103.619C457.708 104.744 458.844 106.123 459.72 107.756C460.608 109.39 461.176 111.26 461.425 113.367ZM466.938 137V100.636H491.441V106.975H474.626V115.64H490.18V121.979H474.626V130.661H491.512V137H466.938Z" fill="black"/>
<path d="M986.775 100.573C978.512 100.953 970.248 101.427 962.079 101.806C962.079 102.091 962.079 102.28 962.079 102.565C970.913 103.608 980.031 103.039 988.675 105.505C988.675 105.884 988.77 106.263 988.77 106.737C986.87 107.212 984.971 108.065 983.071 108.16C972.622 108.919 962.079 109.488 951.536 110.151C950.111 110.246 948.781 110.341 947.356 110.436C947.356 110.626 947.356 110.815 947.356 111.005C951.821 111.29 956.38 111.384 960.844 111.953C968.633 112.902 976.327 113.945 984.021 115.367C986.11 115.747 988.01 117.359 989.91 118.402C989.91 118.687 989.91 119.066 989.91 119.35C989.15 120.014 988.39 120.963 987.535 121.247C983.071 122.48 978.512 124.092 973.952 124.661C964.359 125.799 954.575 126.463 944.982 127.222C944.412 127.222 943.937 127.317 943.272 127.696C945.551 127.98 947.736 128.36 950.016 128.549C959.514 129.403 968.823 131.11 977.752 134.524C981.266 135.852 984.591 137.843 987.725 140.024C990.48 141.921 990.67 145.051 988.675 147.801C986.395 150.646 983.546 152.732 980.126 154.06C969.298 158.327 957.995 159.94 946.501 160.698C945.646 160.793 944.887 160.888 944.032 160.983V161.742C945.267 161.836 946.596 162.121 947.831 162.121C959.989 162.5 972.052 163.543 983.831 166.483C986.205 167.052 988.675 167.621 990.005 170.656C988.295 171.604 986.775 172.932 985.066 173.406C975.187 175.872 965.214 177.389 955.05 177.579C952.105 177.674 949.161 177.958 946.216 178.527C960.084 179.665 974.142 179.191 987.82 182.036C988.2 182.131 988.58 182.51 989.055 182.89C988.01 184.786 986.205 184.597 984.591 184.786C978.322 185.355 972.052 185.83 965.783 186.399C962.839 186.683 959.894 186.873 957.045 187.537C966.923 187.821 976.707 188.2 986.585 188.485C986.585 188.864 986.68 189.149 986.68 189.528C985.73 189.718 984.686 190.097 983.736 190.097C966.068 190.382 948.306 190.666 930.639 190.761C920.095 190.856 909.552 190.761 899.103 190.571C891.505 190.382 883.811 189.907 876.212 189.623C875.737 189.623 875.262 189.528 874.787 189.149C884.381 187.347 894.069 188.011 903.758 187.157C893.024 185.355 882.006 186.209 871.463 182.605C885.805 179.95 900.338 179.476 914.871 178.812C914.871 178.527 914.871 178.338 914.871 178.053C907.272 177.389 899.578 177.105 892.075 176.062C884.666 175.018 876.972 174.829 870.228 170.941C870.608 168.38 872.033 167.621 873.742 167.147C886.47 163.543 899.483 162.974 912.591 162.311C914.491 162.216 916.296 162.026 918.196 161.836C918.196 161.647 918.196 161.362 918.196 161.173C916.676 160.983 915.061 160.793 913.541 160.698C902.998 159.94 892.644 158.422 882.671 154.629C878.966 153.206 875.357 151.405 872.318 149.034C868.423 145.999 869.848 141.068 873.552 138.602C879.346 134.808 885.995 132.817 892.739 131.679C900.243 130.446 907.842 129.498 915.441 128.455C916.106 128.36 916.771 128.17 917.436 127.601C913.066 127.317 908.792 127.032 904.423 126.653C894.164 125.799 883.906 125.23 874.027 122.006C872.602 121.532 871.368 120.488 870.038 119.825C870.703 116.885 872.792 116.126 874.787 115.842C883.241 114.514 891.6 113.281 900.053 112.238C905.373 111.574 910.787 111.479 916.201 110.626C908.697 110.246 901.193 109.867 893.689 109.488C886.28 109.108 878.872 108.824 871.748 106.643C871.748 106.263 871.653 105.979 871.653 105.599C872.602 105.22 873.552 104.746 874.502 104.651C880.581 104.082 886.565 103.608 892.644 103.229C897.679 102.944 902.713 102.849 907.747 102.66C908.507 102.66 909.267 102.47 910.027 101.996C897.964 101.522 885.9 101.047 873.837 100.478C873.837 100.289 873.837 100.099 873.837 99.8145C879.251 97.0643 982.026 97.5385 986.775 100.573ZM907.082 186.778C907.082 186.968 907.082 187.157 906.987 187.347C907.462 187.347 907.842 187.252 908.317 187.252C908.317 187.157 908.317 186.968 908.317 186.873C907.937 186.873 907.462 186.873 907.082 186.778Z" fill="black"/>
<path d="M95.995 217V180.636H108.957C111.774 180.636 114.112 181.122 115.97 182.092C117.84 183.063 119.237 184.406 120.161 186.123C121.084 187.827 121.545 189.798 121.545 192.036C121.545 194.261 121.078 196.22 120.143 197.913C119.219 199.594 117.823 200.902 115.952 201.837C114.094 202.772 111.756 203.239 108.939 203.239H99.12V198.516H108.442C110.217 198.516 111.661 198.262 112.774 197.753C113.899 197.244 114.721 196.504 115.242 195.533C115.763 194.563 116.023 193.397 116.023 192.036C116.023 190.662 115.757 189.473 115.224 188.467C114.704 187.46 113.881 186.691 112.756 186.158C111.644 185.614 110.182 185.342 108.371 185.342H101.482V217H95.995ZM113.946 200.594L122.93 217H116.68L107.874 200.594H113.946ZM131.293 217H125.469L138.555 180.636H144.894L157.98 217H152.156L141.876 187.241H141.592L131.293 217ZM132.27 202.76H151.162V207.376H132.27V202.76ZM191.725 192.462H186.185C185.972 191.278 185.575 190.236 184.995 189.337C184.415 188.437 183.705 187.674 182.865 187.046C182.024 186.419 181.083 185.945 180.042 185.626C179.012 185.306 177.917 185.146 176.757 185.146C174.662 185.146 172.785 185.673 171.128 186.727C169.483 187.78 168.181 189.325 167.222 191.361C166.275 193.397 165.801 195.883 165.801 198.818C165.801 201.777 166.275 204.275 167.222 206.311C168.181 208.347 169.489 209.886 171.146 210.928C172.803 211.969 174.667 212.49 176.739 212.49C177.887 212.49 178.976 212.336 180.006 212.028C181.048 211.709 181.989 211.241 182.829 210.626C183.67 210.01 184.38 209.259 184.96 208.371C185.552 207.471 185.96 206.441 186.185 205.281L191.725 205.299C191.429 207.086 190.855 208.732 190.002 210.235C189.162 211.727 188.079 213.017 186.753 214.106C185.439 215.183 183.936 216.018 182.243 216.609C180.551 217.201 178.704 217.497 176.703 217.497C173.555 217.497 170.749 216.751 168.287 215.26C165.825 213.757 163.884 211.608 162.463 208.815C161.055 206.021 160.35 202.689 160.35 198.818C160.35 194.936 161.061 191.603 162.481 188.822C163.902 186.028 165.843 183.886 168.305 182.394C170.767 180.891 173.567 180.139 176.703 180.139C178.633 180.139 180.432 180.417 182.101 180.974C183.782 181.518 185.291 182.323 186.629 183.388C187.967 184.442 189.073 185.732 189.949 187.259C190.825 188.774 191.417 190.509 191.725 192.462ZM198.29 217V180.636H221.088V185.359H203.776V196.439H219.899V201.144H203.776V212.277H221.301V217H198.29ZM244.721 217H238.897L251.983 180.636H258.322L271.408 217H265.584L255.303 187.241H255.019L244.721 217ZM245.698 202.76H264.59V207.376H245.698V202.76ZM299.559 192.124C299.216 191.047 298.755 190.082 298.175 189.23C297.606 188.366 296.926 187.632 296.133 187.028C295.34 186.413 294.434 185.945 293.416 185.626C292.41 185.306 291.303 185.146 290.096 185.146C288.048 185.146 286.201 185.673 284.556 186.727C282.911 187.78 281.608 189.325 280.65 191.361C279.703 193.385 279.229 195.865 279.229 198.8C279.229 201.748 279.709 204.24 280.667 206.276C281.626 208.312 282.94 209.856 284.609 210.91C286.278 211.963 288.178 212.49 290.309 212.49C292.286 212.49 294.008 212.088 295.476 211.283C296.955 210.478 298.098 209.341 298.903 207.874C299.719 206.394 300.128 204.654 300.128 202.653L301.548 202.92H291.143V198.392H305.437V202.529C305.437 205.583 304.786 208.235 303.483 210.484C302.193 212.721 300.406 214.449 298.121 215.668C295.849 216.888 293.244 217.497 290.309 217.497C287.018 217.497 284.13 216.74 281.644 215.224C279.17 213.709 277.241 211.561 275.856 208.779C274.471 205.986 273.778 202.671 273.778 198.836C273.778 195.936 274.181 193.332 274.986 191.023C275.791 188.715 276.921 186.756 278.377 185.146C279.845 183.525 281.567 182.288 283.544 181.435C285.532 180.571 287.705 180.139 290.06 180.139C292.025 180.139 293.854 180.429 295.547 181.009C297.251 181.589 298.766 182.412 300.092 183.477C301.43 184.543 302.537 185.809 303.412 187.277C304.288 188.733 304.88 190.349 305.188 192.124H299.559ZM314.35 217H308.526L321.612 180.636H327.951L341.037 217H335.213L324.932 187.241H324.648L314.35 217ZM315.327 202.76H334.219V207.376H315.327V202.76ZM351.775 180.636V217H346.288V180.636H351.775ZM389.115 180.636V217H384.072L365.588 190.331H365.251V217H359.765V180.636H364.843L383.344 207.341H383.681V180.636H389.115ZM416.951 190.189C416.762 188.508 415.981 187.206 414.607 186.283C413.234 185.348 411.506 184.88 409.423 184.88C407.931 184.88 406.641 185.117 405.552 185.59C404.463 186.052 403.617 186.691 403.013 187.508C402.421 188.313 402.125 189.23 402.125 190.26C402.125 191.124 402.326 191.87 402.729 192.497C403.143 193.125 403.682 193.651 404.345 194.077C405.019 194.492 405.741 194.841 406.511 195.125C407.28 195.397 408.02 195.622 408.73 195.8L412.281 196.723C413.441 197.007 414.631 197.392 415.85 197.877C417.07 198.362 418.2 199.002 419.242 199.795C420.283 200.588 421.124 201.57 421.763 202.742C422.414 203.914 422.74 205.317 422.74 206.95C422.74 209.01 422.207 210.839 421.142 212.437C420.088 214.035 418.555 215.295 416.543 216.219C414.542 217.142 412.122 217.604 409.281 217.604C406.558 217.604 404.203 217.172 402.214 216.308C400.225 215.443 398.669 214.218 397.544 212.632C396.42 211.034 395.798 209.14 395.68 206.95H401.184C401.291 208.264 401.717 209.359 402.463 210.235C403.22 211.099 404.185 211.744 405.357 212.17C406.54 212.585 407.837 212.792 409.245 212.792C410.796 212.792 412.175 212.549 413.382 212.064C414.602 211.567 415.56 210.88 416.259 210.004C416.957 209.116 417.306 208.081 417.306 206.897C417.306 205.82 416.999 204.938 416.383 204.251C415.779 203.565 414.957 202.997 413.915 202.547C412.885 202.097 411.719 201.701 410.417 201.357L406.12 200.185C403.208 199.392 400.9 198.226 399.195 196.688C397.503 195.149 396.656 193.113 396.656 190.58C396.656 188.484 397.225 186.656 398.361 185.093C399.497 183.531 401.036 182.317 402.977 181.453C404.919 180.577 407.109 180.139 409.547 180.139C412.009 180.139 414.181 180.571 416.063 181.435C417.957 182.299 419.449 183.489 420.538 185.004C421.627 186.508 422.195 188.236 422.242 190.189H416.951ZM427.502 185.359V180.636H455.645V185.359H444.299V217H438.831V185.359H427.502ZM478.168 217H472.344L485.43 180.636H491.769L504.855 217H499.031L488.751 187.241H488.467L478.168 217ZM479.145 202.76H498.037V207.376H479.145V202.76ZM539.456 180.636V217H534.414L515.93 190.331H515.593V217H510.106V180.636H515.184L533.686 207.341H534.023V180.636H539.456ZM563.764 217H557.94L571.026 180.636H577.365L590.451 217H584.627L574.346 187.241H574.062L563.764 217ZM564.741 202.76H583.633V207.376H564.741V202.76ZM601.189 180.636V217H595.702V180.636H601.189ZM95.995 278V241.636H108.957C111.774 241.636 114.112 242.122 115.97 243.092C117.84 244.063 119.237 245.406 120.161 247.123C121.084 248.827 121.545 250.798 121.545 253.036C121.545 255.261 121.078 257.22 120.143 258.913C119.219 260.594 117.823 261.902 115.952 262.837C114.094 263.772 111.756 264.239 108.939 264.239H99.12V259.516H108.442C110.217 259.516 111.661 259.262 112.774 258.753C113.899 258.244 114.721 257.504 115.242 256.533C115.763 255.563 116.023 254.397 116.023 253.036C116.023 251.662 115.757 250.473 115.224 249.467C114.704 248.46 113.881 247.691 112.756 247.158C111.644 246.614 110.182 246.342 108.371 246.342H101.482V278H95.995ZM113.946 261.594L122.93 278H116.68L107.874 261.594H113.946ZM159.809 259.818C159.809 263.701 159.099 267.039 157.678 269.832C156.258 272.614 154.311 274.757 151.837 276.26C149.375 277.751 146.575 278.497 143.438 278.497C140.29 278.497 137.478 277.751 135.004 276.26C132.542 274.757 130.601 272.608 129.18 269.815C127.76 267.021 127.05 263.689 127.05 259.818C127.05 255.936 127.76 252.603 129.18 249.822C130.601 247.028 132.542 244.886 135.004 243.394C137.478 241.891 140.29 241.139 143.438 241.139C146.575 241.139 149.375 241.891 151.837 243.394C154.311 244.886 156.258 247.028 157.678 249.822C159.099 252.603 159.809 255.936 159.809 259.818ZM154.376 259.818C154.376 256.859 153.896 254.367 152.938 252.343C151.991 250.307 150.688 248.768 149.031 247.727C147.386 246.673 145.522 246.146 143.438 246.146C141.343 246.146 139.473 246.673 137.827 247.727C136.182 248.768 134.88 250.307 133.921 252.343C132.974 254.367 132.501 256.859 132.501 259.818C132.501 262.777 132.974 265.275 133.921 267.311C134.88 269.335 136.182 270.874 137.827 271.928C139.473 272.969 141.343 273.49 143.438 273.49C145.522 273.49 147.386 272.969 149.031 271.928C150.688 270.874 151.991 269.335 152.938 267.311C153.896 265.275 154.376 262.777 154.376 259.818ZM186.482 251.189C186.293 249.508 185.512 248.206 184.139 247.283C182.766 246.348 181.037 245.88 178.954 245.88C177.463 245.88 176.172 246.117 175.083 246.59C173.994 247.052 173.148 247.691 172.544 248.508C171.952 249.313 171.656 250.23 171.656 251.26C171.656 252.124 171.858 252.87 172.26 253.497C172.674 254.125 173.213 254.651 173.876 255.077C174.551 255.492 175.273 255.841 176.042 256.125C176.811 256.397 177.551 256.622 178.262 256.8L181.813 257.723C182.973 258.007 184.162 258.392 185.382 258.877C186.601 259.362 187.731 260.002 188.773 260.795C189.815 261.588 190.655 262.57 191.294 263.742C191.945 264.914 192.271 266.317 192.271 267.95C192.271 270.01 191.738 271.839 190.673 273.437C189.619 275.035 188.086 276.295 186.074 277.219C184.074 278.142 181.653 278.604 178.812 278.604C176.089 278.604 173.734 278.172 171.745 277.308C169.757 276.443 168.2 275.218 167.075 273.632C165.951 272.034 165.329 270.14 165.211 267.95H170.715C170.822 269.264 171.248 270.359 171.994 271.235C172.751 272.099 173.716 272.744 174.888 273.17C176.072 273.585 177.368 273.792 178.776 273.792C180.327 273.792 181.706 273.549 182.914 273.064C184.133 272.567 185.092 271.88 185.79 271.004C186.488 270.116 186.838 269.081 186.838 267.897C186.838 266.82 186.53 265.938 185.914 265.251C185.311 264.565 184.488 263.997 183.446 263.547C182.416 263.097 181.25 262.701 179.948 262.357L175.651 261.185C172.74 260.392 170.431 259.226 168.727 257.688C167.034 256.149 166.188 254.113 166.188 251.58C166.188 249.484 166.756 247.656 167.892 246.093C169.029 244.531 170.567 243.317 172.509 242.453C174.45 241.577 176.64 241.139 179.078 241.139C181.54 241.139 183.713 241.571 185.595 242.435C187.489 243.299 188.98 244.489 190.069 246.004C191.158 247.508 191.726 249.236 191.774 251.189H186.482ZM197.034 246.359V241.636H225.176V246.359H213.831V278H208.362V246.359H197.034ZM231.395 278V241.636H254.194V246.359H236.882V257.439H253.004V262.144H236.882V273.277H254.407V278H231.395ZM261.522 278V241.636H274.484C277.301 241.636 279.639 242.122 281.498 243.092C283.368 244.063 284.765 245.406 285.688 247.123C286.611 248.827 287.073 250.798 287.073 253.036C287.073 255.261 286.605 257.22 285.67 258.913C284.747 260.594 283.35 261.902 281.48 262.837C279.621 263.772 277.283 264.239 274.466 264.239H264.647V259.516H273.969C275.745 259.516 277.189 259.262 278.301 258.753C279.426 258.244 280.249 257.504 280.77 256.533C281.29 255.563 281.551 254.397 281.551 253.036C281.551 251.662 281.284 250.473 280.752 249.467C280.231 248.46 279.408 247.691 278.284 247.158C277.171 246.614 275.709 246.342 273.898 246.342H267.009V278H261.522ZM279.473 261.594L288.458 278H282.208L273.401 261.594H279.473ZM310.053 278H304.229L317.315 241.636H323.654L336.74 278H330.916L320.635 248.241H320.351L310.053 278ZM311.03 263.76H329.922V268.376H311.03V263.76ZM371.341 241.636V278H366.299L347.815 251.331H347.478V278H341.991V241.636H347.069L365.571 268.341H365.908V241.636H371.341ZM376.539 241.636H382.771L392.271 258.167H392.661L402.161 241.636H408.393L395.2 263.724V278H389.732V263.724L376.539 241.636ZM414.075 246.359V241.636H442.218V246.359H430.872V278H425.403V246.359H414.075ZM453.923 241.636V278H448.436V241.636H453.923ZM461.913 241.636H468.571L480.148 269.903H480.574L492.151 241.636H498.809V278H493.589V251.686H493.252L482.527 277.947H478.195L467.471 251.668H467.133V278H461.913V241.636ZM506.786 278V241.636H529.584V246.359H512.273V257.439H528.395V262.144H512.273V273.277H529.797V278H506.786Z" fill="black"/>
</svg>
